<?xml version="1.0" encoding="UTF-8"?>
<svg width="161px" height="50px" viewBox="0 0 161 50" version="1.1" xmlns="http://www.w3.org/2000/svg" xmlns:xlink="http://www.w3.org/1999/xlink">
    <title>app-store-icon</title>
    <g id="Page-1" stroke="none" stroke-width="1" fill="none" fill-rule="evenodd">
        <g id="app-store-icon" transform="translate(1.000000, 1.000000)">
            <g id="Group-5" transform="translate(20.000000, 10.000000)" fill="#FFFFFF" fill-rule="nonzero">
                <path d="M37.1730387,8.83977901 C39.8249724,8.83977901 41.0342541,7.17436464 41.0342541,5.07403315 L41.0342541,4.97856354 C41.0342541,2.86762431 39.8037569,1.25524862 37.1942541,1.25524862 L35.1893923,1.25524862 L35.1893923,8.83977901 L37.1730387,8.83977901 Z M37.1518232,8.08662983 L36.1122652,8.08662983 L36.1122652,1.99779006 L37.1412155,1.99779006 C39.2309392,1.99779006 40.079558,3.22828729 40.079558,4.97856354 L40.079558,5.06342541 C40.079558,6.91977901 39.1036464,8.08662983 37.1518232,8.08662983 Z M44.8106077,8.93524862 C46.3911602,8.93524862 47.5474033,7.77900552 47.5474033,6.10298343 L47.5474033,6.01812155 C47.5474033,4.35270718 46.3911602,3.19646409 44.8212155,3.19646409 C43.2512707,3.19646409 42.0950276,4.36331492 42.0950276,6.02872928 L42.0950276,6.11359116 C42.0950276,7.73657459 43.2300552,8.93524862 44.8106077,8.93524862 Z M44.8212155,8.20331492 C43.6967956,8.20331492 43.0072928,7.3759116 43.0072928,6.11359116 L43.0072928,6.02872928 C43.0072928,4.7558011 43.7074033,3.92839779 44.8212155,3.92839779 C45.9244199,3.92839779 46.6351381,4.7558011 46.6351381,6.03933702 L46.6351381,6.11359116 C46.6351381,7.36530387 45.9350276,8.20331492 44.8212155,8.20331492 Z M50.8888398,8.83977901 L52.1829834,4.68154696 L53.3392265,8.83977901 L54.3151381,8.83977901 L56.0441989,3.2919337 L55.1425414,3.2919337 L53.8377901,7.75779006 L52.5754696,3.2919337 L51.8117127,3.2919337 L50.4645304,7.75779006 L49.1703867,3.2919337 L48.2156906,3.2919337 L49.9235359,8.83977901 L50.8888398,8.83977901 Z M58.1127072,8.83977901 L58.1127072,5.47712707 C58.1127072,4.48 58.8446409,3.96022099 59.6614365,3.96022099 C60.5524862,3.96022099 60.9661878,4.39513812 60.9661878,5.37104972 L60.9661878,8.83977901 L61.8466298,8.83977901 L61.8466298,5.43469613 C61.8466298,3.82232044 61.040442,3.19646409 59.8948066,3.19646409 C58.9825414,3.19646409 58.3672928,3.65259669 58.1127072,4.17237569 L58.1127072,3.2919337 L57.2322652,3.2919337 L57.2322652,8.83977901 L58.1127072,8.83977901 Z M64.4879558,8.83977901 L64.4879558,0.64 L63.5969061,0.64 L63.5969061,8.83977901 L64.4879558,8.83977901 Z M68.5931492,8.93524862 C70.1737017,8.93524862 71.3299448,7.77900552 71.3299448,6.10298343 L71.3299448,6.01812155 C71.3299448,4.35270718 70.1737017,3.19646409 68.6037569,3.19646409 C67.0338122,3.19646409 65.8775691,4.36331492 65.8775691,6.02872928 L65.8775691,6.11359116 C65.8775691,7.73657459 67.0125967,8.93524862 68.5931492,8.93524862 Z M68.6037569,8.20331492 C67.479337,8.20331492 66.7898343,7.3759116 66.7898343,6.11359116 L66.7898343,6.02872928 C66.7898343,4.7558011 67.4899448,3.92839779 68.6037569,3.92839779 C69.7069613,3.92839779 70.4176796,4.7558011 70.4176796,6.03933702 L70.4176796,6.11359116 C70.4176796,7.36530387 69.7175691,8.20331492 68.6037569,8.20331492 Z M74.0879558,8.93524862 C74.9047514,8.93524862 75.4033149,8.65944751 75.8170166,8.13966851 L75.8170166,8.83977901 L76.6974586,8.83977901 L76.6974586,5.1801105 C76.6974586,3.63138122 75.7321547,3.19646409 74.6713812,3.19646409 C73.6,3.19646409 72.5922652,3.66320442 72.4755801,4.92552486 L73.3560221,4.92552486 C73.440884,4.24662983 73.8651934,3.92839779 74.6289503,3.92839779 C75.4775691,3.92839779 75.8170166,4.29966851 75.8170166,5.1801105 L75.8170166,5.58320442 L75.0214365,5.58320442 C73.6,5.58320442 72.2422099,6.01812155 72.2422099,7.30165746 C72.2422099,8.43668508 73.0590055,8.93524862 74.0879558,8.93524862 Z M74.1728177,8.23513812 C73.398453,8.23513812 73.1226519,7.87447514 73.1226519,7.30165746 C73.1226519,6.48486188 73.9394475,6.20906077 75.0532597,6.20906077 L75.8170166,6.20906077 L75.8170166,6.89856354 C75.8170166,7.75779006 75.1062983,8.23513812 74.1728177,8.23513812 Z M80.5162431,8.93524862 C81.3224309,8.93524862 82.0967956,8.42607735 82.4150276,7.88508287 L82.4150276,8.83977901 L83.2954696,8.83977901 L83.2954696,0.64 L82.4150276,0.64 L82.4150276,4.18298343 C82.0967956,3.64198895 81.5239779,3.19646409 80.601105,3.19646409 C79.0735912,3.19646409 78.0128177,4.39513812 78.0128177,6.09237569 L78.0128177,6.17723757 C78.0128177,7.90629834 79.0629834,8.93524862 80.5162431,8.93524862 Z M80.6117127,8.20331492 C79.678232,8.20331492 78.9250829,7.53502762 78.9250829,6.13480663 L78.9250829,6.04994475 C78.9250829,4.70276243 79.5827624,3.92839779 80.6859669,3.92839779 C81.7679558,3.92839779 82.4468508,4.59668508 82.4468508,6.01812155 L82.4468508,6.10298343 C82.4468508,7.52441989 81.640663,8.20331492 80.6117127,8.20331492 Z M90.1904972,8.93524862 C91.7710497,8.93524862 92.9272928,7.77900552 92.9272928,6.10298343 L92.9272928,6.01812155 C92.9272928,4.35270718 91.7710497,3.19646409 90.201105,3.19646409 C88.6311602,3.19646409 87.4749171,4.36331492 87.4749171,6.02872928 L87.4749171,6.11359116 C87.4749171,7.73657459 88.6099448,8.93524862 90.1904972,8.93524862 Z M90.201105,8.20331492 C89.0766851,8.20331492 88.3871823,7.3759116 88.3871823,6.11359116 L88.3871823,6.02872928 C88.3871823,4.7558011 89.0872928,3.92839779 90.201105,3.92839779 C91.3043094,3.92839779 92.0150276,4.7558011 92.0150276,6.03933702 L92.0150276,6.11359116 C92.0150276,7.36530387 91.3149171,8.20331492 90.201105,8.20331492 Z M95.1761326,8.83977901 L95.1761326,5.47712707 C95.1761326,4.48 95.9080663,3.96022099 96.7248619,3.96022099 C97.6159116,3.96022099 98.0296133,4.39513812 98.0296133,5.37104972 L98.0296133,8.83977901 L98.9100552,8.83977901 L98.9100552,5.43469613 C98.9100552,3.82232044 98.1038674,3.19646409 96.958232,3.19646409 C96.0459669,3.19646409 95.4307182,3.65259669 95.1761326,4.17237569 L95.1761326,3.2919337 L94.2956906,3.2919337 L94.2956906,8.83977901 L95.1761326,8.83977901 Z M105.136796,8.91403315 C105.497459,8.91403315 105.709613,8.86099448 105.889945,8.79734807 L105.889945,8.05480663 C105.699006,8.12906077 105.486851,8.17149171 105.21105,8.17149171 C104.765525,8.17149171 104.521547,7.90629834 104.521547,7.36530387 L104.521547,4.03447514 L105.815691,4.03447514 L105.815691,3.2919337 L104.521547,3.2919337 L104.521547,2.02961326 L103.641105,2.02961326 L103.641105,3.2919337 L102.845525,3.2919337 L102.845525,4.03447514 L103.641105,4.03447514 L103.641105,7.45016575 C103.641105,8.32 104.129061,8.91403315 105.136796,8.91403315 Z M108.096354,8.83977901 L108.096354,5.47712707 C108.096354,4.48 108.828287,3.96022099 109.645083,3.96022099 C110.536133,3.96022099 110.949834,4.39513812 110.949834,5.37104972 L110.949834,8.83977901 L111.830276,8.83977901 L111.830276,5.43469613 C111.830276,3.82232044 111.024088,3.19646409 109.878453,3.19646409 C108.966188,3.19646409 108.350939,3.65259669 108.096354,4.17237569 L108.096354,0.64 L107.215912,0.64 L107.215912,8.83977901 L108.096354,8.83977901 Z M115.829392,8.93524862 C117.081105,8.93524862 118.003978,8.3518232 118.194917,7.23801105 L117.314475,7.23801105 C117.19779,7.88508287 116.699227,8.20331492 115.84,8.20331492 C114.704972,8.20331492 114.100331,7.50320442 114.057901,6.24088398 L118.237348,6.24088398 L118.237348,5.95447514 C118.237348,3.97082873 117.028066,3.19646409 115.74453,3.19646409 C114.217017,3.19646409 113.145635,4.36331492 113.145635,6.03933702 L113.145635,6.1241989 C113.145635,7.8320442 114.259448,8.93524862 115.829392,8.93524862 Z M117.335691,5.53016575 L114.089724,5.53016575 C114.238232,4.54364641 114.842873,3.92839779 115.74453,3.92839779 C116.656796,3.92839779 117.250829,4.38453039 117.335691,5.53016575 Z" id="Downloadonthe"></path>
                <path d="M36.7858564,26.519337 L37.5655249,23.9893923 L41.6866298,23.9893923 L42.4662983,26.519337 L45.1553591,26.519337 L41.4638674,15.1425414 L38.1065193,15.1425414 L34.3672928,26.519337 L36.7858564,26.519337 Z M41.1297238,22.159558 L38.1224309,22.159558 L39.6340331,17.2428729 L41.1297238,22.159558 Z M48.8150276,29.3516022 L48.8150276,25.2464088 C49.2446409,26.0579006 50.1834254,26.6943646 51.4722652,26.6943646 C53.5407735,26.6943646 55.1001105,25.1509392 55.1001105,22.398232 L55.1001105,22.2709392 C55.1001105,19.518232 53.5089503,18.0066298 51.4722652,18.0066298 C50.2470718,18.0066298 49.2764641,18.7067403 48.8150276,19.5023204 L48.8150276,18.1975691 L46.5078453,18.1975691 L46.5078453,29.3516022 L48.8150276,29.3516022 Z M50.7880663,24.8963536 C49.5310497,24.8963536 48.7354696,24.0848619 48.7354696,22.4141436 L48.7354696,22.2868508 C48.7354696,20.6161326 49.5628729,19.7728177 50.7721547,19.7728177 C51.9337017,19.7728177 52.761105,20.600221 52.761105,22.2868508 L52.761105,22.4141436 C52.761105,24.0371271 52.0609945,24.8963536 50.7880663,24.8963536 Z M58.9507182,29.3516022 L58.9507182,25.2464088 C59.3803315,26.0579006 60.319116,26.6943646 61.6079558,26.6943646 C63.6764641,26.6943646 65.2358011,25.1509392 65.2358011,22.398232 L65.2358011,22.2709392 C65.2358011,19.518232 63.6446409,18.0066298 61.6079558,18.0066298 C60.3827624,18.0066298 59.4121547,18.7067403 58.9507182,19.5023204 L58.9507182,18.1975691 L56.6435359,18.1975691 L56.6435359,29.3516022 L58.9507182,29.3516022 Z M60.9237569,24.8963536 C59.6667403,24.8963536 58.8711602,24.0848619 58.8711602,22.4141436 L58.8711602,22.2868508 C58.8711602,20.6161326 59.6985635,19.7728177 60.9078453,19.7728177 C62.0693923,19.7728177 62.8967956,20.600221 62.8967956,22.2868508 L62.8967956,22.4141436 C62.8967956,24.0371271 62.1966851,24.8963536 60.9237569,24.8963536 Z M74.4963536,26.6943646 C77.1854144,26.6943646 78.840221,25.0872928 78.840221,23.0665193 C78.840221,20.7116022 77.4240884,19.9637569 74.6713812,19.6137017 C72.921105,19.359116 72.5551381,18.9772376 72.5551381,18.1657459 C72.5551381,17.401989 73.1279558,16.8769061 74.2576796,16.8769061 C75.3874033,16.8769061 75.9920442,17.3542541 76.1511602,18.3885083 L78.521989,18.3885083 C78.3151381,16.1290608 76.8194475,14.9834254 74.2576796,14.9834254 C71.7436464,14.9834254 70.120663,16.4313812 70.120663,18.3725967 C70.120663,20.5683978 71.3140331,21.4435359 74.2258564,21.8254144 C75.8965746,22.08 76.3739227,22.398232 76.3739227,23.3051934 C76.3739227,24.1962431 75.6260773,24.8167956 74.4963536,24.8167956 C72.8097238,24.8167956 72.3801105,23.9734807 72.2687293,22.9551381 L69.8024309,22.9551381 C69.9456354,25.2304972 71.3776796,26.6943646 74.4963536,26.6943646 Z M83.5341436,26.678453 C84.1546961,26.678453 84.6161326,26.5670718 84.9343646,26.4556906 L84.9343646,24.6735912 C84.6638674,24.7849724 84.4092818,24.8327072 84.0592265,24.8327072 C83.4704972,24.8327072 83.1363536,24.5144751 83.1363536,23.8461878 L83.1363536,19.8364641 L84.8866298,19.8364641 L84.8866298,18.1975691 L83.1363536,18.1975691 L83.1363536,16.399558 L80.8450829,16.399558 L80.8450829,18.1975691 L79.7790055,18.1975691 L79.7790055,19.8364641 L80.8450829,19.8364641 L80.8450829,24.0530387 C80.8450829,25.7874033 81.7838674,26.678453 83.5341436,26.678453 Z M90.360221,26.6943646 C92.8583425,26.6943646 94.7518232,25.0236464 94.7518232,22.398232 L94.7518232,22.2709392 C94.7518232,19.6773481 92.8742541,18.0066298 90.3761326,18.0066298 C87.878011,18.0066298 85.9845304,19.7091713 85.9845304,22.318674 L85.9845304,22.4459669 C85.9845304,25.039558 87.878011,26.6943646 90.360221,26.6943646 Z M90.3761326,24.9440884 C89.0713812,24.9440884 88.3394475,23.9893923 88.3394475,22.398232 L88.3394475,22.2709392 C88.3394475,20.679779 89.1032044,19.7569061 90.3761326,19.7569061 C91.6649724,19.7569061 92.4128177,20.7116022 92.4128177,22.3027624 L92.4128177,22.4141436 C92.4128177,23.9893923 91.6649724,24.9440884 90.3761326,24.9440884 Z M98.6024309,26.519337 L98.6024309,22.3504972 C98.6024309,20.759337 99.5889503,20.2024309 101.291492,20.2183425 L101.291492,18.0702762 C99.9390055,18.0861878 99.1275138,18.6749171 98.6024309,19.7887293 L98.6024309,18.1975691 L96.2952486,18.1975691 L96.2952486,26.519337 L98.6024309,26.519337 Z M106.478674,26.6943646 C108.754033,26.6943646 110.186077,25.6919337 110.456575,23.8939227 L108.276685,23.8939227 C108.133481,24.5940331 107.608398,25.0554696 106.54232,25.0554696 C105.285304,25.0554696 104.537459,24.2598895 104.473812,22.8755801 L110.472486,22.8755801 L110.472486,22.239116 C110.472486,19.2636464 108.563094,18.0066298 106.415028,18.0066298 C103.996464,18.0066298 102.134807,19.7091713 102.134807,22.3345856 L102.134807,22.4618785 C102.134807,25.119116 103.964641,26.6943646 106.478674,26.6943646 Z M108.22895,21.4594475 L104.505635,21.4594475 C104.680663,20.281989 105.380773,19.5977901 106.415028,19.5977901 C107.512928,19.5977901 108.149392,20.2024309 108.22895,21.4594475 Z" id="AppStore"></path>
                <g id="apple-(2)">
                    <path d="M7.91306251,29.1712707 C3.58231279,29.145665 0,20.0727292 0,15.4520949 C0,7.90430254 5.51708677,6.25188873 7.64333195,6.25188873 C8.60154038,6.25188873 9.62470922,6.63807411 10.5271642,6.97981406 C11.1582405,7.21819793 11.8109134,7.46428102 12.1739074,7.46428102 C12.3911808,7.46428102 12.9031915,7.25494416 13.355243,7.07127134 C14.3193053,6.67738675 15.5189413,6.1878453 16.9159024,6.1878453 C16.9184031,6.1878453 16.9217562,6.1878453 16.9242,6.1878453 C17.9673173,6.1878453 21.1300872,6.42278786 23.0315569,9.35338723 L23.4769589,10.0403084 L22.8359369,10.5367325 C21.9201828,11.2458764 20.2492856,12.5394603 20.2492856,15.1018391 C20.2492856,18.1366694 22.1416051,19.3037997 23.0507097,19.8651421 C23.4520092,20.1129167 23.8674033,20.3683905 23.8674033,20.9271665 C23.8674033,21.2920041 21.0301743,29.1260087 16.9100485,29.1260087 C15.9018838,29.1260087 15.1892517,28.8150073 14.5606761,28.5407521 C13.9246553,28.2630556 13.3759872,28.0238551 12.4693833,28.0238551 C12.0098297,28.0238551 11.4287099,28.2468406 10.8134901,28.4835329 C9.97275598,28.8055583 9.02114015,29.1712707 7.94136546,29.1712707 L7.91306251,29.1712707 Z" id="Path"></path>
                    <path d="M17.6761377,0 C17.7975263,3.74525894 14.6673364,6.34354746 11.5408113,6.18059051 C11.0256175,3.19174449 14.6669506,0 17.6761377,0 Z" id="Path"></path>
                </g>
            </g>
            <rect id="Rectangle" stroke-opacity="0.518056163" stroke="#FFFFFF" stroke-width="0.883977901" x="0" y="0" width="159.116022" height="47.7348066" rx="6.1878453"></rect>
        </g>
    </g>
</svg>