<?xml version="1.0" encoding="UTF-8"?>
<svg width="182px" height="57px" viewBox="0 0 182 57" version="1.1" xmlns="http://www.w3.org/2000/svg" xmlns:xlink="http://www.w3.org/1999/xlink">
    <title>app-store-icon</title>
    <g id="Page-1" stroke="none" stroke-width="1" fill="none" fill-rule="evenodd">
        <g id="62(2)" transform="translate(-719.000000, -1126.000000)">
            <g id="app-store-icon" transform="translate(720.000000, 1127.985753)">
                <rect id="Rectangle" stroke-opacity="0.518056163" stroke="#FFFFFF" fill="#000000" x="0" y="0" width="180" height="54" rx="7"></rect>
                <g id="Group-14" transform="translate(23.000000, 11.000000)" fill="#FFFFFF" fill-rule="nonzero">
                    <path d="M42.052,10 C45.052,10 46.42,8.116 46.42,5.74 L46.42,5.632 C46.42,3.244 45.028,1.42 42.076,1.42 L39.808,1.42 L39.808,10 L42.052,10 Z M42.028,9.148 L40.852,9.148 L40.852,2.26 L42.016,2.26 C44.38,2.26 45.34,3.652 45.34,5.632 L45.34,5.728 C45.34,7.828 44.236,9.148 42.028,9.148 Z M50.692,10.108 C52.48,10.108 53.788,8.8 53.788,6.904 L53.788,6.808 C53.788,4.924 52.48,3.616 50.704,3.616 C48.928,3.616 47.62,4.936 47.62,6.82 L47.62,6.916 C47.62,8.752 48.904,10.108 50.692,10.108 Z M50.704,9.28 C49.432,9.28 48.652,8.344 48.652,6.916 L48.652,6.82 C48.652,5.38 49.444,4.444 50.704,4.444 C51.952,4.444 52.756,5.38 52.756,6.832 L52.756,6.916 C52.756,8.332 51.964,9.28 50.704,9.28 Z M57.568,10 L59.032,5.296 L60.34,10 L61.444,10 L63.4,3.724 L62.38,3.724 L60.904,8.776 L59.476,3.724 L58.612,3.724 L57.088,8.776 L55.624,3.724 L54.544,3.724 L56.476,10 L57.568,10 Z M65.74,10 L65.74,6.196 C65.74,5.068 66.568,4.48 67.492,4.48 C68.5,4.48 68.968,4.972 68.968,6.076 L68.968,10 L69.964,10 L69.964,6.148 C69.964,4.324 69.052,3.616 67.756,3.616 C66.724,3.616 66.028,4.132 65.74,4.72 L65.74,3.724 L64.744,3.724 L64.744,10 L65.74,10 Z M72.952,10 L72.952,0.724 L71.944,0.724 L71.944,10 L72.952,10 Z M77.596,10.108 C79.384,10.108 80.692,8.8 80.692,6.904 L80.692,6.808 C80.692,4.924 79.384,3.616 77.608,3.616 C75.832,3.616 74.524,4.936 74.524,6.82 L74.524,6.916 C74.524,8.752 75.808,10.108 77.596,10.108 Z M77.608,9.28 C76.336,9.28 75.556,8.344 75.556,6.916 L75.556,6.82 C75.556,5.38 76.348,4.444 77.608,4.444 C78.856,4.444 79.66,5.38 79.66,6.832 L79.66,6.916 C79.66,8.332 78.868,9.28 77.608,9.28 Z M83.812,10.108 C84.736,10.108 85.3,9.796 85.768,9.208 L85.768,10 L86.764,10 L86.764,5.86 C86.764,4.108 85.672,3.616 84.472,3.616 C83.26,3.616 82.12,4.144 81.988,5.572 L82.984,5.572 C83.08,4.804 83.56,4.444 84.424,4.444 C85.384,4.444 85.768,4.864 85.768,5.86 L85.768,6.316 L84.868,6.316 C83.26,6.316 81.724,6.808 81.724,8.26 C81.724,9.544 82.648,10.108 83.812,10.108 Z M83.908,9.316 C83.032,9.316 82.72,8.908 82.72,8.26 C82.72,7.336 83.644,7.024 84.904,7.024 L85.768,7.024 L85.768,7.804 C85.768,8.776 84.964,9.316 83.908,9.316 Z M91.084,10.108 C91.996,10.108 92.872,9.532 93.232,8.92 L93.232,10 L94.228,10 L94.228,0.724 L93.232,0.724 L93.232,4.732 C92.872,4.12 92.224,3.616 91.18,3.616 C89.452,3.616 88.252,4.972 88.252,6.892 L88.252,6.988 C88.252,8.944 89.44,10.108 91.084,10.108 Z M91.192,9.28 C90.136,9.28 89.284,8.524 89.284,6.94 L89.284,6.844 C89.284,5.32 90.028,4.444 91.276,4.444 C92.5,4.444 93.268,5.2 93.268,6.808 L93.268,6.904 C93.268,8.512 92.356,9.28 91.192,9.28 Z M102.028,10.108 C103.816,10.108 105.124,8.8 105.124,6.904 L105.124,6.808 C105.124,4.924 103.816,3.616 102.04,3.616 C100.264,3.616 98.956,4.936 98.956,6.82 L98.956,6.916 C98.956,8.752 100.24,10.108 102.028,10.108 Z M102.04,9.28 C100.768,9.28 99.988,8.344 99.988,6.916 L99.988,6.82 C99.988,5.38 100.78,4.444 102.04,4.444 C103.288,4.444 104.092,5.38 104.092,6.832 L104.092,6.916 C104.092,8.332 103.3,9.28 102.04,9.28 Z M107.668,10 L107.668,6.196 C107.668,5.068 108.496,4.48 109.42,4.48 C110.428,4.48 110.896,4.972 110.896,6.076 L110.896,10 L111.892,10 L111.892,6.148 C111.892,4.324 110.98,3.616 109.684,3.616 C108.652,3.616 107.956,4.132 107.668,4.72 L107.668,3.724 L106.672,3.724 L106.672,10 L107.668,10 Z M118.936,10.084 C119.344,10.084 119.584,10.024 119.788,9.952 L119.788,9.112 C119.572,9.196 119.332,9.244 119.02,9.244 C118.516,9.244 118.24,8.944 118.24,8.332 L118.24,4.564 L119.704,4.564 L119.704,3.724 L118.24,3.724 L118.24,2.296 L117.244,2.296 L117.244,3.724 L116.344,3.724 L116.344,4.564 L117.244,4.564 L117.244,8.428 C117.244,9.412 117.796,10.084 118.936,10.084 Z M122.284,10 L122.284,6.196 C122.284,5.068 123.112,4.48 124.036,4.48 C125.044,4.48 125.512,4.972 125.512,6.076 L125.512,10 L126.508,10 L126.508,6.148 C126.508,4.324 125.596,3.616 124.3,3.616 C123.268,3.616 122.572,4.132 122.284,4.72 L122.284,0.724 L121.288,0.724 L121.288,10 L122.284,10 Z M131.032,10.108 C132.448,10.108 133.492,9.448 133.708,8.188 L132.712,8.188 C132.58,8.92 132.016,9.28 131.044,9.28 C129.76,9.28 129.076,8.488 129.028,7.06 L133.756,7.06 L133.756,6.736 C133.756,4.492 132.388,3.616 130.936,3.616 C129.208,3.616 127.996,4.936 127.996,6.832 L127.996,6.928 C127.996,8.86 129.256,10.108 131.032,10.108 Z M132.736,6.256 L129.064,6.256 C129.232,5.14 129.916,4.444 130.936,4.444 C131.968,4.444 132.64,4.96 132.736,6.256 Z" id="Downloadonthe"></path>
                    <path d="M41.614,30 L42.496,27.138 L47.158,27.138 L48.04,30 L51.082,30 L46.906,17.13 L43.108,17.13 L38.878,30 L41.614,30 Z M46.528,25.068 L43.126,25.068 L44.836,19.506 L46.528,25.068 Z M55.222,33.204 L55.222,28.56 C55.708,29.478 56.77,30.198 58.228,30.198 C60.568,30.198 62.332,28.452 62.332,25.338 L62.332,25.194 C62.332,22.08 60.532,20.37 58.228,20.37 C56.842,20.37 55.744,21.162 55.222,22.062 L55.222,20.586 L52.612,20.586 L52.612,33.204 L55.222,33.204 Z M57.454,28.164 C56.032,28.164 55.132,27.246 55.132,25.356 L55.132,25.212 C55.132,23.322 56.068,22.368 57.436,22.368 C58.75,22.368 59.686,23.304 59.686,25.212 L59.686,25.356 C59.686,27.192 58.894,28.164 57.454,28.164 Z M66.688,33.204 L66.688,28.56 C67.174,29.478 68.236,30.198 69.694,30.198 C72.034,30.198 73.798,28.452 73.798,25.338 L73.798,25.194 C73.798,22.08 71.998,20.37 69.694,20.37 C68.308,20.37 67.21,21.162 66.688,22.062 L66.688,20.586 L64.078,20.586 L64.078,33.204 L66.688,33.204 Z M68.92,28.164 C67.498,28.164 66.598,27.246 66.598,25.356 L66.598,25.212 C66.598,23.322 67.534,22.368 68.902,22.368 C70.216,22.368 71.152,23.304 71.152,25.212 L71.152,25.356 C71.152,27.192 70.36,28.164 68.92,28.164 Z M84.274,30.198 C87.316,30.198 89.188,28.38 89.188,26.094 C89.188,23.43 87.586,22.584 84.472,22.188 C82.492,21.9 82.078,21.468 82.078,20.55 C82.078,19.686 82.726,19.092 84.004,19.092 C85.282,19.092 85.966,19.632 86.146,20.802 L88.828,20.802 C88.594,18.246 86.902,16.95 84.004,16.95 C81.16,16.95 79.324,18.588 79.324,20.784 C79.324,23.268 80.674,24.258 83.968,24.69 C85.858,24.978 86.398,25.338 86.398,26.364 C86.398,27.372 85.552,28.074 84.274,28.074 C82.366,28.074 81.88,27.12 81.754,25.968 L78.964,25.968 C79.126,28.542 80.746,30.198 84.274,30.198 Z M94.498,30.18 C95.2,30.18 95.722,30.054 96.082,29.928 L96.082,27.912 C95.776,28.038 95.488,28.092 95.092,28.092 C94.426,28.092 94.048,27.732 94.048,26.976 L94.048,22.44 L96.028,22.44 L96.028,20.586 L94.048,20.586 L94.048,18.552 L91.456,18.552 L91.456,20.586 L90.25,20.586 L90.25,22.44 L91.456,22.44 L91.456,27.21 C91.456,29.172 92.518,30.18 94.498,30.18 Z M102.22,30.198 C105.046,30.198 107.188,28.308 107.188,25.338 L107.188,25.194 C107.188,22.26 105.064,20.37 102.238,20.37 C99.412,20.37 97.27,22.296 97.27,25.248 L97.27,25.392 C97.27,28.326 99.412,30.198 102.22,30.198 Z M102.238,28.218 C100.762,28.218 99.934,27.138 99.934,25.338 L99.934,25.194 C99.934,23.394 100.798,22.35 102.238,22.35 C103.696,22.35 104.542,23.43 104.542,25.23 L104.542,25.356 C104.542,27.138 103.696,28.218 102.238,28.218 Z M111.544,30 L111.544,25.284 C111.544,23.484 112.66,22.854 114.586,22.872 L114.586,20.442 C113.056,20.46 112.138,21.126 111.544,22.386 L111.544,20.586 L108.934,20.586 L108.934,30 L111.544,30 Z M120.454,30.198 C123.028,30.198 124.648,29.064 124.954,27.03 L122.488,27.03 C122.326,27.822 121.732,28.344 120.526,28.344 C119.104,28.344 118.258,27.444 118.186,25.878 L124.972,25.878 L124.972,25.158 C124.972,21.792 122.812,20.37 120.382,20.37 C117.646,20.37 115.54,22.296 115.54,25.266 L115.54,25.41 C115.54,28.416 117.61,30.198 120.454,30.198 Z M122.434,24.276 L118.222,24.276 C118.42,22.944 119.212,22.17 120.382,22.17 C121.624,22.17 122.344,22.854 122.434,24.276 Z" id="AppStore"></path>
                    <g id="apple-(2)">
                        <path d="M8.95165196,33 C4.05249134,32.9710335 0,22.7072749 0,17.4801823 C0,8.94174225 6.24120441,7.07244913 8.64651927,7.07244913 C9.73049255,7.07244913 10.8879523,7.50932134 11.9088545,7.89591465 C12.6227596,8.16558641 13.3610958,8.4439679 13.7717327,8.4439679 C14.0175233,8.4439679 14.5967354,8.20715558 15.1081187,7.9993757 C16.1987141,7.55379376 17.5558024,7 19.1361146,7 C19.1389435,7 19.1427367,7 19.1455013,7 C20.3255277,7 23.9034111,7.26577877 26.0544487,10.5810193 L26.5583098,11.3580989 L25.8331536,11.9196786 C24.7972068,12.7218977 22.9070043,14.1852645 22.9070043,17.0839555 C22.9070043,20.5171073 25.0476908,21.8374234 26.0761153,22.472442 C26.5300854,22.752737 27,23.0417417 27,23.6738571 C27,24.0865796 23.7903847,32.9487973 19.1294924,32.9487973 C17.989006,32.9487973 17.182841,32.596977 16.4717648,32.2867258 C15.7522663,31.9725816 15.1315855,31.7019861 14.1059899,31.7019861 C13.5861199,31.7019861 12.9287281,31.9542384 12.2327607,32.2219966 C11.2816802,32.5862878 10.2051648,33 8.98366968,33 L8.95165196,33 Z" id="Path"></path>
                        <path d="M19.9961308,0 C20.1334516,4.23682418 16.5924243,7.17613806 13.0555428,6.99179302 C12.4727298,3.61066095 16.5919879,0 19.9961308,0 Z" id="Path"></path>
                    </g>
                </g>
            </g>
        </g>
    </g>
</svg>