<?xml version="1.0" encoding="UTF-8"?>
<svg width="345px" height="227px" viewBox="0 0 345 227" version="1.1" xmlns="http://www.w3.org/2000/svg" xmlns:xlink="http://www.w3.org/1999/xlink">
    <title>city-driver-bro</title>
    <g id="Page-1" stroke="none" stroke-width="1" fill="none" fill-rule="evenodd">
        <g id="city-driver-bro" style="mix-blend-mode: multiply;" transform="translate(0.000000, 1.000000)">
            <g id="freepik--Clouds--inject-121" transform="translate(110.595192, 12.197999)" fill-rule="nonzero" stroke="#263238" stroke-width="0.813199939">
                <path d="M173.601923,57.7371957 C171.007815,56.3222278 169.828675,57.5013677 168.877231,56.3222278 C167.925787,55.1430879 171.479471,52.0691921 164.3965,49.0034283 C164.3965,49.0034283 163.924844,42.3921128 154.239632,42.1562848 C144.554421,41.9204569 147.189189,48.7350723 144.562553,50.4183962 C141.935917,52.1017201 141.252829,49.4750843 138.658722,51.1258802 C136.064614,52.776676 137.235622,56.0863998 135.11317,56.5580558 C132.990718,57.0297117 130.15265,54.4356039 127.558542,56.0863998 C124.964435,57.7371957 124.956303,59.1521636 123.777163,59.1521636 C122.598023,59.1521636 120.239743,58.2088516 118.816643,59.1521636 C117.393543,60.0954755 115.750879,61.2827474 115.750879,61.2827474 L175.488547,61.2827474 C175.488547,61.2827474 176.204163,59.1196356 173.601923,57.7371957 Z" id="Path"></path>
                <path d="M26.510318,78.0671941 C25.3311781,77.4247662 24.7944661,77.9614782 24.3716022,77.4247662 C23.9487382,76.8880542 25.5507421,75.4974823 22.3304703,74.1069104 C22.3304703,74.1069104 22.1190383,71.0980707 17.7196267,70.9923547 C13.320215,70.8866387 14.5074869,73.9930625 13.328347,74.7493384 C12.1492071,75.5056143 11.8320591,74.3183424 10.6529192,75.0664864 C9.47377929,75.8146303 10.0023593,77.3190502 9.02651932,77.5060862 C8.0506794,77.6931222 6.77395549,76.5465103 5.59481558,77.2946542 C4.41567567,78.0427982 4.41567567,78.6852261 3.87896371,78.6852261 C3.34225175,78.6852261 2.25256383,78.2623621 1.62639988,78.6852261 C1.00023593,79.1080901 0.235827982,79.652934 0.235827982,79.652934 L27.3560459,79.652934 C27.4994505,78.9887149 27.1418085,78.318136 26.510318,78.0671941 L26.510318,78.0671941 Z" id="Path"></path>
                <path d="M48.4829804,9.75839927 C46.8565805,8.88014333 46.1247005,9.61202328 45.5310646,8.88014333 C44.9374286,8.14826339 47.1574645,6.22097953 42.7336568,4.30995968 C42.7336568,4.30995968 42.4409048,0.178903987 36.3988293,0.0325279976 C30.3567537,-0.113847991 31.9750216,4.16358369 30.3486217,5.18821561 C28.7222218,6.21284753 28.2912259,4.60271166 26.664826,5.63547558 C25.0384261,6.6682395 25.7865701,8.72563535 24.4529222,9.02651932 C23.1192743,9.3274033 21.3627624,7.70100342 19.7444945,8.72563535 C18.1262266,9.75026727 18.1180946,10.6447872 17.3862147,10.6447872 C16.6543348,10.6447872 15.1743109,10.0511512 14.2879229,10.6447872 C13.401535,11.2384232 12.3687711,11.9703031 12.3687711,11.9703031 L49.6621203,11.9703031 C49.8750294,11.0422032 49.3722011,10.0989667 48.4829804,9.75839927 Z" id="Path"></path>
            </g>
            <g id="freepik--Buildings--inject-121" stroke="#263238" stroke-width="0.813199939">
                <rect id="Rectangle" x="47.6535164" y="103.032432" width="6.6357115" height="6.6845035"></rect>
                <rect id="Rectangle" x="40.489225" y="107.074036" width="2.6916918" height="2.6347678"></rect>
                <polyline id="Path" points="312.968129 145.237509 287.823986 145.237509 287.823986 92.2006091 289.50731 92.2006091 289.50731 86.7033775 230.607239 86.7033775 230.607239 92.2006091 232.648371 92.2006091 232.648371 171.072871 217.197572 171.072871 217.197572 1.85409586 164.217596 1.85409586 164.217596 129.82737 144.855305 129.82737 144.855305 115.661427 149.921541 115.661427 149.921541 109.668144 107.570088 109.668144 107.570088 23.8104942 110.310572 23.8104942 110.310572 19.3216306 58.8919396 19.3216306 58.8919396 23.8104942 62.5838673 23.8104942 62.5838673 109.81452 21.9482664 109.81452 21.9482664 171.316831 0.609899954 171.316831"></polyline>
                <rect id="Rectangle" x="161.859316" y="0" width="57.4444437" height="1.83783186"></rect>
                <rect id="Rectangle" x="67.178447" y="28.8035418" width="6.47307151" height="6.92846348"></rect>
                <rect id="Rectangle" x="76.6684903" y="28.8035418" width="6.47307151" height="6.92846348"></rect>
                <rect id="Rectangle" x="86.1585335" y="28.8035418" width="6.47307151" height="6.92846348"></rect>
                <rect id="Rectangle" x="95.6567088" y="28.8035418" width="6.47307151" height="6.92846348"></rect>
                <rect id="Rectangle" x="67.178447" y="39.789873" width="6.47307151" height="6.92846348"></rect>
                <rect id="Rectangle" x="76.6684903" y="39.789873" width="6.47307151" height="6.92846348"></rect>
                <rect id="Rectangle" x="86.1585335" y="39.789873" width="6.47307151" height="6.92846348"></rect>
                <rect id="Rectangle" x="95.6567088" y="39.789873" width="6.47307151" height="6.92846348"></rect>
                <rect id="Rectangle" x="67.178447" y="50.7680722" width="6.47307151" height="6.92846348"></rect>
                <rect id="Rectangle" x="76.6684903" y="50.7680722" width="6.47307151" height="6.92846348"></rect>
                <rect id="Rectangle" x="86.1585335" y="50.7680722" width="6.47307151" height="6.92846348"></rect>
                <rect id="Rectangle" x="95.6567088" y="50.7680722" width="6.47307151" height="6.92846348"></rect>
                <rect id="Rectangle" x="67.178447" y="61.7462714" width="6.47307151" height="6.92846348"></rect>
                <rect id="Rectangle" x="76.6684903" y="61.7462714" width="6.47307151" height="6.92846348"></rect>
                <rect id="Rectangle" x="86.1585335" y="61.7462714" width="6.47307151" height="6.92846348"></rect>
                <rect id="Rectangle" x="95.6567088" y="61.7462714" width="6.47307151" height="6.92846348"></rect>
                <rect id="Rectangle" x="67.178447" y="72.7326025" width="6.47307151" height="6.92846348"></rect>
                <rect id="Rectangle" x="76.6684903" y="72.7326025" width="6.47307151" height="6.92846348"></rect>
                <rect id="Rectangle" x="86.1585335" y="72.7326025" width="6.47307151" height="6.92846348"></rect>
                <rect id="Rectangle" x="95.6567088" y="72.7326025" width="6.47307151" height="6.92846348"></rect>
                <rect id="Rectangle" x="67.178447" y="83.7108017" width="6.47307151" height="6.92846348"></rect>
                <rect id="Rectangle" x="76.6684903" y="83.7108017" width="6.47307151" height="6.92846348"></rect>
                <rect id="Rectangle" x="86.1585335" y="83.7108017" width="6.47307151" height="6.92846348"></rect>
                <rect id="Rectangle" x="95.6567088" y="83.7108017" width="6.47307151" height="6.92846348"></rect>
                <rect id="Rectangle" x="67.178447" y="94.6971329" width="6.47307151" height="6.92846348"></rect>
                <rect id="Rectangle" x="76.6684903" y="94.6971329" width="6.47307151" height="6.92846348"></rect>
                <rect id="Rectangle" x="86.1585335" y="94.6971329" width="6.47307151" height="6.92846348"></rect>
                <rect id="Rectangle" x="95.6567088" y="94.6971329" width="6.47307151" height="6.92846348"></rect>
                <rect id="Rectangle" x="67.178447" y="105.675332" width="6.47307151" height="6.92846348"></rect>
                <rect id="Rectangle" x="76.6684903" y="105.675332" width="6.47307151" height="6.92846348"></rect>
                <rect id="Rectangle" x="86.1585335" y="105.675332" width="6.47307151" height="6.92846348"></rect>
                <rect id="Rectangle" x="95.6567088" y="105.675332" width="6.47307151" height="6.92846348"></rect>
                <rect id="Rectangle" x="67.178447" y="115.718351" width="6.47307151" height="6.92846348"></rect>
                <rect id="Rectangle" x="76.6684903" y="115.718351" width="6.47307151" height="6.92846348"></rect>
                <rect id="Rectangle" x="86.1585335" y="115.718351" width="6.47307151" height="6.92846348"></rect>
                <rect id="Rectangle" x="95.6567088" y="115.718351" width="6.47307151" height="6.92846348"></rect>
                <rect id="Rectangle" x="67.178447" y="126.704683" width="6.47307151" height="6.92846348"></rect>
                <rect id="Rectangle" x="76.6684903" y="126.704683" width="6.47307151" height="6.92846348"></rect>
                <rect id="Rectangle" x="86.1585335" y="126.704683" width="6.47307151" height="6.92846348"></rect>
                <rect id="Rectangle" x="95.6567088" y="126.704683" width="6.47307151" height="6.92846348"></rect>
                <rect id="Rectangle" x="67.178447" y="137.682882" width="6.47307151" height="6.92846348"></rect>
                <rect id="Rectangle" x="76.6684903" y="137.682882" width="6.47307151" height="6.92846348"></rect>
                <rect id="Rectangle" x="86.1585335" y="137.682882" width="6.47307151" height="6.92846348"></rect>
                <rect id="Rectangle" x="95.6567088" y="137.682882" width="6.47307151" height="6.92846348"></rect>
                <rect id="Rectangle" x="67.178447" y="148.661081" width="6.47307151" height="6.92846348"></rect>
                <rect id="Rectangle" x="76.6684903" y="148.661081" width="6.47307151" height="6.92846348"></rect>
                <rect id="Rectangle" x="86.1585335" y="148.661081" width="6.47307151" height="6.92846348"></rect>
                <rect id="Rectangle" x="95.6567088" y="148.661081" width="6.47307151" height="6.92846348"></rect>
                <rect id="Rectangle" x="67.178447" y="159.647412" width="6.47307151" height="6.92846348"></rect>
                <rect id="Rectangle" x="76.6684903" y="159.647412" width="6.47307151" height="6.92846348"></rect>
                <rect id="Rectangle" x="86.1585335" y="159.647412" width="6.47307151" height="6.92846348"></rect>
                <rect id="Rectangle" x="95.6567088" y="159.647412" width="6.47307151" height="6.92846348"></rect>
                <rect id="Rectangle" x="67.178447" y="170.625611" width="6.47307151" height="6.92846348"></rect>
                <rect id="Rectangle" x="76.6684903" y="170.625611" width="6.47307151" height="6.92846348"></rect>
                <rect id="Rectangle" x="86.1585335" y="170.625611" width="6.47307151" height="6.92846348"></rect>
                <rect id="Rectangle" x="95.6567088" y="170.625611" width="6.47307151" height="6.92846348"></rect>
                <rect id="Rectangle" x="67.178447" y="181.611942" width="6.47307151" height="6.92846348"></rect>
                <rect id="Rectangle" x="76.6684903" y="181.611942" width="6.47307151" height="6.92846348"></rect>
                <rect id="Rectangle" x="86.1585335" y="181.611942" width="6.47307151" height="6.92846348"></rect>
                <rect id="Rectangle" x="95.6567088" y="181.611942" width="6.47307151" height="6.92846348"></rect>
                <rect id="Rectangle" x="67.178447" y="192.590142" width="6.47307151" height="6.92846348"></rect>
                <rect id="Rectangle" x="76.6684903" y="192.590142" width="6.47307151" height="6.92846348"></rect>
                <rect id="Rectangle" x="86.1585335" y="192.590142" width="6.47307151" height="6.92846348"></rect>
                <rect id="Rectangle" x="95.6567088" y="192.590142" width="6.47307151" height="6.92846348"></rect>
                <rect id="Rectangle" x="104.252232" y="115.718351" width="6.47307151" height="6.92846348"></rect>
                <rect id="Rectangle" x="113.742275" y="115.718351" width="6.47307151" height="6.92846348"></rect>
                <rect id="Rectangle" x="123.232319" y="115.718351" width="6.47307151" height="6.92846348"></rect>
                <rect id="Rectangle" x="132.722362" y="115.718351" width="6.47307151" height="6.92846348"></rect>
                <rect id="Rectangle" x="104.252232" y="126.704683" width="6.47307151" height="6.92846348"></rect>
                <rect id="Rectangle" x="113.742275" y="126.704683" width="6.47307151" height="6.92846348"></rect>
                <rect id="Rectangle" x="123.232319" y="126.704683" width="6.47307151" height="6.92846348"></rect>
                <rect id="Rectangle" x="132.722362" y="126.704683" width="6.47307151" height="6.92846348"></rect>
                <rect id="Rectangle" x="104.252232" y="137.682882" width="6.47307151" height="6.92846348"></rect>
                <rect id="Rectangle" x="113.742275" y="137.682882" width="6.47307151" height="6.92846348"></rect>
                <rect id="Rectangle" x="123.232319" y="137.682882" width="6.47307151" height="6.92846348"></rect>
                <rect id="Rectangle" x="132.722362" y="137.682882" width="6.47307151" height="6.92846348"></rect>
                <rect id="Rectangle" x="104.252232" y="148.661081" width="6.47307151" height="6.92846348"></rect>
                <rect id="Rectangle" x="113.742275" y="148.661081" width="6.47307151" height="6.92846348"></rect>
                <rect id="Rectangle" x="123.232319" y="148.661081" width="6.47307151" height="6.92846348"></rect>
                <rect id="Rectangle" x="132.722362" y="148.661081" width="6.47307151" height="6.92846348"></rect>
                <rect id="Rectangle" x="104.252232" y="159.647412" width="6.47307151" height="6.92846348"></rect>
                <rect id="Rectangle" x="113.742275" y="159.647412" width="6.47307151" height="6.92846348"></rect>
                <rect id="Rectangle" x="123.232319" y="159.647412" width="6.47307151" height="6.92846348"></rect>
                <rect id="Rectangle" x="132.722362" y="159.647412" width="6.47307151" height="6.92846348"></rect>
                <rect id="Rectangle" x="104.252232" y="170.625611" width="6.47307151" height="6.92846348"></rect>
                <rect id="Rectangle" x="113.742275" y="170.625611" width="6.47307151" height="6.92846348"></rect>
                <rect id="Rectangle" x="123.232319" y="170.625611" width="6.47307151" height="6.92846348"></rect>
                <rect id="Rectangle" x="132.722362" y="170.625611" width="6.47307151" height="6.92846348"></rect>
                <rect id="Rectangle" x="104.252232" y="181.611942" width="6.47307151" height="6.92846348"></rect>
                <rect id="Rectangle" x="113.742275" y="181.611942" width="6.47307151" height="6.92846348"></rect>
                <rect id="Rectangle" x="123.232319" y="181.611942" width="6.47307151" height="6.92846348"></rect>
                <rect id="Rectangle" x="132.722362" y="181.611942" width="6.47307151" height="6.92846348"></rect>
                <rect id="Rectangle" x="104.252232" y="192.590142" width="6.47307151" height="6.92846348"></rect>
                <rect id="Rectangle" x="113.742275" y="192.590142" width="6.47307151" height="6.92846348"></rect>
                <rect id="Rectangle" x="123.232319" y="192.590142" width="6.47307151" height="6.92846348"></rect>
                <rect id="Rectangle" x="132.722362" y="192.590142" width="6.47307151" height="6.92846348"></rect>
                <rect id="Rectangle" x="29.5923458" y="115.718351" width="6.47307151" height="6.92846348"></rect>
                <rect id="Rectangle" x="39.0823891" y="115.718351" width="6.47307151" height="6.92846348"></rect>
                <rect id="Rectangle" x="48.5724324" y="115.718351" width="6.47307151" height="6.92846348"></rect>
                <rect id="Rectangle" x="58.0624756" y="115.718351" width="6.47307151" height="6.92846348"></rect>
                <rect id="Rectangle" x="29.5923458" y="126.704683" width="6.47307151" height="6.92846348"></rect>
                <rect id="Rectangle" x="39.0823891" y="126.704683" width="6.47307151" height="6.92846348"></rect>
                <rect id="Rectangle" x="48.5724324" y="126.704683" width="6.47307151" height="6.92846348"></rect>
                <rect id="Rectangle" x="58.0624756" y="126.704683" width="6.47307151" height="6.92846348"></rect>
                <rect id="Rectangle" x="29.5923458" y="137.682882" width="6.47307151" height="6.92846348"></rect>
                <rect id="Rectangle" x="39.0823891" y="137.682882" width="6.47307151" height="6.92846348"></rect>
                <rect id="Rectangle" x="48.5724324" y="137.682882" width="6.47307151" height="6.92846348"></rect>
                <rect id="Rectangle" x="58.0624756" y="137.682882" width="6.47307151" height="6.92846348"></rect>
                <rect id="Rectangle" x="29.5923458" y="148.661081" width="6.47307151" height="6.92846348"></rect>
                <rect id="Rectangle" x="39.0823891" y="148.661081" width="6.47307151" height="6.92846348"></rect>
                <rect id="Rectangle" x="48.5724324" y="148.661081" width="6.47307151" height="6.92846348"></rect>
                <rect id="Rectangle" x="58.0624756" y="148.661081" width="6.47307151" height="6.92846348"></rect>
                <rect id="Rectangle" x="29.5923458" y="159.647412" width="6.47307151" height="6.92846348"></rect>
                <rect id="Rectangle" x="39.0823891" y="159.647412" width="6.47307151" height="6.92846348"></rect>
                <rect id="Rectangle" x="48.5724324" y="159.647412" width="6.47307151" height="6.92846348"></rect>
                <rect id="Rectangle" x="58.0624756" y="159.647412" width="6.47307151" height="6.92846348"></rect>
                <rect id="Rectangle" x="29.5923458" y="170.625611" width="6.47307151" height="6.92846348"></rect>
                <rect id="Rectangle" x="39.0823891" y="170.625611" width="6.47307151" height="6.92846348"></rect>
                <rect id="Rectangle" x="48.5724324" y="170.625611" width="6.47307151" height="6.92846348"></rect>
                <rect id="Rectangle" x="58.0624756" y="170.625611" width="6.47307151" height="6.92846348"></rect>
                <rect id="Rectangle" x="29.5923458" y="181.611942" width="6.47307151" height="6.92846348"></rect>
                <rect id="Rectangle" x="39.0823891" y="181.611942" width="6.47307151" height="6.92846348"></rect>
                <rect id="Rectangle" x="48.5724324" y="181.611942" width="6.47307151" height="6.92846348"></rect>
                <rect id="Rectangle" x="58.0624756" y="181.611942" width="6.47307151" height="6.92846348"></rect>
                <rect id="Rectangle" x="29.5923458" y="192.590142" width="6.47307151" height="6.92846348"></rect>
                <rect id="Rectangle" x="39.0823891" y="192.590142" width="6.47307151" height="6.92846348"></rect>
                <rect id="Rectangle" x="48.5724324" y="192.590142" width="6.47307151" height="6.92846348"></rect>
                <rect id="Rectangle" x="58.0624756" y="192.590142" width="6.47307151" height="6.92846348"></rect>
                <rect id="Rectangle" x="241.585438" y="94.1929489" width="6.47307151" height="6.92846348"></rect>
                <rect id="Rectangle" x="251.075481" y="94.1929489" width="6.47307151" height="6.92846348"></rect>
                <rect id="Rectangle" x="260.565524" y="94.1929489" width="6.47307151" height="6.92846348"></rect>
                <rect id="Rectangle" x="270.055568" y="94.1929489" width="6.47307151" height="6.92846348"></rect>
                <rect id="Rectangle" x="241.585438" y="105.17928" width="6.47307151" height="6.92846348"></rect>
                <rect id="Rectangle" x="251.075481" y="105.17928" width="6.47307151" height="6.92846348"></rect>
                <rect id="Rectangle" x="260.565524" y="105.17928" width="6.47307151" height="6.92846348"></rect>
                <rect id="Rectangle" x="270.055568" y="105.17928" width="6.47307151" height="6.92846348"></rect>
                <rect id="Rectangle" x="241.585438" y="116.157479" width="6.47307151" height="6.92846348"></rect>
                <rect id="Rectangle" x="251.075481" y="116.157479" width="6.47307151" height="6.92846348"></rect>
                <rect id="Rectangle" x="260.565524" y="116.157479" width="6.47307151" height="6.92846348"></rect>
                <rect id="Rectangle" x="270.055568" y="116.157479" width="6.47307151" height="6.92846348"></rect>
                <rect id="Rectangle" x="241.585438" y="127.135678" width="6.47307151" height="6.92846348"></rect>
                <rect id="Rectangle" x="251.075481" y="127.135678" width="6.47307151" height="6.92846348"></rect>
                <rect id="Rectangle" x="260.565524" y="127.135678" width="6.47307151" height="6.92846348"></rect>
                <rect id="Rectangle" x="270.055568" y="127.135678" width="6.47307151" height="6.92846348"></rect>
                <rect id="Rectangle" x="241.585438" y="138.12201" width="6.47307151" height="6.92846348"></rect>
                <rect id="Rectangle" x="251.075481" y="138.12201" width="6.47307151" height="6.92846348"></rect>
                <rect id="Rectangle" x="260.565524" y="138.12201" width="6.47307151" height="6.92846348"></rect>
                <rect id="Rectangle" x="270.055568" y="138.12201" width="6.47307151" height="6.92846348"></rect>
                <rect id="Rectangle" x="241.585438" y="149.100209" width="6.47307151" height="6.92846348"></rect>
                <rect id="Rectangle" x="251.075481" y="149.100209" width="6.47307151" height="6.92846348"></rect>
                <rect id="Rectangle" x="260.565524" y="149.100209" width="6.47307151" height="6.92846348"></rect>
                <rect id="Rectangle" x="270.055568" y="149.100209" width="6.47307151" height="6.92846348"></rect>
                <rect id="Rectangle" x="241.585438" y="160.08654" width="6.47307151" height="6.92846348"></rect>
                <rect id="Rectangle" x="251.075481" y="160.08654" width="6.47307151" height="6.92846348"></rect>
                <rect id="Rectangle" x="260.565524" y="160.08654" width="6.47307151" height="6.92846348"></rect>
                <rect id="Rectangle" x="270.055568" y="160.08654" width="6.47307151" height="6.92846348"></rect>
                <rect id="Rectangle" x="241.585438" y="171.064739" width="6.47307151" height="6.92846348"></rect>
                <rect id="Rectangle" x="251.075481" y="171.064739" width="6.47307151" height="6.92846348"></rect>
                <rect id="Rectangle" x="260.565524" y="171.064739" width="6.47307151" height="6.92846348"></rect>
                <rect id="Rectangle" x="270.055568" y="171.064739" width="6.47307151" height="6.92846348"></rect>
                <line x1="169.210643" y1="5.84690756" x2="169.210643" y2="206.503993" id="Path"></line>
                <line x1="175.626791" y1="5.84690756" x2="175.626791" y2="206.503993" id="Path"></line>
                <line x1="182.042938" y1="5.84690756" x2="182.042938" y2="206.503993" id="Path"></line>
                <line x1="188.459086" y1="5.84690756" x2="188.459086" y2="206.503993" id="Path"></line>
                <line x1="194.883365" y1="5.84690756" x2="194.883365" y2="206.503993" id="Path"></line>
                <line x1="201.299513" y1="5.84690756" x2="201.299513" y2="206.503993" id="Path"></line>
                <line x1="207.71566" y1="5.84690756" x2="207.71566" y2="206.503993" id="Path"></line>
                <line x1="214.131808" y1="5.84690756" x2="214.131808" y2="206.503993" id="Path"></line>
                <rect id="Rectangle" x="33.9348335" y="203.007233" width="115.067791" height="6.48933551"></rect>
                <rect id="Rectangle" x="219.620908" y="203.007233" width="103.325184" height="6.48933551"></rect>
            </g>
            <g id="freepik--Trees--inject-121" transform="translate(8.131999, 155.321188)" fill-rule="nonzero">
                <path d="M201.836225,47.4339524 C201.836225,47.4339524 213.115308,48.5480364 218.832104,55.5659518 C218.832104,55.5659518 224.874179,47.4339524 235.722266,47.6291204 C243.128385,38.7263589 242.346722,25.6020984 233.936237,17.6413515 C225.525752,9.68060462 212.378371,9.62065736 203.895641,17.5043774 C195.41291,25.3880974 194.511599,38.504684 201.836225,47.4746124 L201.836225,47.4339524 Z" id="Path" fill="#FFFFFF"></path>
                <path d="M201.836225,47.4339524 C201.836225,47.4339524 213.115308,48.5480364 218.832104,55.5659518 C218.832104,55.5659518 224.874179,47.4339524 235.722266,47.6291204 C243.128385,38.7263589 242.346722,25.6020984 233.936237,17.6413515 C225.525752,9.68060462 212.378371,9.62065736 203.895641,17.5043774 C195.41291,25.3880974 194.511599,38.504684 201.836225,47.4746124 L201.836225,47.4339524 Z" id="Path" fill="#FFFFFF" opacity="0.5"></path>
                <polygon id="Path" fill="#263238" points="218.458032 13.238895 218.08396 69.7806868 219.986848 69.7806868"></polygon>
                <path d="M219.035404,53.410972 C219.035404,53.410972 222.841179,46.5556965 229.696455,44.4657727 C229.696455,44.4657727 222.458975,46.1734925 218.840236,52.0773241 L219.035404,53.410972 Z" id="Path" fill="#263238"></path>
                <path d="M219.035404,33.9917575 C219.035404,33.9917575 222.841179,27.136482 229.696455,25.0465581 C229.696455,25.0465581 222.458975,26.754278 218.840236,32.6581096 L219.035404,33.9917575 Z" id="Path" fill="#263238"></path>
                <path d="M219.035404,43.7013647 C219.035404,43.7013647 222.841179,36.8460892 229.696455,34.7561654 C229.696455,34.7561654 222.458975,36.4638853 218.840236,42.3677168 L219.035404,43.7013647 Z" id="Path" fill="#263238"></path>
                <path d="M218.466164,38.9441451 C218.466164,38.9441451 214.7905,32.0888696 208.179184,29.9989458 C208.179184,29.9989458 215.164572,31.7147976 218.6532,37.6186292 L218.466164,38.9441451 Z" id="Path" fill="#263238"></path>
                <path d="M218.466164,48.4585844 C218.466164,48.4585844 214.7905,41.6033089 208.179184,39.513385 C208.179184,39.513385 215.164572,41.2292369 218.6532,47.1249365 L218.466164,48.4585844 Z" id="Path" fill="#263238"></path>
                <path d="M254.962577,43.1483888 C254.962577,43.1483888 268.404772,44.4739047 275.219387,52.809204 C275.219387,52.809204 282.416207,43.1565208 295.346086,43.3516888 C304.131495,32.7497948 303.181756,17.1494942 293.175119,7.6916517 C283.168481,-1.76619084 267.539451,-1.8354294 257.44941,7.53338235 C247.359368,16.9021941 246.271446,32.4934675 254.962577,43.1727848 L254.962577,43.1483888 Z" id="Path" opacity="0.5"></path>
                <polygon id="Path" fill="#263238" points="274.772127 2.39893982 274.316735 69.7806868 276.593695 69.7806868"></polygon>
                <path d="M275.455215,50.2720202 C275.455215,50.2720202 279.992871,42.0993608 288.157398,39.602837 C288.157398,39.602837 279.537479,41.6521009 275.227519,48.6781484 L275.455215,50.2720202 Z" id="Path" fill="#263238"></path>
                <path d="M275.455215,27.12835 C275.455215,27.12835 279.992871,18.9556906 288.157398,16.4672988 C288.157398,16.4672988 279.537479,18.5084306 275.227519,25.5426101 L275.455215,27.12835 Z" id="Path" fill="#263238"></path>
                <path d="M275.455215,38.7001851 C275.455215,38.7001851 279.992871,30.5681857 288.157398,28.0310019 C288.157398,28.0310019 279.537479,30.0802657 275.227519,37.1144452 L275.455215,38.7001851 Z" id="Path" fill="#263238"></path>
                <path d="M274.780259,33.0240495 C274.780259,33.0240495 270.405244,24.8920501 262.525336,22.3629983 C262.525336,22.3629983 270.844372,24.4041302 274.999823,31.4383096 L274.780259,33.0240495 Z" id="Path" fill="#263238"></path>
                <path d="M274.780259,44.3681887 C274.780259,44.3681887 270.405244,36.2361893 262.525336,33.7071375 C262.525336,33.7071375 270.844372,35.7482693 274.999823,42.7824488 L274.780259,44.3681887 Z" id="Path" fill="#263238"></path>
                <path d="M309.072901,50.9307122 C309.072901,50.9307122 318.58734,51.8740241 323.409616,57.7697237 C326.919,53.5206376 332.145947,51.0652852 337.656879,51.0770882 C343.879225,43.5712533 343.208635,32.5246574 336.124036,25.8266279 C329.039436,19.1285984 317.972619,19.0782375 310.827354,25.7115122 C303.682089,32.3447869 302.910991,43.3848222 309.064769,50.9469762 L309.072901,50.9307122 Z" id="Path"></path>
                <polygon id="Path" fill="#263238" points="323.092468 22.0865103 322.77532 69.7806868 324.377324 69.7806868"></polygon>
                <path d="M323.580388,55.9725518 C323.580388,55.9725518 326.784396,50.1907002 332.525587,48.4260564 C332.525587,48.4260564 326.426588,49.8654203 323.377088,54.8503359 L323.580388,55.9725518 Z" id="Path" fill="#263238"></path>
                <path d="M323.580388,39.586573 C323.580388,39.586573 326.784396,33.8047215 332.525587,32.0400776 C332.525587,32.0400776 326.426588,33.4875735 323.377088,38.4643571 L323.580388,39.586573 Z" id="Path" fill="#263238"></path>
                <path d="M323.580388,47.7836284 C323.580388,47.7836284 326.784396,42.0017769 332.525587,40.229001 C332.525587,40.229001 326.426588,41.6764969 323.377088,46.6532805 L323.580388,47.7836284 Z" id="Path" fill="#263238"></path>
                <path d="M323.1006,43.7664207 C323.1006,43.7664207 320.002308,37.9845692 314.423756,36.2199253 C314.423756,36.2199253 320.311324,37.6592892 323.255108,42.6442048 L323.1006,43.7664207 Z" id="Path" fill="#263238"></path>
                <path d="M323.1006,51.7927041 C323.1006,51.7927041 320.002308,46.0108526 314.423756,44.2462087 C314.423756,44.2462087 320.311324,45.6937046 323.255108,50.6704882 L323.1006,51.7927041 Z" id="Path" fill="#263238"></path>
                <path d="M5.42404359,47.4339524 C5.42404359,47.4339524 16.7031267,48.5480364 22.4199223,55.5659518 C22.4199223,55.5659518 28.4619979,47.4339524 39.3100851,47.6291204 C46.7162036,38.7263589 45.9345411,25.6020984 37.5240558,17.6413515 C29.1135704,9.68060462 15.9661899,9.62065736 7.48345952,17.5043774 C-0.999270851,25.3880974 -1.90058202,38.504684 5.42404359,47.4746124 L5.42404359,47.4339524 Z" id="Path" opacity="0.5"></path>
                <polygon id="Path" fill="#263238" points="22.0458503 13.238895 21.6636464 69.7806868 23.5665342 69.7806868"></polygon>
                <path d="M22.6150903,53.410972 C22.6150903,53.410972 26.428998,46.5556965 33.2761415,44.4657727 C33.2761415,44.4657727 26.046794,46.1734925 22.4280543,52.0773241 L22.6150903,53.410972 Z" id="Path" fill="#263238"></path>
                <path d="M22.6150903,33.9917575 C22.6150903,33.9917575 26.428998,27.136482 33.2761415,25.0465581 C33.2761415,25.0465581 26.046794,26.754278 22.4280543,32.6581096 L22.6150903,33.9917575 Z" id="Path" fill="#263238"></path>
                <path d="M22.6150903,43.7013647 C22.6150903,43.7013647 26.428998,36.8460892 33.2761415,34.7561654 C33.2761415,34.7561654 26.046794,36.4638853 22.4280543,42.3677168 L22.6150903,43.7013647 Z" id="Path" fill="#263238"></path>
                <path d="M22.0539823,38.9441451 C22.0539823,38.9441451 18.3783186,32.0888696 11.7670031,29.9989458 C11.7670031,29.9989458 18.7442586,31.7147976 22.2410183,37.6186292 L22.0539823,38.9441451 Z" id="Path" fill="#263238"></path>
                <path d="M22.0539823,48.4585844 C22.0539823,48.4585844 18.3783186,41.6033089 11.7670031,39.513385 C11.7670031,39.513385 18.7442586,41.2292369 22.2410183,47.1249365 L22.0539823,48.4585844 Z" id="Path" fill="#263238"></path>
                <path d="M58.5503956,43.1483888 C58.5503956,43.1483888 71.9925906,44.4739047 78.8072061,52.809204 C78.8072061,52.809204 86.0040256,43.1565208 98.9339046,43.3516888 C107.715654,32.7489006 106.763488,17.1510057 96.7572654,7.69512088 C86.7510432,-1.76076394 71.1242663,-1.82997858 61.0346737,7.5368972 C50.9450811,16.903773 49.8547813,32.4926213 58.5422636,43.1727848 L58.5503956,43.1483888 Z" id="Path" fill="#FFFFFF"></path>
                <path d="M58.5503956,43.1483888 C58.5503956,43.1483888 71.9925906,44.4739047 78.8072061,52.809204 C78.8072061,52.809204 86.0040256,43.1565208 98.9339046,43.3516888 C107.715654,32.7489006 106.763488,17.1510057 96.7572654,7.69512088 C86.7510432,-1.76076394 71.1242663,-1.82997858 61.0346737,7.5368972 C50.9450811,16.903773 49.8547813,32.4926213 58.5422636,43.1727848 L58.5503956,43.1483888 Z" id="Path" fill="#FFFFFF" opacity="0.5"></path>
                <polygon id="Path" fill="#263238" points="78.3599461 2.39893982 77.9045542 69.7806868 80.173382 69.7806868"></polygon>
                <path d="M79.0430341,50.2720202 C79.0430341,50.2720202 83.5806897,42.0993608 91.7452171,39.602837 C91.7452171,39.602837 83.1252978,41.6521009 78.8153381,48.6781484 L79.0430341,50.2720202 Z" id="Path" fill="#263238"></path>
                <path d="M79.0430341,27.12835 C79.0430341,27.12835 83.5806897,18.9556906 91.7452171,16.4672988 C91.7452171,16.4672988 83.1252978,18.5084306 78.8153381,25.5426101 L79.0430341,27.12835 Z" id="Path" fill="#263238"></path>
                <path d="M79.0430341,38.7001851 C79.0430341,38.7001851 83.5806897,30.5681857 91.7452171,28.0310019 C91.7452171,28.0310019 83.1252978,30.0802657 78.8153381,37.1144452 L79.0430341,38.7001851 Z" id="Path" fill="#263238"></path>
                <path d="M78.3680781,33.0240495 C78.3680781,33.0240495 73.9930625,24.8920501 66.105023,22.3629983 C66.105023,22.3629983 74.4240584,24.4041302 78.5876421,31.4383096 L78.3680781,33.0240495 Z" id="Path" fill="#263238"></path>
                <path d="M78.3680781,44.3681887 C78.3680781,44.3681887 73.9930625,36.2361893 66.105023,33.7071375 C66.105023,33.7071375 74.4240584,35.7482693 78.5876421,42.7824488 L78.3680781,44.3681887 Z" id="Path" fill="#263238"></path>
                <path d="M112.66072,50.9307122 C112.66072,50.9307122 122.175159,51.8740241 126.997434,57.7697237 C130.505373,53.5187754 135.733255,51.062984 141.244697,51.0770882 C147.467044,43.5712533 146.796454,32.5246574 139.711855,25.8266279 C132.627255,19.1285984 121.560438,19.0782375 114.415173,25.7115122 C107.269908,32.3447869 106.49881,43.3848222 112.652588,50.9469762 L112.66072,50.9307122 Z" id="Path"></path>
                <path d="M112.66072,50.9307122 C112.66072,50.9307122 122.175159,51.8740241 126.997434,57.7697237 C130.505373,53.5187754 135.733255,51.062984 141.244697,51.0770882 C147.467044,43.5712533 146.796454,32.5246574 139.711855,25.8266279 C132.627255,19.1285984 121.560438,19.0782375 114.415173,25.7115122 C107.269908,32.3447869 106.49881,43.3848222 112.652588,50.9469762 L112.66072,50.9307122 Z" id="Path" opacity="0"></path>
                <polygon id="Path" fill="#263238" points="126.680287 22.0865103 126.355007 69.7806868 127.965142 69.7806868"></polygon>
                <path d="M127.160074,55.9725518 C127.160074,55.9725518 130.372214,50.1907002 136.154066,48.4260564 C136.154066,48.4260564 130.055066,49.8654203 127.005566,54.8503359 L127.160074,55.9725518 Z" id="Path" fill="#263238"></path>
                <path d="M127.160074,39.586573 C127.160074,39.586573 130.372214,33.8047215 136.154066,32.0400776 C136.154066,32.0400776 130.055066,33.4875735 127.005566,38.4643571 L127.160074,39.586573 Z" id="Path" fill="#263238"></path>
                <path d="M127.160074,47.7836284 C127.160074,47.7836284 130.372214,42.0017769 136.154066,40.229001 C136.154066,40.229001 130.055066,41.6764969 127.005566,46.6532805 L127.160074,47.7836284 Z" id="Path" fill="#263238"></path>
                <path d="M126.688419,43.7664207 C126.688419,43.7664207 123.590127,37.9845692 118.011575,36.2199253 C118.011575,36.2199253 123.899143,37.6592892 126.842926,42.6442048 L126.688419,43.7664207 Z" id="Path" fill="#263238"></path>
                <path d="M126.688419,51.7927041 C126.688419,51.7927041 123.590127,46.0108526 118.011575,44.2462087 C118.011575,44.2462087 123.899143,45.6937046 126.842926,50.6704882 L126.688419,51.7927041 Z" id="Path" fill="#263238"></path>
            </g>
            <g id="freepik--Car--inject-121" transform="translate(21.143198, 138.243990)">
                <circle id="Oval" stroke="#263238" stroke-width="0.813199939" fill="#263238" fill-rule="nonzero" transform="translate(221.613341, 65.080092) rotate(-13.130000) translate(-221.613341, -65.080092) " cx="221.613341" cy="65.0800922" r="21.7612304"></circle>
                <circle id="Oval" stroke="#263238" stroke-width="0.813199939" fill="#263238" fill-rule="nonzero" transform="translate(69.205078, 65.082771) rotate(-45.000000) translate(-69.205078, -65.082771) " cx="69.2050784" cy="65.082771" r="21.7612304"></circle>
                <path d="M206.934988,23.8430222 C206.934988,23.8430222 201.161269,20.2324145 174.797327,11.5637031 C148.433385,2.89499178 131.45377,-1.11022302e-16 105.455768,0.731879945 C79.457766,1.46375989 44.4169807,11.2058952 37.9195132,13.743079 C31.4220456,16.2802628 28.5270539,16.9958787 29.9745498,18.7930506 C31.4220456,20.5902225 39.3588771,27.103954 38.2773211,29.9908138 C37.1957652,32.8776735 19.5167985,48.7919963 18.4108466,51.2885202 C17.3048947,53.785044 22.0295863,62.4862833 22.7452023,64.6575272 C23.4608182,66.828771 27.4454979,67.5443869 30.6901657,67.9103269 C33.9348335,68.2762669 265.086916,67.9103269 265.086916,67.9103269 C265.086916,67.9103269 268.339716,63.9419112 267.615968,58.8838076 C266.89222,53.825704 266.11968,47.1574645 262.858748,42.8881648 C260.22398,39.423933 257.499761,35.7726653 250.660749,35.0489174 C246.326394,34.5853934 208.024676,24.2089622 206.934988,23.8430222 Z" id="Path" fill="#FFFFFF" fill-rule="nonzero"></path>
                <g id="Group" transform="translate(17.890399, 0.000000)" fill-rule="nonzero">
                    <path d="M189.04459,23.8430222 C189.04459,23.8430222 183.27087,20.2324145 156.906928,11.5637031 C130.542986,2.89499178 113.563371,-1.11022302e-16 87.5653694,0.731879945 C61.5673674,1.46375989 26.526582,11.2058952 20.0291145,13.743079 C13.531647,16.2802628 10.6366552,16.9958787 12.0841511,18.7930506 C13.531647,20.5902225 21.4684784,27.103954 20.3869225,29.9908138 C19.3053666,32.8776735 1.62639988,48.7919963 0.520447961,51.2885202 C-0.585503956,53.785044 4.13918769,62.4862833 4.85480364,64.6575272 C5.57041958,66.828771 9.55509928,67.5443869 12.799767,67.9103269 C16.0444348,68.2762669 247.196517,67.9103269 247.196517,67.9103269 C247.196517,67.9103269 250.449317,63.9419112 249.725569,58.8838076 C249.001821,53.825704 248.229281,47.1574645 244.96835,42.8881648 C242.333582,39.423933 239.609362,35.7726653 232.770351,35.0489174 C228.435995,34.5853934 190.134278,24.2089622 189.04459,23.8430222 Z" id="Path" fill="#FFFFFF"></path>
                    <path d="M189.04459,23.8430222 C189.04459,23.8430222 183.27087,20.2324145 156.906928,11.5637031 C130.542986,2.89499178 113.563371,-1.11022302e-16 87.5653694,0.731879945 C61.5673674,1.46375989 26.526582,11.2058952 20.0291145,13.743079 C13.531647,16.2802628 10.6366552,16.9958787 12.0841511,18.7930506 C13.531647,20.5902225 21.4684784,27.103954 20.3869225,29.9908138 C19.3053666,32.8776735 1.62639988,48.7919963 0.520447961,51.2885202 C-0.585503956,53.785044 4.13918769,62.4862833 4.85480364,64.6575272 C5.57041958,66.828771 9.55509928,67.5443869 12.799767,67.9103269 C16.0444348,68.2762669 247.196517,67.9103269 247.196517,67.9103269 C247.196517,67.9103269 250.449317,63.9419112 249.725569,58.8838076 C249.001821,53.825704 248.229281,47.1574645 244.96835,42.8881648 C242.333582,39.423933 239.609362,35.7726653 232.770351,35.0489174 C228.435995,34.5853934 190.134278,24.2089622 189.04459,23.8430222 Z" id="Path" fill="#D06C29"></path>
                </g>
                <path d="M206.934988,23.8430222 C206.934988,23.8430222 201.161269,20.2324145 174.797327,11.5637031 C148.433385,2.89499178 131.45377,-1.11022302e-16 105.455768,0.731879945 C79.457766,1.46375989 44.4169807,11.2058952 37.9195132,13.743079 C31.4220456,16.2802628 28.5270539,16.9958787 29.9745498,18.7930506 C31.4220456,20.5902225 39.3588771,27.103954 38.2773211,29.9908138 C37.1957652,32.8776735 19.5167985,48.7919963 18.4108466,51.2885202 C17.3048947,53.785044 22.0295863,62.4862833 22.7452023,64.6575272 C23.4608182,66.828771 27.4454979,67.5443869 30.6901657,67.9103269 C33.9348335,68.2762669 265.086916,67.9103269 265.086916,67.9103269 C265.086916,67.9103269 268.339716,63.9419112 267.615968,58.8838076 C266.89222,53.825704 266.11968,47.1574645 262.858748,42.8881648 C260.22398,39.423933 257.499761,35.7726653 250.660749,35.0489174 C246.326394,34.5853934 208.024676,24.2089622 206.934988,23.8430222 Z" id="Path" stroke="#263238" stroke-width="0.813199939"></path>
                <rect id="Rectangle" stroke="#263238" stroke-width="0.813199939" fill="#263238" fill-rule="nonzero" x="251.360101" y="49.1254083" width="13.726815" height="3.61060773"></rect>
                <path d="M244.773182,42.8800182 L246.960689,42.8800182 C249.823636,42.874203 252.40101,44.613931 253.466289,47.2713125 L255.670061,52.736016 L248.513901,52.736016 L244.773182,42.8800182 Z" id="Path" stroke="#263238" stroke-width="0.813199939" fill="#F58031" fill-rule="nonzero"></path>
                <path d="M264.916144,46.5719605 C264.834824,46.7996565 264.761636,47.0273525 264.69658,47.2713125 L263.224688,52.736016 L266.656392,52.736016 C266.277003,50.6298903 265.694191,48.5655365 264.916144,46.5719605 L264.916144,46.5719605 Z" id="Path" stroke="#263238" stroke-width="0.813199939" fill="#F58031" fill-rule="nonzero"></path>
                <path d="M206.934988,23.8430222 C206.934988,23.8430222 201.161269,20.2324145 174.797327,11.5637031 C168.771515,9.58762728 163.249888,7.91243541 157.988484,6.50559951 L139.398734,6.50559951 L135.430318,7.59528743 L188.88195,23.8592862 L206.934988,23.8430222 Z" id="Path" stroke="#263238" stroke-width="0.813199939" fill="#263238" fill-rule="nonzero"></path>
                <path d="M12.2793191,18.0530386 L12.2793191,42.4490368 C12.2793191,42.4490368 27.12835,30.2510377 25.2905181,26.778674 C23.4526862,23.3063103 12.2793191,18.0530386 12.2793191,18.0530386 Z" id="Path" stroke="#263238" stroke-width="0.813199939" fill="#8F8F8F" fill-rule="nonzero"></path>
                <path d="M188.88195,23.8430222 C188.88195,23.8430222 183.100098,20.2324145 156.736156,11.5637031 C130.372214,2.89499178 113.400732,-1.11022302e-16 87.3945975,0.731879945 C61.3884634,1.46375989 26.35581,11.2058952 19.8990025,13.743079 C13.442195,16.2802628 10.5065432,16.9958787 11.9540391,18.7930506 C13.401535,20.5902225 21.3464984,27.103954 20.2568105,29.9908138 C19.1671226,32.8776735 1.43936389,48.7919963 0.357807973,51.2885202 C-0.723747946,53.785044 3.9684157,62.4862833 4.69216365,64.6575272 C5.41591159,66.828771 9.3843273,67.5443869 12.6371271,67.9103269 C15.8899268,68.2762669 247.025745,67.9103269 247.025745,67.9103269 C247.025745,67.9103269 250.278545,63.9419112 249.554797,58.8838076 C248.831049,53.825704 248.025981,47.1655965 244.773182,42.8800328 C242.138414,39.415801 239.406062,35.7645333 232.575183,35.0407854 C228.273355,34.5853934 189.963506,24.2089622 188.88195,23.8430222 Z" id="Path" fill="#F58031" fill-rule="nonzero"></path>
                <path d="M244.773182,42.8800328 C242.138414,39.415801 239.406062,35.7645333 232.575183,35.0407854 C231.436703,34.9188054 227.915547,34.1056054 223.337231,32.9671255 C201.510945,32.7475615 189.353606,41.5707809 156.744288,44.5633567 C114.278987,48.4504524 84.8980736,37.8381932 49.5076123,33.5851575 C34.7480334,31.8205136 22.8346543,33.9917575 13.946379,37.1144452 C8.37595937,42.7417888 1.03276392,49.6946483 0.349675974,51.2885202 C-0.731879945,53.817572 3.9602837,62.4862833 4.68403165,64.6575272 C5.40777959,66.828771 9.3761953,67.5443869 12.6289951,67.9103269 C15.8817948,68.2762669 247.017613,67.9103269 247.017613,67.9103269 C247.017613,67.9103269 250.270413,63.9419112 249.546665,58.8838076 C248.822917,53.825704 248.025981,47.1655965 244.773182,42.8800328 Z" id="Path" fill="#D06C29" fill-rule="nonzero" opacity="0.995842634"></path>
                <path d="M188.88195,23.8430222 C188.88195,23.8430222 183.100098,20.2324145 156.736156,11.5637031 C130.372214,2.89499178 113.400732,-1.11022302e-16 87.3945975,0.731879945 C61.3884634,1.46375989 26.35581,11.2058952 19.8990025,13.743079 C13.442195,16.2802628 10.5065432,16.9958787 11.9540391,18.7930506 C13.401535,20.5902225 21.3464984,27.103954 20.2568105,29.9908138 C19.1671226,32.8776735 1.43936389,48.7919963 0.357807973,51.2885202 C-0.723747946,53.785044 3.9684157,62.4862833 4.69216365,64.6575272 C5.41591159,66.828771 9.3843273,67.5443869 12.6371271,67.9103269 C15.8899268,68.2762669 247.025745,67.9103269 247.025745,67.9103269 C247.025745,67.9103269 250.278545,63.9419112 249.554797,58.8838076 C248.831049,53.825704 248.025981,47.1655965 244.773182,42.8800328 C242.138414,39.415801 239.406062,35.7645333 232.575183,35.0407854 C228.273355,34.5853934 189.963506,24.2089622 188.88195,23.8430222 Z" id="Path" stroke="#263238" stroke-width="0.813199939"></path>
                <path d="M52.2968881,10.5228072 L66.747451,25.7865701 L172.967627,25.7865701 L172.967627,22.3223383 C172.967627,22.3223383 151.198265,13.775607 128.24163,9.3111393 C105.284996,4.84667164 99.5519365,5.24513961 89.2080333,5.44030759 C78.8641301,5.63547558 52.2968881,10.5228072 52.2968881,10.5228072 Z" id="Path" fill="#89471B" fill-rule="nonzero"></path>
                <path d="M104.089592,19.1101986 C90.5687022,16.0228959 76.4240403,17.1902565 63.5922352,22.4524503 L66.747451,25.7865701 L172.967627,25.7865701 L172.967627,22.3223383 C172.967627,22.3223383 169.446471,20.9398984 163.737808,18.9963506 C151.791901,23.5827982 128.095254,24.3959982 104.089592,19.1101986 Z" id="Path" stroke="#263238" stroke-width="0.813199939" fill="#263238" fill-rule="nonzero"></path>
                <path d="M52.2968881,10.5228072 L66.747451,25.7865701 L172.967627,25.7865701 L172.967627,22.3223383 C172.967627,22.3223383 151.198265,13.775607 128.24163,9.3111393 C105.284996,4.84667164 99.5519365,5.24513961 89.2080333,5.44030759 C78.8641301,5.63547558 52.2968881,10.5228072 52.2968881,10.5228072 Z" id="Path" stroke="#263238" stroke-width="3.25279976"></path>
                <line x1="100.324476" y1="27.8195699" x2="100.324476" y2="60.9899954" id="Path" stroke="#263238" stroke-width="0.813199939"></line>
                <circle id="Oval" stroke="#263238" stroke-width="0.813199939" fill="#263238" fill-rule="nonzero" transform="translate(44.621378, 65.097428) rotate(-13.070000) translate(-44.621378, -65.097428) " cx="44.6213779" cy="65.0974278" r="21.7612304"></circle>
                <path d="M44.6446767,49.3775003 C38.2912318,49.3775003 32.5638506,53.2060395 30.1347778,59.0768033 C27.7057051,64.9475671 29.0536552,71.7035703 33.5497104,76.1926403 C38.0457655,80.6817104 44.8038563,82.0191547 50.6708363,79.5809569 C56.5378162,77.1427592 60.3574382,71.4094323 60.3475866,65.0559951 C60.3296367,56.3949159 53.3057733,49.3819647 44.6446767,49.3775003 L44.6446767,49.3775003 Z M55.2162759,61.9333074 L46.0677765,63.6491592 L48.6618844,54.8259399 C51.8144394,56.0691593 54.223681,58.6881608 55.2000119,61.9333074 L55.2162759,61.9333074 Z M45.4578766,64.2915872 L45.4578766,65.8691951 L43.8884007,65.8691951 L43.8884007,64.2915872 L45.4578766,64.2915872 Z M41.5301209,54.5331879 L43.2459728,63.6816872 L34.4146214,61.0794474 C35.6414698,57.9319852 38.2423807,55.5198501 41.4731969,54.5331879 L41.5301209,54.5331879 Z M34.1218694,68.2274749 L43.2703688,66.511623 L40.659997,75.3348424 C37.491752,74.10707 35.0691967,71.4833856 34.0974734,68.2274749 L34.1218694,68.2274749 Z M47.8161564,75.6275943 L46.1003045,66.487227 L54.9072599,69.1219948 C53.6582756,72.2667548 51.0355613,74.664665 47.7917604,75.6275943 L47.8161564,75.6275943 Z" id="Shape" stroke="#263238" stroke-width="0.813199939" fill="#F58031" fill-rule="nonzero"></path>
                <path d="M49.5157443,65.0559951 C49.5157443,62.3612876 47.3312522,60.1767955 44.6365447,60.1767955 C41.9418371,60.1767955 39.757345,62.3612876 39.757345,65.0559951 C39.757345,67.7507027 41.9418371,69.9351948 44.6365447,69.9351948 C47.3312522,69.9351948 49.5157443,67.7507027 49.5157443,65.0559951 L49.5157443,65.0559951 Z" id="Path" stroke="#263238" stroke-width="0.813199939" fill="#F58031" fill-rule="nonzero"></path>
                <circle id="Oval" stroke="#263238" stroke-width="0.813199939" fill="#263238" fill-rule="nonzero" transform="translate(197.780652, 65.082240) rotate(-45.000000) translate(-197.780652, -65.082240) " cx="197.780652" cy="65.0822399" r="21.7612304"></circle>
                <path d="M197.778357,49.3775003 C191.424912,49.3775003 185.697531,53.2060395 183.268458,59.0768033 C180.839386,64.9475671 182.187336,71.7035703 186.683391,76.1926403 C191.179446,80.6817104 197.937537,82.0191547 203.804517,79.5809569 C209.671497,77.1427592 213.491119,71.4094323 213.481267,65.0559951 C213.463317,56.3949159 206.439454,49.3819647 197.778357,49.3775003 L197.778357,49.3775003 Z M208.349956,61.9333074 L199.209589,63.6491592 L201.803697,54.8259399 C204.952135,56.0701683 207.355928,58.689763 208.32556,61.9333074 L208.349956,61.9333074 Z M198.591557,64.2915872 L198.591557,65.8691951 L197.013949,65.8691951 L197.013949,64.2915872 L198.591557,64.2915872 Z M194.655669,54.5331879 L196.371521,63.6816872 L187.548302,61.0794474 C188.778209,57.9250823 191.38996,55.5112362 194.631273,54.5331879 L194.655669,54.5331879 Z M187.25555,68.2274749 L196.404049,66.511623 L193.801809,75.3348424 C190.631162,74.1080876 188.205693,71.484499 187.231154,68.2274749 L187.25555,68.2274749 Z M200.949837,75.6275943 L199.233985,66.487227 L208.032808,69.1219948 C206.787575,72.2663236 204.167382,74.664669 200.925441,75.6275943 L200.949837,75.6275943 Z" id="Shape" stroke="#263238" stroke-width="0.813199939" fill="#F58031" fill-rule="nonzero"></path>
                <path d="M202.649425,65.0559951 C202.649425,62.3612876 200.464933,60.1767955 197.770225,60.1767955 C195.075518,60.1767955 192.891026,62.3612876 192.891026,65.0559951 C192.891026,67.7507027 195.075518,69.9351948 197.770225,69.9351948 C200.464933,69.9351948 202.649425,67.7507027 202.649425,65.0559951 Z" id="Path" stroke="#263238" stroke-width="0.813199939" fill="#F58031" fill-rule="nonzero"></path>
                <path d="M244.773182,42.8800328 C244.773182,42.8800328 228.574239,42.0668328 227.850491,42.8800328 C227.126743,43.6932327 233.266403,50.1988322 235.437646,51.6544601 C237.153498,52.801072 245.236706,52.5815081 248.505769,52.4676601 C247.847077,48.9709003 246.781786,45.4822726 244.773182,42.8800328 Z" id="Path" stroke="#263238" stroke-width="0.813199939" fill="#F58031" fill-rule="nonzero"></path>
                <path d="M102.98364,5.54602358 C101.918348,5.47283559 100.918112,5.42404359 99.9422725,5.3915156 L97.2180527,25.7215141 L104.439268,25.7215141 L102.98364,5.54602358 Z" id="Path" stroke="#263238" stroke-width="0.813199939" fill="#263238" fill-rule="nonzero"></path>
            </g>
            <g id="freepik--Character--inject-121" transform="translate(143.936389, 113.034792)">
                <path d="M7.07483947,105.634672 C5.78247562,106.465988 4.42232559,107.186868 3.00883977,107.789652 C1.2685919,108.456476 0.113847991,108.863076 0.447259966,109.944632 C0.780671941,111.026188 2.6754278,111.92884 5.08249962,112.424892 C7.48957144,112.920944 11.7832671,111.84752 12.946143,111.514108 C14.1090189,111.180696 14.2716589,109.277808 13.442195,108.204384 C12.6127311,107.13096 8.48167536,105.0573 7.07483947,105.634672 Z" id="Path" stroke="#263238" stroke-width="0.813199939" fill="#263238" fill-rule="nonzero" stroke-linecap="round" stroke-linejoin="round"></path>
                <path d="M7.82298341,111.84752 C5.83064356,111.84752 2.52091981,111.099376 2.52091981,110.359364 C2.52091981,109.619352 3.33411975,109.033848 2.35827982,108.781756 C1.3824399,108.529664 0.731879945,109.887708 0.569239957,110.204856 C1.10595192,111.164432 2.88685978,111.9695 5.09063162,112.424892 C7.53023144,112.920944 11.7913991,111.84752 12.954275,111.514108 C13.378031,111.369918 13.7035206,111.026177 13.824399,110.595192 C11.8997223,111.31702 9.8757182,111.739373 7.82298341,111.84752 L7.82298341,111.84752 Z" id="Path" stroke="#263238" stroke-width="0.813199939" fill="#FFFFFF" fill-rule="nonzero" stroke-linecap="round" stroke-linejoin="round"></path>
                <path d="M17.2561027,52.4839241 L17.7521547,54.1103239 C17.1265514,54.6137249 16.7619252,55.3728646 16.7600507,56.1758518 C16.9436818,57.0890836 17.4414584,57.9091202 18.1668866,58.4934716" id="Path" stroke="#263238" stroke-width="0.813199939" stroke-linecap="round" stroke-linejoin="round"></path>
                <path d="M12.1979991,49.2555203 C11.6950333,50.6064427 11.282108,51.9891991 10.9619352,53.394708 L10.9619352,55.6310078 C10.9619352,56.0457398 9.3355353,64.8201671 8.96959533,70.2035507 C8.60365536,75.5869343 8.39222337,81.8729699 7.9774914,83.2879378 C7.56275943,84.7029057 8.0588114,85.4347856 8.14013139,87.4271254 C8.22145138,89.4194653 8.31090338,99.4299565 8.31090338,99.4299565 C8.31090338,99.4299565 7.89617141,102.080988 7.81485141,102.73968 C7.73353142,103.398372 6.90406748,103.650464 6.6519755,104.065196 C6.38065159,104.736115 6.16045962,105.426593 5.99328355,106.130724 C7.28108938,106.480521 8.45189581,107.168405 9.3843273,108.123064 C10.5472032,109.5299 13.686155,111.270148 14.1008869,111.180696 C14.5156189,111.091244 14.7677109,109.944632 15.4264028,108.367024 C16.0850948,106.789416 16.0119068,105.968084 16.3371868,105.309392 C16.6624668,104.6507 17.1503867,103.569144 17.9147947,98.6004926 C18.6792026,93.631841 19.3216306,86.2642495 19.7363625,85.2721456 C20.1510945,84.2800417 22.2979423,80.555586 22.2979423,80.555586 C24.1687374,76.9497831 25.774973,73.2127713 27.103954,69.3740868 C28.3177179,65.8134596 29.2316847,62.1575926 29.8363058,58.4446796 C30.2228802,55.8930511 30.4699182,53.3222275 30.5763177,50.7436762 L30.5763177,49.9304763 C30.5763177,49.9304763 27.5186859,51.0852202 22.0539823,50.5078482 C16.5892788,49.9304763 12.1979991,49.2555203 12.1979991,49.2555203 Z" id="Path" stroke="#263238" stroke-width="0.813199939" fill="#F58031" fill-rule="nonzero" stroke-linecap="round" stroke-linejoin="round"></path>
                <path d="M23.6315902,54.0615319 C23.6315902,54.0615319 19.9071345,56.0457398 19.3297626,57.0378437 C18.7523906,58.0299477 18.0042467,62.2585873 16.3453188,67.4711989 C14.6863909,72.6838106 13.198235,76.6603583 11.7913991,81.0516379 C10.899846,83.5656973 10.3181814,86.1790917 10.0592832,88.8339613 C9.55509928,92.0867611 8.43288337,100.674152 8.43288337,100.674152" id="Path" stroke="#263238" stroke-width="0.813199939" fill="#F58031" stroke-linecap="round" stroke-linejoin="round"></path>
                <path d="M13.824399,109.69254 C13.824399,109.69254 15.6459668,109.033848 15.6459668,105.309392 C15.6459668,101.584936 14.9791429,98.9339046 15.6459668,95.3720889 C16.3127908,91.8102731 17.9635867,86.0121576 18.9556906,84.2800417 C19.9477945,82.5479258 21.1106704,80.303494 21.1106704,80.303494" id="Path" stroke="#263238" stroke-width="0.813199939" stroke-linecap="round" stroke-linejoin="round"></path>
                <path d="M20.1592265,79.0592981 C20.1592265,79.0592981 23.0542183,81.0516379 23.6315902,80.303494 C24.5241405,78.7175008 25.2725749,77.0546156 25.8678901,75.3348424 C26.616034,73.4319545 26.941314,72.5211706 26.941314,72.5211706 C26.941314,72.5211706 27.7545139,72.4398506 27.8520979,71.7079706 C27.9496819,70.9760907 28.1041899,69.5529908 28.1041899,69.5529908 C27.2124009,69.5261747 26.3249763,69.4172883 25.4531581,69.2277108 C23.8836822,68.8942988 23.2981783,68.9756188 22.9728983,69.7237628 C22.7117007,70.2295158 22.488801,70.7541457 22.3060743,71.2932387 C21.8100224,72.6187546 19.8664745,77.0913542 19.8258145,77.7500462 C19.7851545,78.4087381 19.6631745,78.5632461 20.1592265,79.0592981 Z" id="Path" stroke="#263238" stroke-width="0.813199939" fill="#F58031" fill-rule="nonzero" stroke-linecap="round" stroke-linejoin="round"></path>
                <path d="M26.941314,72.5211706 C25.803275,72.4554203 24.6706115,72.3168931 23.5502702,72.1064386 C22.6394863,71.8624786 23.1355383,70.6996027 23.1355383,70.6996027" id="Path" stroke="#263238" stroke-width="0.813199939" fill="#F58031" fill-rule="nonzero" stroke-linecap="round" stroke-linejoin="round"></path>
                <path d="M25.7865701,69.2114468 C25.7865701,69.2114468 27.9415499,62.2585873 28.2261699,60.8436194 L28.5595819,59.4367835" id="Path" stroke="#263238" stroke-width="0.813199939" stroke-linecap="round" stroke-linejoin="round"></path>
                <path d="M26.445262,52.1505121 C26.445262,52.1505121 25.8678901,55.0536359 26.445262,56.6231118 C27.1097012,57.9836036 28.1085988,59.1531812 29.3483858,60.0222875" id="Path" stroke="#263238" stroke-width="0.813199939" stroke-linecap="round" stroke-linejoin="round"></path>
                <path d="M14.4424309,53.394708 C14.4424309,53.394708 18.7523906,54.6389039 21.3139704,53.72812" id="Path" stroke="#263238" stroke-width="0.813199939" stroke-linecap="round" stroke-linejoin="round"></path>
                <path d="M22.3060743,20.8585784 C22.3060743,20.8585784 16.6787308,22.2654143 14.9872749,22.5988263 C13.295819,22.9322383 12.4256951,22.9322383 12.1736031,23.6722502 C10.3657879,27.0546296 8.25935628,30.2687069 5.87943556,33.2761415 C3.9765477,35.3498014 3.81390771,37.3421412 4.39127967,38.4074331 C4.96865163,39.472725 5.63547558,39.985041 8.11573539,39.3182171 C9.7137233,38.8343454 11.1299974,37.8826092 12.1817351,36.5858653 C12.1817351,36.5858653 12.767239,42.7987128 11.9377751,45.2789726 C11.1083112,47.7592324 10.7748992,49.7515723 11.3522711,50.1581722 C13.8648923,51.5420092 16.6809958,52.2823539 19.5493265,52.3131521 C24.1032462,52.4757921 29.3077258,52.0610601 30.1209257,51.2315962 C30.6914603,50.7719174 30.9962339,50.0587472 30.9341257,49.3287083 C30.9341257,48.7513363 30.6088457,44.8642406 31.6009496,41.7984769 C32.5930536,38.7327131 35.4067253,30.8690697 35.4880453,27.8846259 C35.5693653,24.9001821 34.4146214,24.4935822 32.1783216,23.5827982 C29.9420218,22.6720143 26.380206,21.1025384 25.5588741,20.9317664 C24.4773587,20.8365515 23.3907777,20.8121035 22.3060743,20.8585784 L22.3060743,20.8585784 Z" id="Path" stroke="#263238" stroke-width="0.813199939" fill="#263238" fill-rule="nonzero" stroke-linecap="round" stroke-linejoin="round"></path>
                <path d="M21.1431984,19.3704225 C20.464316,19.8066587 19.8272991,20.3048386 19.2403106,20.8585784 C19.1508586,21.1106704 16.2558668,25.7377781 16.5892788,25.7377781 C16.9226907,25.7377781 20.5658265,23.9162102 20.5658265,23.9162102 C20.5658265,23.9162102 22.3792623,21.1838584 22.1922263,20.1023025 C22.1781135,19.8530954 22.0503343,19.6241742 21.8456253,19.481354 C21.6409163,19.3385338 21.3819571,19.2976374 21.1431984,19.3704225 Z" id="Path" stroke="#263238" stroke-width="0.813199939" fill="#F58031" fill-rule="nonzero" stroke-linecap="round" stroke-linejoin="round"></path>
                <path d="M20.4438465,18.4515066 C20.5304197,20.2831923 20.3911277,22.118569 20.0291145,23.9162102 C19.4517425,26.15251 19.0370106,27.6406659 19.8664745,27.8927579 C20.6959384,28.1448499 23.4282902,24.0788502 24.1683022,22.9241063 C24.6050991,22.2595401 24.9395356,21.5331002 25.1604061,20.7691264 L25.7459101,14.3123189 C25.7459101,14.3123189 22.4280543,17.8903987 20.4438465,18.4515066 Z" id="Path" stroke="#263238" stroke-width="0.813199939" fill="#F58031" fill-rule="nonzero" stroke-linecap="round" stroke-linejoin="round"></path>
                <path d="M17.4675347,3.04949977 C17.4675347,3.04949977 16.6543348,10.0918112 16.6543348,12.742843 C16.6543348,15.3938748 18.3945826,18.7849186 19.2159146,19.1101986 C20.0372465,19.4354785 22.1190383,19.7770225 22.9485023,19.1996506 C23.7779662,18.6222786 26.087454,15.0604629 26.087454,15.0604629 C26.8707328,12.5712916 27.4526889,10.0231939 27.8277019,7.44077944 C28.0797939,4.62710765 27.33165,3.30159175 24.7619381,2.47212781 C22.1922263,1.64266388 18.7849186,1.62639988 17.4675347,3.04949977 Z" id="Path" stroke="#263238" stroke-width="0.813199939" fill="#F58031" fill-rule="nonzero" stroke-linecap="round" stroke-linejoin="round"></path>
                <path d="M19.4517425,9.09970732 C19.4517425,9.09970732 18.7035986,13.165707 19.0370106,13.238895 C19.5307539,13.2984763 20.0278708,13.3256412 20.5251665,13.320215" id="Path" stroke="#263238" stroke-width="0.813199939" stroke-linecap="round" stroke-linejoin="round"></path>
                <path d="M19.3704225,14.7270509 C19.3704225,14.7270509 21.6067224,15.2231029 22.7614663,14.1496789" id="Path" stroke="#263238" stroke-width="0.813199939" stroke-linecap="round" stroke-linejoin="round"></path>
                <path d="M22.5093743,9.17289531 C22.5093743,9.51443929 22.3060743,9.77466327 22.1190383,9.75839927 C21.9320024,9.74213527 21.8181544,9.44125129 21.8506824,9.10783932 C21.8832104,8.77442734 22.0621143,8.49793936 22.2491503,8.52233536 C22.4361863,8.54673136 22.5500343,8.83135134 22.5093743,9.17289531 Z" id="Path" fill="#263238" fill-rule="nonzero"></path>
                <path d="M19.0370106,8.83948334 C19.0370106,9.18102731 18.8255786,9.44125129 18.6466746,9.42498729 C18.4677706,9.40872329 18.3457906,9.11597132 18.3783186,8.77442734 C18.4108466,8.43288337 18.5897506,8.17265939 18.7686546,8.18892339 C18.9475586,8.20518739 19.0695386,8.49793936 19.0370106,8.83948334 Z" id="Path" fill="#263238" fill-rule="nonzero"></path>
                <path d="M17.4675347,7.60341943 C17.6992149,7.29649491 18.0561891,7.10947745 18.4404161,7.09373044 C18.8246432,7.07798343 19.1957238,7.23516258 19.4517425,7.52209944" id="Path" stroke="#263238" stroke-width="0.813199939" stroke-linecap="round" stroke-linejoin="round"></path>
                <path d="M21.0212184,7.44077944 C21.0212184,7.44077944 22.5988263,6.19658354 23.4608182,7.52209944" id="Path" stroke="#263238" stroke-width="0.813199939" stroke-linecap="round" stroke-linejoin="round"></path>
                <path d="M16.1420188,1.89475586 C16.1363993,1.96240602 16.1363993,2.03040568 16.1420188,2.09805584 C16.4047961,2.95534148 17.0795516,3.62399055 17.9391907,3.87896371 C19.7607585,4.62710765 24.0625862,3.71632372 25.5507421,4.21237568 C27.038898,4.70842765 26.363942,6.11526354 25.4694221,6.6113155 C24.5749022,7.10736747 24.3959982,7.35945945 24.8107301,7.93683141 C25.2254621,8.51420336 26.217566,9.09970732 25.8841541,9.75839927 C25.5507421,10.4170912 25.3881021,11.0839152 25.9654741,11.1652352 C26.542846,11.2465552 26.957578,11.2465552 27.20967,10.9212752 C27.4617619,10.5959952 29.1125578,7.02604747 29.1125578,4.96051963 C29.1125578,2.89499178 28.1204539,1.97607585 25.8028341,1.06529192 C23.4852142,0.154507988 18.6792026,-0.422863968 17.2723667,0.40659997 C16.6728028,0.685366389 16.2497132,1.24238364 16.1420188,1.89475586 Z" id="Path" stroke="#263238" stroke-width="0.813199939" fill="#263238" fill-rule="nonzero" stroke-linecap="round" stroke-linejoin="round"></path>
                <path d="M25.7459101,14.1252829 C26.1801668,14.5549698 26.8518514,14.6322136 27.3723099,14.3123189 C28.2830939,13.734947 28.6978258,11.6612871 28.1204539,10.5878632 C27.5430819,9.51443929 26.380206,11.5799671 26.380206,11.5799671" id="Path" stroke="#263238" stroke-width="0.813199939" fill="#F58031" fill-rule="nonzero" stroke-linecap="round" stroke-linejoin="round"></path>
                <path d="M22.3060743,20.8585784 C22.3060743,20.8585784 22.1434343,28.2261699 22.6394863,27.3641779 C23.1355383,26.502186 27.274726,21.0781424 27.274726,21.0781424 L26.282622,18.1750186 L22.3060743,20.8585784 Z" id="Path" stroke="#263238" stroke-width="0.813199939" fill="#F58031" fill-rule="nonzero" stroke-linecap="round" stroke-linejoin="round"></path>
                <path d="M29.5923458,28.9743138 L26.778674,37.7487412 L31.9099656,44.2543407 C31.9099656,44.2543407 32.1620576,44.7503926 32.5767896,44.1730207 C32.9915215,43.5956487 33.3168015,43.5956487 33.9836255,40.448565 C34.6504494,37.3014812 35.6100253,29.6817978 35.5531013,27.8602299 C35.4961773,26.038662 35.1383694,25.1278781 33.7315335,24.8839181" id="Path" stroke="#263238" stroke-width="0.813199939" fill="#263238" fill-rule="nonzero" stroke-linecap="round" stroke-linejoin="round"></path>
                <path d="M13.865059,39.1555771 C13.865059,39.1555771 26.697354,44.0347767 28.4376019,44.1242287 C30.1778497,44.2136807 30.5844497,43.0508048 29.8444378,40.8714289 C29.1044258,38.6920531 26.859994,37.4722532 24.9652381,36.8948812 C22.7847325,36.3854936 20.5131244,36.4134004 18.3457906,36.9762012 C16.4266388,37.4966492 13.865059,38.4968851 13.865059,39.1555771 Z" id="Path" stroke="#263238" stroke-width="0.813199939" fill="#F58031" fill-rule="nonzero" stroke-linecap="round" stroke-linejoin="round"></path>
                <path d="M24.5423742,36.8379572 C24.5423742,36.8379572 27.6081379,43.4574047 27.7951739,44.0429087 C27.9822099,44.6284127 31.1130297,45.0350126 32.1051336,44.9536926 C33.0972375,44.8723726 32.6825056,43.3760847 31.6904016,41.2292369 C30.6982977,39.0823891 29.1206898,37.1632372 27.9659459,36.8379572 C26.8319272,36.6570214 25.6763929,36.6570214 24.5423742,36.8379572 L24.5423742,36.8379572 Z" id="Path" stroke="#263238" stroke-width="0.813199939" fill="#F58031" fill-rule="nonzero" stroke-linecap="round" stroke-linejoin="round"></path>
                <path d="M7.40825144,34.5203374 C6.3356324,34.6062309 5.27819982,34.827554 4.26116768,35.1790294 C3.09829177,35.6750813 2.85433179,39.1555771 3.44796774,40.399773 C4.0416037,41.6439689 5.84690756,41.6358369 7.09110347,41.5545169 C7.80203651,41.5310006 8.46729846,41.1983696 8.91267133,40.643733 L9.82345526,34.5203374 L7.40825144,34.5203374 Z" id="Path" stroke="#263238" stroke-width="0.813199939" fill="#263238" fill-rule="nonzero" stroke-linecap="round" stroke-linejoin="round"></path>
                <path d="M9.8071879,34.5203374 C9.8071879,34.5203374 19.1589906,34.5203374 21.4766104,34.4390174 C23.7942302,34.3576974 24.3797342,34.9350694 24.8757861,35.7645333 C25.3718381,36.5939973 25.5344781,36.9192772 25.5344781,36.9192772 C22.5999767,37.2019408 19.7108221,37.840941 16.9308227,38.8221651 C13.116915,40.318453 9.8071879,41.6358369 8.64431535,41.6358369 C7.48143944,41.6358369 7.01791547,38.6595251 7.48957144,36.5858653 C7.688059,35.4423305 8.64844058,34.5864115 9.8071879,34.5203374 Z" id="Path" stroke="#263238" stroke-width="0.813199939" fill="#F58031" fill-rule="nonzero" stroke-linecap="round" stroke-linejoin="round"></path>
                <path d="M7.15615946,33.9429655 C7.15615946,33.9429655 11.1327072,33.8535135 11.0513872,34.6016574 C10.9700672,35.3498014 10.2381872,40.9771449 9.96983125,41.4731969 C9.70147527,41.9692489 7.32693145,42.2213408 6.16405554,42.1400208 C5.00117963,42.0587008 5.41591159,38.3261131 6.16405554,36.5858653 C6.55167375,35.7273262 6.88307375,34.8444983 7.15615946,33.9429655 L7.15615946,33.9429655 Z" id="Path" stroke="#263238" stroke-width="0.813199939" fill="#F58031" fill-rule="nonzero" stroke-linecap="round" stroke-linejoin="round"></path>
                <path d="M18.9963506,52.857996 C18.9963506,52.857996 19.6631745,53.8501 19.4110825,54.1021919 C19.1589906,54.3542839 17.9229267,55.5090278 18.0042467,56.2490398 C18.0429073,56.6792575 18.2165228,57.0862576 18.5002986,57.4119157" id="Path" stroke="#263238" stroke-width="0.813199939" stroke-linecap="round" stroke-linejoin="round"></path>
            </g>
            <g id="freepik--Floor--inject-121" transform="translate(11.384799, 224.443183)" fill="#FFFFFF" fill-rule="nonzero" stroke="#263238" stroke-linecap="round" stroke-linejoin="round" stroke-width="0.813199939">
                <line x1="0.699351948" y1="0.658691951" x2="333.200543" y2="0.658691951" id="Path"></line>
            </g>
        </g>
    </g>
</svg>