<svg id="email-illustration" xmlns="http://www.w3.org/2000/svg" width="233.75" height="231.801" viewBox="0 0 233.75 231.801">
  <circle id="Ellipse_73" data-name="Ellipse 73" cx="13.265" cy="13.265" r="13.265" transform="translate(146.896 64.74)" fill="#2f2e41"/>
  <path id="Path_1623" data-name="Path 1623" d="M675.511,292.146a13.267,13.267,0,0,1,11.678,19.561,13.262,13.262,0,1,0-22.034-14.573A13.233,13.233,0,0,1,675.511,292.146Z" transform="translate(-511.654 -227.041)" fill="#2f2e41"/>
  <ellipse id="Ellipse_74" data-name="Ellipse 74" cx="38.967" cy="38.967" rx="38.967" ry="38.967" transform="translate(96.406 0.043)" fill="#2f2e41"/>
  <path id="Path_1624" data-name="Path 1624" d="M510.9,131.807a38.96,38.96,0,0,1,54-4.086c-.319-.3-.634-.608-.965-.9a38.967,38.967,0,1,0-51.78,58.246c.331.294.671.572,1.009.853A38.96,38.96,0,0,1,510.9,131.807Z" transform="translate(-406.111 -116.975)" fill="#2f2e41"/>
  <circle id="Ellipse_75" data-name="Ellipse 75" cx="25.098" cy="25.098" r="25.098" transform="translate(109.945 27.452)" fill="#ffb8b8"/>
  <path id="Path_1625" data-name="Path 1625" d="M561.2,282.9s3.3,30.381-1.981,33.684,30.381,7.926,30.381,7.926-5.284-33.023,7.926-41.609Z" transform="translate(-443.99 -222.422)" fill="#ffb8b8"/>
  <path id="Path_1626" data-name="Path 1626" d="M505.16,344.411s9.835-4.592-4.329-2.957-26.384-4.639-26.384-4.639-4.292-4.293-4.952.33,1.981,13.209-12.549,14.53-27.739-2.642-33.023,7.265-2.642,52.837-2.642,52.837,9.907,35.665,17.832,40.949,77.274-1.981,77.274-1.981L536.2,415.08V373.471s-2.642-14.53-21.135-10.567c0,0-11.888-2.642-11.228-8.586S505.16,344.411,505.16,344.411Z" transform="translate(-356.247 -255.535)" fill="#d0cde1"/>
  <path id="Path_1627" data-name="Path 1627" d="M473.981,644.081c.408-1.779.682-2.785.682-2.785l-.211-1.447-2.176-14.776-.915-6.233c7.924-3.3,9.907-18.494,9.907-18.494l.3-.179,1.352-.809v0l4.855-2.912.1-.058,1.961,1.3,3.984,2.657A46.845,46.845,0,0,0,530.7,608.8a40.615,40.615,0,0,0,8.682-2.508l9.608-3.2.3-.1.3.044,5.635.853.1.018.466.069-1.3,9.021-1.892,13.11c5,2.646,9.44,7.618,13.325,13.745q1.29,2.034,2.5,4.232c1.05,1.9,2.052,3.867,3.007,5.886.117.241.23.485.343.729.368.791.733,1.589,1.086,2.391H472.231c.131-.805.262-1.575.39-2.314a.573.573,0,0,0,.015-.076c.047-.248.091-.488.131-.729C473.212,647.562,473.642,645.554,473.981,644.081Z" transform="translate(-388.493 -421.651)" fill="#2f2e41"/>
  <path id="Path_1628" data-name="Path 1628" d="M467.734,375.867a50.675,50.675,0,0,1,4.623,29.721c-2.642,16.512,7.926,57.46,7.926,57.46l7.926-1.981s-5.284-34.344-3.963-42.27,1.321-38.967-5.284-42.93S467.734,375.867,467.734,375.867Z" transform="translate(-386.189 -280.387)" fill="#2f2e41"/>
  <path id="Path_1629" data-name="Path 1629" d="M678.464,409.939l2.776,73.124,5.284,3.3s7.6-80.246,3.633-80.246h-8.063a3.634,3.634,0,0,0-3.629,3.82Z" transform="translate(-520.109 -300.732)" fill="#2f2e41"/>
  <circle id="Ellipse_76" data-name="Ellipse 76" cx="3.302" cy="3.302" r="3.302" transform="translate(94.425 174.405)" fill="#e07315"/>
  <circle id="Ellipse_77" data-name="Ellipse 77" cx="3.302" cy="3.302" r="3.302" transform="translate(160.471 177.708)" fill="#e07315"/>
  <path id="Path_1630" data-name="Path 1630" d="M506.12,58.1V83.2h5.812l7.4-7.926-.991,7.926H544.03l-1.585-7.926,3.17,7.926h4.095V58.1Z" transform="translate(-392.542 -36.926)" fill="#2f2e41"/>
  <ellipse id="Ellipse_78" data-name="Ellipse 78" cx="1.981" cy="3.633" rx="1.981" ry="3.633" transform="translate(107.634 43.634)" fill="#ffb8b8"/>
  <ellipse id="Ellipse_79" data-name="Ellipse 79" cx="1.981" cy="3.633" rx="1.981" ry="3.633" transform="translate(158.489 43.634)" fill="#ffb8b8"/>
  <path id="Path_1631" data-name="Path 1631" d="M665.432,609.933s-30.051-5.614-32.032,4.293,33.353,5.614,33.353,5.614Z" transform="translate(-491.422 -429.253)" fill="#ffb8b8"/>
  <path id="Path_1632" data-name="Path 1632" d="M711.552,426.052s71.99,57.46,58.781,71.33-63.4,9.907-63.4,9.907l3.3-16.512,29.06-3.3-14.53-14.53-13.209,1.321Z" transform="translate(-538.202 -313.4)" fill="#d0cde1"/>
  <path id="Path_1633" data-name="Path 1633" d="M427.869,672.68l9.246,7.265s6.6,20.474,16.512,14.53S444.38,667.4,444.38,667.4l-11.228-3.963Z" transform="translate(-360.854 -464.261)" fill="#ffb8b8"/>
  <path id="Path_1634" data-name="Path 1634" d="M320.264,397.058l-9.222,2.775s-64.09,47.42-66.732,60.629,12.549,20.474,12.549,20.474l57.46,27.079,5.944-15.851L293.185,478.3s1.981-3.963-5.944-4.623-9.246-9.246-9.246-9.246,15.851-24.437,24.437-19.153,11.228,9.246,11.228,9.246Z" transform="translate(-244.003 -294.974)" fill="#d0cde1"/>
  <path id="Path_1635" data-name="Path 1635" d="M513.238,722.766v2.212a4.863,4.863,0,0,1-.332,1.775,4.994,4.994,0,0,1-.354.729,4.9,4.9,0,0,1-4.21,2.391H345.585a4.9,4.9,0,0,1-4.21-2.391,4.994,4.994,0,0,1-.354-.729,4.863,4.863,0,0,1-.332-1.775v-2.212a4.894,4.894,0,0,1,4.895-4.895h9.382v-1.031a.2.2,0,0,1,.2-.2h4.895a.2.2,0,0,1,.2.2v1.031h3.058v-1.031a.2.2,0,0,1,.2-.2h4.895a.2.2,0,0,1,.2.2v1.031h3.062v-1.031a.2.2,0,0,1,.2-.2h4.895a.2.2,0,0,1,.2.2v1.031h3.058v-1.031a.2.2,0,0,1,.2-.2h4.895a.2.2,0,0,1,.2.2v1.031h3.058v-1.031a.2.2,0,0,1,.2-.2h4.895a.2.2,0,0,1,.2.2v1.031h3.062v-1.031a.2.2,0,0,1,.2-.2h4.895a.2.2,0,0,1,.2.2v1.031h3.058v-1.031a.2.2,0,0,1,.2-.2h38.343a.2.2,0,0,1,.2.2v1.031h3.062v-1.031a.2.2,0,0,1,.2-.2h4.895a.206.206,0,0,1,.2.2v1.031h3.058v-1.031a.2.2,0,0,1,.2-.2h4.895a.2.2,0,0,1,.2.2v1.031h3.058v-1.031a.2.2,0,0,1,.2-.2h4.895a.2.2,0,0,1,.2.2v1.031h3.062v-1.031a.2.2,0,0,1,.2-.2h4.895a.2.2,0,0,1,.2.2v1.031H480.4v-1.031a.2.2,0,0,1,.2-.2H485.5a.2.2,0,0,1,.2.2v1.031h3.058v-1.031a.2.2,0,0,1,.2-.2h4.895a.2.2,0,0,1,.2.2v1.031h14.277A4.894,4.894,0,0,1,513.238,722.766Z" transform="translate(-305.449 -498.072)" fill="#3f3d56"/>
  <path id="Path_1636" data-name="Path 1636" d="M511.031,475.641H450.367v-1.25H422.859v1.25H361.944a4.1,4.1,0,0,0-4.1,4.1v83.069a4.1,4.1,0,0,0,4.1,4.1H511.031a4.1,4.1,0,0,0,4.1-4.1V479.745A4.1,4.1,0,0,0,511.031,475.641Z" transform="translate(-316.349 -344.12)" fill="#3f3d56"/>
  <circle id="Ellipse_80" data-name="Ellipse 80" cx="9.112" cy="9.112" r="9.112" transform="translate(111.146 151.41)" fill="none" stroke="#d0cde1" stroke-miterlimit="10" stroke-width="2"/>
  <circle id="Ellipse_81" data-name="Ellipse 81" cx="9.112" cy="9.112" r="9.112" transform="translate(108.23 154.691)" fill="#d0cde1"/>
</svg>
