<?xml version="1.0" encoding="UTF-8"?>
<svg width="161px" height="50px" viewBox="0 0 161 50" version="1.1" xmlns="http://www.w3.org/2000/svg" xmlns:xlink="http://www.w3.org/1999/xlink">
    <title>google-play-icon</title>
    <g id="Page-1" stroke="none" stroke-width="1" fill="none" fill-rule="evenodd">
        <g id="google-play-icon" transform="translate(1.000000, 1.000000)">
            <g id="Group-6" transform="translate(17.000000, 11.000000)" fill="#FFFFFF" fill-rule="nonzero">
                <path d="M38.2868508,7.96640884 C40.2280663,7.96640884 41.5752486,6.79955801 41.5752486,4.60375691 L41.5752486,4.04154696 L38.4565746,4.04154696 L38.4565746,4.80530387 L40.6735912,4.80530387 C40.641768,6.15248619 39.9310497,7.2238674 38.2868508,7.2238674 C36.5047514,7.2238674 35.5712707,5.99337017 35.5712707,4.1158011 L35.5712707,4.03093923 C35.5712707,2.17458564 36.5683978,0.901657459 38.3080663,0.901657459 C39.4112707,0.901657459 40.238674,1.36839779 40.4508287,2.57767956 L41.3737017,2.57767956 C41.1403315,0.869834254 39.7931492,0.169723757 38.2868508,0.169723757 C36.1122652,0.169723757 34.6165746,1.82453039 34.6165746,4.04154696 L34.6165746,4.12640884 C34.6165746,6.34342541 35.9531492,7.96640884 38.2868508,7.96640884 Z M45.3303867,7.96640884 C46.5820994,7.96640884 47.5049724,7.38298343 47.6959116,6.26917127 L46.8154696,6.26917127 C46.6987845,6.91624309 46.200221,7.23447514 45.3409945,7.23447514 C44.2059669,7.23447514 43.601326,6.53436464 43.558895,5.2720442 L47.7383425,5.2720442 L47.7383425,4.98563536 C47.7383425,3.00198895 46.5290608,2.22762431 45.2455249,2.22762431 C43.718011,2.22762431 42.6466298,3.39447514 42.6466298,5.07049724 L42.6466298,5.15535912 C42.6466298,6.86320442 43.760442,7.96640884 45.3303867,7.96640884 Z M46.8366851,4.56132597 L43.5907182,4.56132597 C43.7392265,3.57480663 44.3438674,2.95955801 45.2455249,2.95955801 C46.1577901,2.95955801 46.7518232,3.41569061 46.8366851,4.56132597 Z M50.7721547,7.94519337 C51.1328177,7.94519337 51.3449724,7.8921547 51.5253039,7.82850829 L51.5253039,7.08596685 C51.3343646,7.16022099 51.1222099,7.20265193 50.8464088,7.20265193 C50.400884,7.20265193 50.1569061,6.93745856 50.1569061,6.39646409 L50.1569061,3.06563536 L51.4510497,3.06563536 L51.4510497,2.32309392 L50.1569061,2.32309392 L50.1569061,1.06077348 L49.2764641,1.06077348 L49.2764641,2.32309392 L48.480884,2.32309392 L48.480884,3.06563536 L49.2764641,3.06563536 L49.2764641,6.48132597 C49.2764641,7.35116022 49.7644199,7.94519337 50.7721547,7.94519337 Z M56.1078453,1.16685083 C56.4260773,1.16685083 56.6912707,0.901657459 56.6912707,0.583425414 C56.6912707,0.26519337 56.4260773,2.1360691e-13 56.1078453,2.1360691e-13 C55.7896133,2.1360691e-13 55.5244199,0.26519337 55.5244199,0.583425414 C55.5244199,0.901657459 55.7896133,1.16685083 56.1078453,1.16685083 Z M56.5639779,7.87093923 L56.5639779,2.32309392 L55.6835359,2.32309392 L55.6835359,7.87093923 L56.5639779,7.87093923 Z M60.0539227,7.94519337 C60.4145856,7.94519337 60.6267403,7.8921547 60.8070718,7.82850829 L60.8070718,7.08596685 C60.6161326,7.16022099 60.4039779,7.20265193 60.1281768,7.20265193 C59.6826519,7.20265193 59.438674,6.93745856 59.438674,6.39646409 L59.438674,3.06563536 L60.7328177,3.06563536 L60.7328177,2.32309392 L59.438674,2.32309392 L59.438674,1.06077348 L58.558232,1.06077348 L58.558232,2.32309392 L57.7626519,2.32309392 L57.7626519,3.06563536 L58.558232,3.06563536 L58.558232,6.48132597 C58.558232,7.35116022 59.0461878,7.94519337 60.0539227,7.94519337 Z M67.2459669,7.96640884 C68.8265193,7.96640884 69.9827624,6.81016575 69.9827624,5.13414365 L69.9827624,5.04928177 C69.9827624,3.3838674 68.8265193,2.22762431 67.2565746,2.22762431 C65.6866298,2.22762431 64.5303867,3.39447514 64.5303867,5.0598895 L64.5303867,5.14475138 C64.5303867,6.76773481 65.6654144,7.96640884 67.2459669,7.96640884 Z M67.2565746,7.23447514 C66.1321547,7.23447514 65.4426519,6.40707182 65.4426519,5.14475138 L65.4426519,5.0598895 C65.4426519,3.78696133 66.1427624,2.95955801 67.2565746,2.95955801 C68.359779,2.95955801 69.0704972,3.78696133 69.0704972,5.07049724 L69.0704972,5.14475138 C69.0704972,6.39646409 68.3703867,7.23447514 67.2565746,7.23447514 Z M72.2316022,7.87093923 L72.2316022,4.50828729 C72.2316022,3.51116022 72.9635359,2.99138122 73.7803315,2.99138122 C74.6713812,2.99138122 75.0850829,3.42629834 75.0850829,4.40220994 L75.0850829,7.87093923 L75.9655249,7.87093923 L75.9655249,4.46585635 C75.9655249,2.85348066 75.159337,2.22762431 74.0137017,2.22762431 C73.1014365,2.22762431 72.4861878,2.68375691 72.2316022,3.20353591 L72.2316022,2.32309392 L71.3511602,2.32309392 L71.3511602,7.87093923 L72.2316022,7.87093923 Z" id="Getiton"></path>
                <g id="Google-play" transform="translate(0.000000, 1.683094)">
                    <path d="M5.34167192,21.8865915 C5.24012659,21.9874262 5.36165498,22.15136 5.48788675,22.0834358 C8.70833344,20.3513053 13.0562432,18.011197 16.730838,16.0267941 C16.8042503,15.9870788 16.8178129,15.8884711 16.7582121,15.8301973 L14.1689989,13.2952243 C14.1203478,13.2475907 14.0420827,13.2478381 13.9938049,13.2958429 L5.34167192,21.8865915 Z" id="Path"></path>
                    <path d="M14.0361343,10.572352 C14.0840408,10.619651 14.1613527,10.6195288 14.2090141,10.5719853 L16.7596959,8.03003807 C16.8176492,7.97220377 16.8034366,7.87490476 16.7312705,7.83602671 L15.481537,7.1630857 C13.9787935,6.35404097 11.9652522,5.27005108 9.92181525,4.17030707 C8.39140614,3.34671821 6.84576748,2.51513619 5.48559173,1.7837131 C5.3610472,1.716749 5.24079097,1.87876328 5.34129651,1.97811557 L14.0361343,10.572352 Z" id="Path"></path>
                    <path d="M0,0.911465724 C0,0.619022703 0.0439802604,0.37418932 0.120501408,0.172509253 C0.199588279,-0.0359056523 0.460603741,-0.0518804358 0.618151698,0.105135698 L12.3386282,11.7862775 C12.3879402,11.8353726 12.3880654,11.9155612 12.3388786,11.9647821 L0.575798481,23.7611967 C0.402505741,23.9350436 0.116070841,23.8929981 0.0606386915,23.6531875 C0.0204131488,23.4792148 0,23.2862333 0,23.078901 L0,0.911465724 Z" id="Path"></path>
                    <path d="M18.3414209,15.0127107 C18.2918228,15.0385122 18.2304339,15.0302803 18.1903197,14.9923153 L15.0658966,12.0439489 C15.0150169,11.996032 15.0148888,11.9175219 15.065384,11.8692364 L18.2067242,8.87537344 C18.2469666,8.83703989 18.3089962,8.8288203 18.3588507,8.85485516 C21.0326617,10.2528382 23.1183446,11.3383412 23.7542766,11.6607363 C23.7779863,11.6728998 23.7965695,11.6910837 23.8072069,11.7147964 C23.8652636,11.8430663 23.8785923,11.9705992 23.8588555,12.0933403 C23.8532165,12.1288479 23.8291223,12.1579667 23.7960569,12.1746762 C23.430287,12.3594636 22.205586,12.9981104 20.4998989,13.8875227 L20.4893897,13.8930515 C19.8365405,14.2333847 19.1134593,14.6104542 18.3414209,15.0127107 Z" id="Path"></path>
                </g>
                <path d="M40.4614365,25.7255249 C43.8665193,25.7255249 45.8077348,23.7047514 45.8077348,20.6656354 L45.8077348,19.4563536 L40.7001105,19.4563536 L40.7001105,21.3339227 L43.2618785,21.3339227 C43.2141436,22.638674 42.4344751,23.7365746 40.5250829,23.7365746 C38.2974586,23.7365746 37.358674,22.161326 37.358674,19.9655249 L37.358674,19.838232 C37.358674,17.5151381 38.520221,16.0353591 40.4932597,16.0353591 C41.8616575,16.0353591 42.7367956,16.64 42.959558,17.9765746 L45.521326,17.9765746 C45.2508287,15.160221 42.9913812,13.998674 40.4614365,13.998674 C37.1040884,13.998674 34.6696133,16.3854144 34.6696133,19.8064088 L34.6696133,19.9337017 C34.6696133,23.3069613 36.7381215,25.7255249 40.4614365,25.7255249 Z M51.3290608,25.7255249 C53.8271823,25.7255249 55.720663,24.0548066 55.720663,21.4293923 L55.720663,21.3020994 C55.720663,18.7085083 53.8430939,17.0377901 51.3449724,17.0377901 C48.8468508,17.0377901 46.9533702,18.7403315 46.9533702,21.3498343 L46.9533702,21.4771271 C46.9533702,24.0707182 48.8468508,25.7255249 51.3290608,25.7255249 Z M51.3449724,23.9752486 C50.040221,23.9752486 49.3082873,23.0205525 49.3082873,21.4293923 L49.3082873,21.3020994 C49.3082873,19.7109392 50.0720442,18.7880663 51.3449724,18.7880663 C52.6338122,18.7880663 53.3816575,19.7427624 53.3816575,21.3339227 L53.3816575,21.4453039 C53.3816575,23.0205525 52.6338122,23.9752486 51.3449724,23.9752486 Z M61.1306077,25.7255249 C63.6287293,25.7255249 65.5222099,24.0548066 65.5222099,21.4293923 L65.5222099,21.3020994 C65.5222099,18.7085083 63.6446409,17.0377901 61.1465193,17.0377901 C58.6483978,17.0377901 56.7549171,18.7403315 56.7549171,21.3498343 L56.7549171,21.4771271 C56.7549171,24.0707182 58.6483978,25.7255249 61.1306077,25.7255249 Z M61.1465193,23.9752486 C59.841768,23.9752486 59.1098343,23.0205525 59.1098343,21.4293923 L59.1098343,21.3020994 C59.1098343,19.7109392 59.8735912,18.7880663 61.1465193,18.7880663 C62.4353591,18.7880663 63.1832044,19.7427624 63.1832044,21.3339227 L63.1832044,21.4453039 C63.1832044,23.0205525 62.4353591,23.9752486 61.1465193,23.9752486 Z M70.7571271,28.6214365 C73.4939227,28.6214365 75.1328177,27.3644199 75.1487293,24.8981215 L75.1487293,17.2287293 L72.8574586,17.2287293 L72.8574586,18.4698343 C72.3801105,17.6265193 71.5686188,17.0377901 70.2161326,17.0377901 C68.1476243,17.0377901 66.5564641,18.7085083 66.5564641,21.0952486 L66.5564641,21.2066298 C66.5564641,23.6729282 68.1635359,25.1845304 70.1843094,25.1845304 C71.4095028,25.1845304 72.3960221,24.4525967 72.8574586,23.641105 L72.8574586,24.8981215 C72.8574586,26.2028729 72.1573481,26.9348066 70.7571271,26.9348066 C69.5796685,26.9348066 69.0545856,26.4574586 68.9113812,25.7255249 L66.6201105,25.7255249 C66.8428729,27.4439779 68.0680663,28.6214365 70.7571271,28.6214365 Z M70.8685083,23.4501657 C69.7228729,23.4501657 68.9113812,22.5909392 68.9113812,21.2066298 L68.9113812,21.079337 C68.9113812,19.7109392 69.6274033,18.7880663 70.9162431,18.7880663 C72.1732597,18.7880663 72.921105,19.6472928 72.921105,21.0634254 L72.921105,21.1748066 C72.921105,22.5909392 72.0777901,23.4501657 70.8685083,23.4501657 Z M79.5403315,25.5504972 L79.5403315,13.4576796 L77.2490608,13.4576796 L77.2490608,25.5504972 L79.5403315,25.5504972 Z M85.4753591,25.7255249 C87.7507182,25.7255249 89.1827624,24.7230939 89.4532597,22.9250829 L87.2733702,22.9250829 C87.1301657,23.6251934 86.6050829,24.0866298 85.5390055,24.0866298 C84.281989,24.0866298 83.5341436,23.2910497 83.4704972,21.9067403 L89.4691713,21.9067403 L89.4691713,21.2702762 C89.4691713,18.2948066 87.559779,17.0377901 85.4117127,17.0377901 C82.9931492,17.0377901 81.1314917,18.7403315 81.1314917,21.3657459 L81.1314917,21.4930387 C81.1314917,24.1502762 82.961326,25.7255249 85.4753591,25.7255249 Z M87.2256354,20.4906077 L83.5023204,20.4906077 C83.6773481,19.3131492 84.3774586,18.6289503 85.4117127,18.6289503 C86.5096133,18.6289503 87.1460773,19.2335912 87.2256354,20.4906077 Z M97.281768,25.5504972 L97.281768,21.4134807 L98.7297238,21.4134807 C101.323315,21.4134807 102.994033,20.2678453 102.994033,17.8651934 L102.994033,17.801547 C102.994033,15.398895 101.418785,14.1737017 98.6501657,14.1737017 L94.72,14.1737017 L94.72,25.5504972 L97.281768,25.5504972 Z M98.5865193,19.6154696 L97.281768,19.6154696 L97.281768,16.1308287 L98.5865193,16.1308287 C99.8117127,16.1308287 100.511823,16.6081768 100.511823,17.8174586 L100.511823,17.881105 C100.511823,19.0108287 99.8435359,19.6154696 98.5865193,19.6154696 Z M106.828729,25.5504972 L106.828729,13.4576796 L104.537459,13.4576796 L104.537459,25.5504972 L106.828729,25.5504972 Z M111.172597,25.7255249 C112.477348,25.7255249 113.209282,25.2163536 113.68663,24.5480663 L113.68663,25.5504972 L115.930166,25.5504972 L115.930166,20.1246409 C115.930166,17.8651934 114.48221,17.0377901 112.445525,17.0377901 C110.40884,17.0377901 108.849503,17.9129282 108.706298,19.8859669 L110.886188,19.8859669 C110.981657,19.1699448 111.395359,18.7085083 112.30232,18.7085083 C113.352486,18.7085083 113.654807,19.2495028 113.654807,20.2360221 L113.654807,20.5701657 L112.716022,20.5701657 C110.170166,20.5701657 108.388066,21.3020994 108.388066,23.2433149 C108.388066,24.9935912 109.660994,25.7255249 111.172597,25.7255249 Z M111.856796,24.118453 C111.013481,24.118453 110.647514,23.720663 110.647514,23.1160221 C110.647514,22.2249724 111.427182,21.9385635 112.763757,21.9385635 L113.654807,21.9385635 L113.654807,22.638674 C113.654807,23.561547 112.875138,24.118453 111.856796,24.118453 Z M120.94232,28.3827624 L125.445304,17.2287293 L123.233591,17.2287293 L121.371934,22.2249724 L119.35116,17.2287293 L116.86895,17.2287293 L120.178564,24.7071823 L118.714696,28.3827624 L120.94232,28.3827624 Z" id="GooglePlay"></path>
            </g>
            <rect id="Rectangle-Copy-6" stroke-opacity="0.518056163" stroke="#FFFFFF" stroke-width="0.883977901" x="0" y="0" width="159.116022" height="47.7348066" rx="6.1878453"></rect>
        </g>
    </g>
</svg>