<?xml version="1.0" encoding="UTF-8"?>
<svg width="250px" height="67px" viewBox="0 0 250 67" version="1.1" xmlns="http://www.w3.org/2000/svg" xmlns:xlink="http://www.w3.org/1999/xlink">
    <title>_Group_</title>
    <g id="Page-1" stroke="none" stroke-width="1" fill="none" fill-rule="evenodd">
        <g id="_Group_">
            <polygon id="&lt;Compound-Path&gt;" fill="#6CC147" fill-rule="nonzero" points="6.29651163 19.3052326 18.6773256 15.7877907 28.7122093 51.1075581 16.3313953 54.625"></polygon>
            <path d="M67.1947674,19.4302326 C69.9738372,22.1395349 71.3604651,26.2267442 71.3604651,31.6918605 L71.3604651,52.6918605 L58.4883721,52.6918605 L58.4883721,33.7936047 C58.4883721,28.7790698 56.4796512,26.2732558 52.4593023,26.2732558 C50.247093,26.2732558 48.4738372,26.994186 47.1424419,28.4389535 C45.8081395,29.8866279 45.1424419,32.0552326 45.1424419,34.9447674 L45.1424419,52.6918605 L32.2732558,52.6918605 L32.2732558,15.9767442 L44.5348837,15.9767442 L44.5348837,19.9709302 C45.9796512,18.4825581 47.6947674,17.3430233 49.6831395,16.5523256 C51.6686047,15.7616279 53.8372093,15.3662791 56.1860465,15.3662791 C60.747093,15.3662791 64.4156977,16.7209302 67.1947674,19.4302326 Z" id="&lt;Compound-Path&gt;" fill="#6CC147" fill-rule="nonzero"></path>
            <path d="M91.5668605,16.619186 C93.6656977,15.7848837 96.0726744,15.3662791 98.7819767,15.3662791 L98.7819767,26.9505814 C97.6075581,26.8139535 96.6366279,26.747093 95.869186,26.747093 C93.1133721,26.747093 90.9563953,27.4912791 89.3982558,28.9825581 C87.8401163,30.4738372 87.0610465,32.752907 87.0610465,35.8255814 L87.0610465,52.6918605 L74.1889535,52.6918605 L74.1889535,15.9767442 L86.4505814,15.9767442 L86.4505814,20.377907 C87.7616279,18.7093023 89.4680233,17.4563953 91.5668605,16.619186 Z" id="&lt;Compound-Path&gt;" fill="#6CC147" fill-rule="nonzero"></path>
            <path d="M139.311047,37.5872093 L112.619186,37.5872093 C113.159884,39.4825581 114.209302,40.9389535 115.770349,41.9563953 C117.328488,42.9709302 119.27907,43.4796512 121.627907,43.4796512 C123.389535,43.4796512 124.915698,43.2325581 126.200581,42.7354651 C127.488372,42.2383721 128.787791,41.4244186 130.09593,40.2965116 L136.872093,47.3401163 C133.302326,51.3168605 128.087209,53.3023256 121.223837,53.3023256 C116.930233,53.3023256 113.159884,52.4883721 109.909884,50.8633721 C106.656977,49.2383721 104.139535,46.9796512 102.354651,44.0901163 C100.569767,41.2005814 99.6802326,37.9244186 99.6802326,34.2674419 C99.6802326,30.6540698 100.549419,27.4127907 102.287791,24.5465116 C104.026163,21.6773256 106.430233,19.4302326 109.502907,17.8052326 C112.572674,16.1773256 116.02907,15.3662791 119.869186,15.3662791 C123.526163,15.3662791 126.84593,16.122093 129.825581,17.6337209 C132.80814,19.1482558 135.165698,21.3372093 136.906977,24.2063953 C138.642442,27.0755814 139.514535,30.4738372 139.514535,34.4011628 C139.514535,34.494186 139.444767,35.5523256 139.311047,37.5872093 Z M114.956395,26.2034884 C113.622093,27.3343023 112.776163,28.869186 112.415698,30.8110465 L127.456395,30.8110465 C127.093023,28.869186 126.247093,27.3343023 124.915698,26.2034884 C123.581395,25.0755814 121.921512,24.5116279 119.936047,24.5116279 C117.947674,24.5116279 116.287791,25.0755814 114.956395,26.2034884 Z" id="&lt;Compound-Path&gt;" fill="#6CC147"></path>
            <polygon id="&lt;Compound-Path&gt;" fill="#6CC147" fill-rule="nonzero" points="141.988372 2.42732558 154.857558 2.42732558 154.857558 52.6918605 141.988372 52.6918605"></polygon>
            <path d="M189.30814,19.5319767 C192.511628,22.3081395 194.116279,26.5668605 194.116279,32.3023256 L194.116279,52.6918605 L182.125,52.6918605 L182.125,47.9505814 C180.273256,51.5203488 176.659884,53.3023256 171.287791,53.3023256 C168.44186,53.3023256 165.979651,52.8052326 163.901163,51.8110465 C161.825581,50.8197674 160.255814,49.4767442 159.194767,47.7819767 C158.130814,46.0872093 157.601744,44.1569767 157.601744,41.9883721 C157.601744,38.5116279 158.93314,35.8139535 161.598837,33.8924419 C164.264535,31.9738372 168.372093,31.0145349 173.927326,31.0145349 L181.244186,31.0145349 C181.017442,27.130814 178.421512,25.1889535 173.453488,25.1889535 C171.69186,25.1889535 169.909884,25.4709302 168.101744,26.0348837 C166.296512,26.6017442 164.758721,27.380814 163.497093,28.372093 L159.159884,19.6337209 C161.19186,18.2790698 163.665698,17.2296512 166.578488,16.4825581 C169.491279,15.7383721 172.415698,15.3662791 175.351744,15.3662791 C181.447674,15.3662791 186.098837,16.752907 189.30814,19.5319767 Z M178.805233,44.0901163 C179.93314,43.3662791 180.747093,42.3052326 181.244186,40.9040698 L181.244186,37.7209302 L175.688953,37.7209302 C171.94186,37.7209302 170.06686,38.9651163 170.06686,41.4476744 C170.06686,42.5784884 170.497093,43.4796512 171.354651,44.1569767 C172.212209,44.8343023 173.386628,45.1744186 174.877907,45.1744186 C176.366279,45.1744186 177.677326,44.8139535 178.805233,44.0901163 Z" id="&lt;Compound-Path&gt;" fill="#6CC147"></path>
            <path d="M235.017442,15.9767442 L219.165698,54.1831395 C217.313953,58.6976744 215.055233,61.872093 212.392442,63.7005814 C209.726744,65.5319767 206.473837,66.4447674 202.636628,66.4447674 C200.69186,66.4447674 198.741279,66.1395349 196.776163,65.5319767 C194.811047,64.9215116 193.218023,64.119186 192,63.125 L196.47093,54.1162791 C197.19186,54.7936047 198.063953,55.3226744 199.078488,55.7093023 C200.09593,56.0901163 201.122093,56.2848837 202.162791,56.2848837 C203.380814,56.2848837 204.386628,56.0348837 205.177326,55.5377907 C205.965116,55.0406977 206.633721,54.252907 207.174419,53.1686047 L191.456395,15.9767442 L204.668605,15.9767442 L213.677326,38.3982558 L222.755814,15.9767442 L235.017442,15.9767442 Z" id="&lt;Compound-Path&gt;" fill="#6CC147" fill-rule="nonzero"></path>
            <path d="M230.06686,49.3895349 C228.575581,47.9447674 227.831395,46.1162791 227.831395,43.9040698 C227.831395,41.6453488 228.563953,39.8168605 230.031977,38.4156977 C231.5,37.0174419 233.340116,36.3168605 235.552326,36.3168605 C237.811047,36.3168605 239.662791,37.0174419 241.107558,38.4156977 C242.552326,39.8168605 243.276163,41.6453488 243.276163,43.9040698 C243.276163,46.1162791 242.540698,47.9447674 241.075581,49.3895349 C239.604651,50.8372093 237.764535,51.5581395 235.552326,51.5581395 C233.383721,51.5581395 231.555233,50.8372093 230.06686,49.3895349 Z" id="&lt;Compound-Path&gt;" fill="#FF7B32" fill-rule="nonzero"></path>
            <path d="M236.508721,32.8110465 C235.017442,31.3662791 234.273256,29.5377907 234.273256,27.3226744 C234.273256,25.0668605 235.005814,23.2354651 236.473837,21.8372093 C237.94186,20.4360465 239.781977,19.7354651 241.994186,19.7354651 C244.252907,19.7354651 246.104651,20.4360465 247.549419,21.8372093 C248.994186,23.2354651 249.718023,25.0668605 249.718023,27.3226744 C249.718023,29.5377907 248.982558,31.3662791 247.517442,32.8110465 C246.046512,34.255814 244.206395,34.9796512 241.994186,34.9796512 C239.825581,34.9796512 237.997093,34.255814 236.508721,32.8110465 Z" id="&lt;Compound-Path&gt;" fill="#FF7B32" fill-rule="nonzero"></path>
            <path d="M2.4244186,13.1976744 C0.933139535,11.752907 0.188953488,9.9244186 0.188953488,7.70930233 C0.188953488,5.45348837 0.921511628,3.62209302 2.38953488,2.22383721 C3.85755814,0.822674419 5.69767442,0.122093023 7.9127907,0.122093023 C10.1686047,0.122093023 12.0203488,0.822674419 13.4680233,2.22383721 C14.9098837,3.62209302 15.6337209,5.45348837 15.6337209,7.70930233 C15.6337209,9.9244186 14.9011628,11.752907 13.4331395,13.1976744 C11.9651163,14.6424419 10.125,15.3662791 7.9127907,15.3662791 C5.74418605,15.3662791 3.91569767,14.6424419 2.4244186,13.1976744 Z" id="&lt;Compound-Path&gt;" fill="#FF7B32" fill-rule="nonzero"></path>
        </g>
    </g>
</svg>