<svg xmlns="http://www.w3.org/2000/svg" width="149.671" height="245.323" viewBox="0 0 149.671 245.323">
  <g id="pattern-dot-01" transform="translate(3069.886 -1201.325) rotate(90)" opacity="0.112">
    <circle id="Ellipse_113" data-name="Ellipse 113" cx="10.724" cy="10.724" r="10.724" transform="translate(1201.325 2920.215)" fill="#d2e6bd"/>
    <circle id="Ellipse_114" data-name="Ellipse 114" cx="10.724" cy="10.724" r="10.724" transform="translate(1201.325 2962.956)" fill="#d2e6bd"/>
    <circle id="Ellipse_115" data-name="Ellipse 115" cx="10.724" cy="10.724" r="10.724" transform="translate(1201.325 3005.697)" fill="#d2e6bd"/>
    <circle id="Ellipse_116" data-name="Ellipse 116" cx="10.724" cy="10.724" r="10.724" transform="translate(1201.325 3048.438)" fill="#d2e6bd"/>
    <circle id="Ellipse_117" data-name="Ellipse 117" cx="10.724" cy="10.724" r="10.724" transform="translate(1246.1 2920.215)" fill="#d2e6bd"/>
    <circle id="Ellipse_118" data-name="Ellipse 118" cx="10.724" cy="10.724" r="10.724" transform="translate(1246.1 2962.956)" fill="#d2e6bd"/>
    <circle id="Ellipse_119" data-name="Ellipse 119" cx="10.724" cy="10.724" r="10.724" transform="translate(1246.1 3005.697)" fill="#d2e6bd"/>
    <circle id="Ellipse_120" data-name="Ellipse 120" cx="10.724" cy="10.724" r="10.724" transform="translate(1246.1 3048.438)" fill="#d2e6bd"/>
    <circle id="Ellipse_121" data-name="Ellipse 121" cx="10.724" cy="10.724" r="10.724" transform="translate(1290.875 2920.215)" fill="#d2e6bd"/>
    <circle id="Ellipse_122" data-name="Ellipse 122" cx="10.724" cy="10.724" r="10.724" transform="translate(1290.875 2962.956)" fill="#d2e6bd"/>
    <circle id="Ellipse_123" data-name="Ellipse 123" cx="10.724" cy="10.724" r="10.724" transform="translate(1290.875 3005.697)" fill="#d2e6bd"/>
    <circle id="Ellipse_124" data-name="Ellipse 124" cx="10.724" cy="10.724" r="10.724" transform="translate(1290.875 3048.438)" fill="#d2e6bd"/>
    <circle id="Ellipse_125" data-name="Ellipse 125" cx="10.724" cy="10.724" r="10.724" transform="translate(1335.65 2920.215)" fill="#d2e6bd"/>
    <circle id="Ellipse_126" data-name="Ellipse 126" cx="10.724" cy="10.724" r="10.724" transform="translate(1335.65 2962.956)" fill="#d2e6bd"/>
    <circle id="Ellipse_127" data-name="Ellipse 127" cx="10.724" cy="10.724" r="10.724" transform="translate(1335.65 3005.697)" fill="#d2e6bd"/>
    <circle id="Ellipse_128" data-name="Ellipse 128" cx="10.724" cy="10.724" r="10.724" transform="translate(1335.65 3048.438)" fill="#d2e6bd"/>
    <circle id="Ellipse_129" data-name="Ellipse 129" cx="10.724" cy="10.724" r="10.724" transform="translate(1380.425 2920.215)" fill="#d2e6bd"/>
    <circle id="Ellipse_130" data-name="Ellipse 130" cx="10.724" cy="10.724" r="10.724" transform="translate(1380.425 2962.956)" fill="#d2e6bd"/>
    <circle id="Ellipse_131" data-name="Ellipse 131" cx="10.724" cy="10.724" r="10.724" transform="translate(1380.425 3005.697)" fill="#d2e6bd"/>
    <circle id="Ellipse_132" data-name="Ellipse 132" cx="10.724" cy="10.724" r="10.724" transform="translate(1380.425 3048.438)" fill="#d2e6bd"/>
    <circle id="Ellipse_133" data-name="Ellipse 133" cx="10.724" cy="10.724" r="10.724" transform="translate(1425.2 2920.215)" fill="#d2e6bd"/>
    <circle id="Ellipse_134" data-name="Ellipse 134" cx="10.724" cy="10.724" r="10.724" transform="translate(1425.2 2962.956)" fill="#d2e6bd"/>
    <circle id="Ellipse_135" data-name="Ellipse 135" cx="10.724" cy="10.724" r="10.724" transform="translate(1425.2 3005.697)" fill="#d2e6bd"/>
    <circle id="Ellipse_136" data-name="Ellipse 136" cx="10.724" cy="10.724" r="10.724" transform="translate(1425.2 3048.438)" fill="#d2e6bd"/>
  </g>
</svg>
