<?xml version="1.0" encoding="UTF-8"?>
<svg width="936px" height="900px" viewBox="0 0 936 900" version="1.1" xmlns="http://www.w3.org/2000/svg" xmlns:xlink="http://www.w3.org/1999/xlink">
    <title>pattern-home-bg</title>
    <g id="pattern-home-bg" stroke="none" stroke-width="1" fill="none" fill-rule="evenodd" opacity="0.137439546">
        <g id="blob-(4)" transform="translate(748.677154, 664.825280) rotate(-50.000000) translate(-748.677154, -664.825280) translate(-335.822846, -418.174720)" fill="#F58031" fill-rule="nonzero">
            <path d="M1355.73131,717.969958 C1533.42924,864.979437 1750.45377,968.322734 1829.10696,1137.1653 C1906.3036,1306.00787 1846.58544,1538.89418 1705.30102,1674.25934 C1565.47313,1809.6245 1345.53552,1846.01299 1169.29413,1837.27975 C993.05273,1830.00206 861.964088,1776.1471 739.61469,1720.8366 C617.265291,1666.98164 505.111675,1608.76007 436.654273,1515.60555 C366.740331,1420.99549 341.979143,1289.99694 321.587577,1116.78775 C301.19601,942.123025 285.174065,726.703194 381.305736,565.138321 C478.893947,403.573449 688.635773,294.407994 863.420629,336.618637 C1038.20548,378.829279 1178.03337,569.50494 1355.73131,717.969958 Z" id="Path" transform="translate(1084.611355, 1083.002468) rotate(-42.000000) translate(-1084.611355, -1083.002468) "></path>
        </g>
    </g>
</svg>