<svg id="attachment_icon_white" data-name="attachment icon_white" xmlns="http://www.w3.org/2000/svg" width="27.778" height="19.477" viewBox="0 0 27.778 19.477">
  <path id="Path_1410" data-name="Path 1410" d="M622.23,336.784H600.276a1,1,0,0,0-1,1v13.41a1,1,0,0,0,1,1H622.23a1,1,0,0,0,1-1v-13.41A1,1,0,0,0,622.23,336.784Zm-1,13.411H601.276v-6.409H621.23Zm0-8.409H601.276v-3H621.23Z" transform="translate(-599.276 -332.717)" fill="#fff"/>
  <path id="Path_1411" data-name="Path 1411" d="M625.672,333.124H603.716a1,1,0,0,0,0,2h20.956v12.411a1,1,0,0,0,2,0V334.124A1,1,0,0,0,625.672,333.124Z" transform="translate(-598.894 -333.124)" fill="#fff"/>
  <path id="Path_1412" data-name="Path 1412" d="M603.8,347.505h1.839a1,1,0,1,0,0-2H603.8a1,1,0,1,0,0,2Z" transform="translate(-598.885 -331.748)" fill="#fff"/>
</svg>
