<svg id="comment_icon_grey" data-name="comment icon_grey" xmlns="http://www.w3.org/2000/svg" width="12" height="10.907" viewBox="0 0 12 10.907">
  <path id="Path_1553" data-name="Path 1553" d="M11.136,5.434v3.62H4.945L4.7,9.486l-.838,1.451L3.021,9.486l-.25-.432H.864V2.142H11.136V3.61a.432.432,0,0,0,.432.432h0A.432.432,0,0,0,12,3.61V1.758a.48.48,0,0,0-.48-.48H.48a.48.48,0,0,0-.48.48v7.68a.48.48,0,0,0,.48.48H2.272l1.17,2.027a.48.48,0,0,0,.831,0l1.17-2.027H11.52a.48.48,0,0,0,.48-.48v-4A.432.432,0,0,0,11.568,5h0A.432.432,0,0,0,11.136,5.434Z" transform="translate(0 -1.278)" fill="#ccc"/>
  <circle id="Ellipse" cx="0.48" cy="0.48" r="0.48" transform="translate(3.12 3.865)" fill="#ccc"/>
  <circle id="Ellipse-2" data-name="Ellipse" cx="0.48" cy="0.48" r="0.48" transform="translate(5.52 3.865)" fill="#ccc"/>
  <circle id="Ellipse-3" data-name="Ellipse" cx="0.48" cy="0.48" r="0.48" transform="translate(7.92 3.865)" fill="#ccc"/>
</svg>
