<svg id="user_icon_grey" data-name="user icon_grey" xmlns="http://www.w3.org/2000/svg" width="12" height="12" viewBox="0 0 12 12">
  <path id="user_icon" data-name="user icon" d="M11.084,3.88a.439.439,0,0,0-.2.53,5.113,5.113,0,0,1-.845,4.758,4.554,4.554,0,0,0-2.8-2.276,2.64,2.64,0,1,0-2.471,0,4.554,4.554,0,0,0-2.8,2.276A5.131,5.131,0,1,1,10.086,2.9a.436.436,0,0,0,.553.132h0a.435.435,0,0,0,.139-.648,5.933,5.933,0,1,0,.924,1.75.436.436,0,0,0-.618-.251ZM4.257,4.908A1.777,1.777,0,1,1,5.652,6.3,1.78,1.78,0,0,1,4.257,4.908ZM9.392,9.853c-.03.027-.063.05-.094.076-.1.082-.195.161-.3.235-.049.035-.1.067-.151.1-.088.059-.177.116-.268.169-.058.034-.116.064-.175.1-.088.047-.178.092-.268.134-.062.028-.125.055-.188.081-.092.038-.184.072-.278.105-.063.022-.127.044-.192.063-.1.03-.2.055-.3.079-.062.015-.124.031-.187.043-.109.022-.221.038-.332.052-.054.007-.108.017-.163.023a4.778,4.778,0,0,1-1,0c-.055-.005-.108-.015-.163-.023-.111-.014-.223-.03-.332-.052-.063-.012-.125-.028-.187-.043-.1-.024-.2-.049-.3-.079-.064-.02-.128-.041-.191-.063q-.142-.049-.28-.106c-.062-.025-.124-.052-.186-.08-.092-.042-.182-.088-.271-.135-.058-.031-.116-.061-.172-.094-.093-.054-.182-.112-.271-.172-.049-.033-.1-.064-.148-.1-.1-.075-.2-.156-.3-.24-.029-.024-.06-.046-.088-.071L2.6,9.842a3.694,3.694,0,0,1,6.807,0Z" transform="translate(0 0)" fill="#ccc"/>
</svg>
