<svg id="clock_icon_grey" data-name="clock icon_grey" xmlns="http://www.w3.org/2000/svg" width="12" height="12" viewBox="0 0 12 12">
  <path id="Path_1444" data-name="Path 1444" d="M150.8,142.515a.435.435,0,0,0-.671-.066.43.43,0,0,0-.059.538,5.083,5.083,0,0,1,.816,3.176,5.132,5.132,0,1,1-5.666-5.492,5.09,5.09,0,0,1,3.336.8.43.43,0,0,0,.539-.059.435.435,0,0,0-.067-.671,6.014,6.014,0,1,0,1.771,1.771Z" transform="translate(-139.773 -139.774)" fill="#ccc"/>
  <path id="Path_1445" data-name="Path 1445" d="M151.151,150.143h0v-3.25a.434.434,0,0,0-.868,0v3.684a.434.434,0,0,0,.434.434H154.4a.434.434,0,0,0,0-.868Z" transform="translate(-145.238 -143.25)" fill="#ccc"/>
</svg>
