<svg id="date-icon" xmlns="http://www.w3.org/2000/svg" width="22" height="20" viewBox="0 0 22 20">
  <path id="Path_72" data-name="Path 72" d="M20,4H19V3a1,1,0,0,0-2,0V4H7V3A1,1,0,0,0,5,3V4H4A3,3,0,0,0,1,7V19a3,3,0,0,0,3,3H20a3,3,0,0,0,3-3V7a3,3,0,0,0-3-3ZM3,7A1,1,0,0,1,4,6H20a1,1,0,0,1,1,1V8H3ZM21,19a1,1,0,0,1-1,1H4a1,1,0,0,1-1-1V10H21Z" transform="translate(-1 -2)" fill="#1d2634" fill-rule="evenodd"/>
  <rect id="Rectangle_4" data-name="Rectangle 4" width="3" height="3" rx="0.8" transform="translate(4 10)" fill="#1d2634"/>
  <rect id="Rectangle_5" data-name="Rectangle 5" width="3" height="3" rx="0.8" transform="translate(9 10)" fill="#1d2634"/>
</svg>
