<svg xmlns="http://www.w3.org/2000/svg" width="28" height="28" viewBox="0 0 28 28">
  <path id="guage" d="M8.551,26.9A14.044,14.044,0,1,1,14,28,13.96,13.96,0,0,1,8.551,26.9ZM9.39,3.087A11.883,11.883,0,1,0,14,2.157,11.815,11.815,0,0,0,9.39,3.087Zm4.129,15.772c-.664-.14-1.058-.675-.88-1.2l1.718-5.032a1.308,1.308,0,0,1,1.524-.691c.664.14,1.058.675.88,1.2l-1.718,5.032a1.235,1.235,0,0,1-1.2.724A1.57,1.57,0,0,1,13.519,18.859ZM7.694,14H5.605a8.395,8.395,0,0,1,16.79,0h-2.09a6.305,6.305,0,1,0-12.61,0h0Z" fill="rgba(250,250,250,0.5)"/>
</svg>
