<svg id="heart_icon_grey" data-name="heart icon_grey" xmlns="http://www.w3.org/2000/svg" width="25" height="22.242" viewBox="0 0 25 22.242">
  <path id="Path_1537" data-name="Path 1537" d="M17.776,18.28a.893.893,0,0,0-1.219-.048q-.682.588-1.41,1.206c-.8.685-1.707,1.455-2.647,2.274-.938-.817-1.84-1.586-2.646-2.273a51.846,51.846,0,0,1-5.989-5.6A7.522,7.522,0,0,1,1.8,8.892,6.021,6.021,0,0,1,3.307,4.776a4.94,4.94,0,0,1,3.677-1.6,4.471,4.471,0,0,1,2.827.98,6.235,6.235,0,0,1,1.23,1.289,1.8,1.8,0,0,0,2.917,0,6.265,6.265,0,0,1,1.231-1.289,4.473,4.473,0,0,1,2.827-.98,4.94,4.94,0,0,1,3.677,1.6A6.017,6.017,0,0,1,23.2,8.892a7.518,7.518,0,0,1-2.065,4.942,23.165,23.165,0,0,1-1.78,1.884.9.9,0,0,0-.02,1.292h0a.9.9,0,0,0,1.255.018,24.973,24.973,0,0,0,1.931-2.045A9.306,9.306,0,0,0,25,8.892a7.812,7.812,0,0,0-1.983-5.336,6.722,6.722,0,0,0-5-2.177,6.288,6.288,0,0,0-3.928,1.356A8.046,8.046,0,0,0,12.5,4.393a8.046,8.046,0,0,0-1.588-1.658A6.286,6.286,0,0,0,6.984,1.379a6.722,6.722,0,0,0-5,2.177A7.812,7.812,0,0,0,0,8.892a9.3,9.3,0,0,0,2.48,6.091,52.847,52.847,0,0,0,6.206,5.826l.005,0c.859.732,1.833,1.562,2.843,2.445a1.467,1.467,0,0,0,1.932,0c1.013-.885,1.988-1.716,2.848-2.449q.732-.624,1.42-1.215a.9.9,0,0,0,.042-1.314Z" transform="translate(0 -1.379)" fill="#ccc"/>
  <path id="Path_1544" data-name="Path 1544" d="M8.937,8.172a10.84,10.84,0,0,0,.838-.888A4.039,4.039,0,0,0,10.852,4.64a3.391,3.391,0,0,0-.861-2.316A2.918,2.918,0,0,0,7.82,1.379a2.729,2.729,0,0,0-1.7.589,3.492,3.492,0,0,0-.689.72,3.492,3.492,0,0,0-.689-.72,2.729,2.729,0,0,0-1.7-.589,2.918,2.918,0,0,0-2.171.945A3.391,3.391,0,0,0,0,4.64,4.038,4.038,0,0,0,1.076,7.284,22.939,22.939,0,0,0,3.77,9.813l0,0c.373.318.8.678,1.234,1.061a.637.637,0,0,0,.839,0c.44-.384.863-.745,1.236-1.063L7.7,9.285C7.87,9.137,8.785,8.318,8.937,8.172Z" transform="translate(7.074 4.915)" fill="#71bc44" opacity="0"/>
</svg>
