<svg xmlns="http://www.w3.org/2000/svg" width="28" height="28" viewBox="0 0 28 28">
  <path id="help" d="M8.55,26.9A14.044,14.044,0,1,1,14,28,13.953,13.953,0,0,1,8.55,26.9ZM9.39,3.087A11.884,11.884,0,1,0,14,2.157,11.8,11.8,0,0,0,9.39,3.087Zm4.138,16.839a.363.363,0,0,1-.273-.117.393.393,0,0,1-.113-.284V18.04a.394.394,0,0,1,.113-.284.365.365,0,0,1,.273-.117h1.593a.393.393,0,0,1,.282.117.381.381,0,0,1,.12.284v1.485a.392.392,0,0,1-.112.284.383.383,0,0,1-.29.117Zm.048-3.155a.32.32,0,0,1-.241-.1.325.325,0,0,1-.1-.233c0-.234.006-.412.016-.534a2.991,2.991,0,0,1,.483-1.386,9.984,9.984,0,0,1,1.11-1.336,9.27,9.27,0,0,0,.813-.935,1.509,1.509,0,0,0,.3-.768,1.173,1.173,0,0,0-.427-1.085,1.81,1.81,0,0,0-1.183-.4,1.769,1.769,0,0,0-1.883,1.619A.461.461,0,0,1,12,12H10.6a.341.341,0,0,1-.266-.117.433.433,0,0,1-.1-.3,3.385,3.385,0,0,1,.539-1.719,3.671,3.671,0,0,1,1.456-1.294,4.792,4.792,0,0,1,2.237-.493,4.8,4.8,0,0,1,2.2.442,2.948,2.948,0,0,1,1.255,1.127,2.912,2.912,0,0,1,.032,2.871,9.463,9.463,0,0,1-1.07,1.419,9.728,9.728,0,0,0-.8.977,2.386,2.386,0,0,0-.378.876q-.064.418-.081.568a.92.92,0,0,1-.177.317.36.36,0,0,1-.273.1Z" fill="rgba(255,255,255,0.5)"/>
</svg>
