<svg xmlns="http://www.w3.org/2000/svg" width="29.594" height="26.947" viewBox="0 0 29.594 26.947">
  <path id="home" d="M18.5,26.947H16.386V20.08H13.216v6.867H4.764V15.854H1.628a1.657,1.657,0,0,1-1.57-.72.7.7,0,0,1,.161-.778C1.1,13.394,12.77,1.127,13.371.507A2.019,2.019,0,0,1,14.8,0a1.978,1.978,0,0,1,1.417.507c1.155,1.212,12.569,13.23,13.122,13.818a.705.705,0,0,1,.2.79,1.748,1.748,0,0,1-1.618.739H24.838V26.947Zm4.226-2.113V13.74h3.169L14.8,2.119,3.707,13.74H6.877V24.834H11.1V17.967h7.4v6.868Z" fill="rgba(255,255,255,0.5)"/>
</svg>
