<?xml version="1.0" encoding="UTF-8"?>
<svg width="20px" height="20px" viewBox="0 0 20 20" version="1.1" xmlns="http://www.w3.org/2000/svg" xmlns:xlink="http://www.w3.org/1999/xlink">
    <title>info-icon</title>
    <defs>
        <path d="M1.96930469,2.25 C2.20172656,2.25 2.4022474,2.1656901 2.57086719,1.99707031 C2.73948698,1.82845052 2.82379687,1.62792969 2.82379687,1.39550781 C2.82379687,1.15397135 2.74176562,0.951171875 2.57770312,0.787109375 C2.41364062,0.623046875 2.21084115,0.541015625 1.96930469,0.541015625 C1.73688281,0.541015625 1.53864062,0.625325521 1.37457812,0.793945312 C1.21051562,0.962565104 1.12848437,1.16308594 1.12848437,1.39550781 C1.12848437,1.62792969 1.21051562,1.82845052 1.37457812,1.99707031 C1.53864062,2.1656901 1.73688281,2.25 1.96930469,2.25 Z M3.83551562,11 L3.83551562,9.7421875 L2.74176562,9.7421875 L2.74176562,3.81542969 L0.205632812,3.81542969 L0.205632812,5.08007812 L1.32672656,5.08007812 L1.32672656,9.7421875 L0.205632812,9.7421875 L0.205632812,11 L3.83551562,11 Z" id="path-1"></path>
    </defs>
    <g id="Admin" stroke="none" stroke-width="1" fill="none" fill-rule="evenodd">
        <g id="info-icon">
            <g id="Ellipse_95">
                <circle id="Oval" cx="10" cy="10" r="10"></circle>
                <circle id="Oval" stroke="#222222" cx="10" cy="10" r="9.5"></circle>
            </g>
            <g id="i" transform="translate(8.000000, 4.000000)" fill-rule="nonzero">
                <g>
                    <use fill="#000000" xlink:href="#path-1"></use>
                    <use stroke-opacity="0" stroke="#000000" stroke-width="1" fill="#222222" xlink:href="#path-1"></use>
                </g>
            </g>
        </g>
    </g>
</svg>