<svg id="interface_icon_white" data-name="interface icon_white" xmlns="http://www.w3.org/2000/svg" width="21.161" height="27.778" viewBox="0 0 21.161 27.778">
  <path id="interface_icon_white-2" data-name="interface icon_white" d="M551.139,334.695l-4.92-5.016a.968.968,0,0,0-.69-.29H531.222a.966.966,0,1,0,0,1.931h13.341v4.191a.966.966,0,0,0,.966.967h3.954v18.758H532.309V333.921a.966.966,0,1,0-1.932,0V356.2a.966.966,0,0,0,.966.966h19.107a.966.966,0,0,0,.967-.966v-20.83A.966.966,0,0,0,551.139,334.695Zm-4.643-.149v-1.827l1.791,1.827Z" transform="translate(-530.255 -329.389)" fill="#fff"/>
</svg>
