<svg id="location_icon_grey" data-name="location icon_grey" xmlns="http://www.w3.org/2000/svg" width="20.226" height="25" viewBox="0 0 20.226 25">
  <path id="Path_1483" data-name="Path 1483" d="M171.86,147.619a1.6,1.6,0,1,1-1.6,1.6,1.6,1.6,0,0,1,1.6-1.6m0-1.8a3.4,3.4,0,1,0,3.4,3.4,3.4,3.4,0,0,0-3.4-3.4Z" transform="translate(-161.747 -139.5)" fill="#ccc"/>
  <path id="Path_1484" data-name="Path 1484" d="M180.158,143.847a10.032,10.032,0,0,0-9.926-4.225,9.606,9.606,0,0,0-4.524,1.943,10.18,10.18,0,0,0-3.321,11.583,7.962,7.962,0,0,0,1.465,2.42l7.343,8.624a.873.873,0,0,0,1.331,0l3.7-4.345a.9.9,0,0,0-.049-1.22h0a.9.9,0,0,0-1.322.053L171.86,162.2l-6.646-7.806a6.193,6.193,0,0,1-1.144-1.879,8.369,8.369,0,0,1,2.5-9.327,7.968,7.968,0,0,1,4.1-1.8,8.326,8.326,0,0,1,8.977,11.149A6.181,6.181,0,0,1,178.5,154.4l-1.17,1.374a.9.9,0,0,0,.048,1.22h0a.9.9,0,0,0,1.322-.053l1.17-1.374a7.957,7.957,0,0,0,1.465-2.416A10.1,10.1,0,0,0,180.158,143.847Z" transform="translate(-161.747 -139.5)" fill="#ccc"/>
</svg>
