<svg id="lock_icon_grey" data-name="lock icon_grey" xmlns="http://www.w3.org/2000/svg" width="20" height="25" viewBox="0 0 20 25">
  <path id="Path_1481" data-name="Path 1481" d="M20.7,16.761V23.2H4.3V11.8H20.7v1.161a.9.9,0,0,0,.9.9h0a.9.9,0,0,0,.9-.9V11a1,1,0,0,0-1-1H19.967L20,7.5a7.5,7.5,0,0,0-15,0L4.967,10H3.5a1,1,0,0,0-1,1V24a1,1,0,0,0,1,1h18a1,1,0,0,0,1-1V16.761a.9.9,0,0,0-.9-.9h0A.9.9,0,0,0,20.7,16.761ZM6.8,7.5a5.7,5.7,0,0,1,11.4-.024l-.033,2.518H6.767Z" transform="translate(-2.5)" fill="#ccc"/>
  <path id="Path_1482" data-name="Path 1482" d="M15.5,16.065a3,3,0,1,0-3.922,2.84v2.021a.9.9,0,0,0,1.8,0V18.919A2.99,2.99,0,0,0,15.5,16.065Zm-3,1.2a1.2,1.2,0,1,1,1.2-1.2A1.2,1.2,0,0,1,12.5,17.265Z" transform="translate(-2.5)" fill="#ccc"/>
</svg>
