<?xml version="1.0" encoding="UTF-8"?>
<svg width="20px" height="10px" viewBox="0 0 20 10" version="1.1" xmlns="http://www.w3.org/2000/svg" xmlns:xlink="http://www.w3.org/1999/xlink">
    <title>metro-lines-icon</title>
    <g id="Admin" stroke="none" stroke-width="1" fill="none" fill-rule="evenodd">
        <g id="metro-lines-icon" fill="#1C283A" fill-rule="nonzero">
            <path d="M0.964,1.928 L18.316,1.928 C18.8484025,1.928 19.28,1.4964025 19.28,0.964 C19.28,0.431597501 18.8484025,0 18.316,0 L0.964,0 C0.431597501,0 0,0.431597501 0,0.964 C0,1.4964025 0.431597501,1.928 0.964,1.928 L0.964,1.928 Z M18.316,3.86 L0.964,3.86 C0.431597501,3.86 0,4.2915975 0,4.824 C0,5.3564025 0.431597501,5.788 0.964,5.788 L18.316,5.788 C18.8484025,5.788 19.28,5.3564025 19.28,4.824 C19.28,4.2915975 18.8484025,3.86 18.316,3.86 L18.316,3.86 Z M18.316,7.716 L0.964,7.716 C0.431597501,7.716 0,8.1475975 0,8.68 C0,9.2124025 0.431597501,9.644 0.964,9.644 L18.316,9.644 C18.8484025,9.644 19.28,9.2124025 19.28,8.68 C19.28,8.1475975 18.8484025,7.716 18.316,7.716 L18.316,7.716 Z" id="Icon_metro-lines"></path>
        </g>
    </g>
</svg>