<svg xmlns="http://www.w3.org/2000/svg" width="24.889" height="25" viewBox="0 0 24.889 25">
  <g id="phone_icon_grey" data-name="phone icon_grey" transform="translate(0 0)">
    <path id="Path_1485" data-name="Path 1485" d="M234.132,258.761l-3.075-3.086a2.611,2.611,0,0,0-1.892-.868,2.7,2.7,0,0,0-1.916.863s-.8.815-1.4,1.36a.985.985,0,0,1-.668.258,1.013,1.013,0,0,1-.56-.168,16.261,16.261,0,0,1-4.733-4.407,13.039,13.039,0,0,1-1.157-1.687,1.01,1.01,0,0,1,.189-1.217c.259-.254.509-.51.755-.759.157-.157.314-.319.47-.476a2.569,2.569,0,0,0,0-3.875l-1.529-1.529c-.173-.174-.352-.353-.52-.532-.336-.348-.689-.706-1.053-1.042a2.649,2.649,0,0,0-1.876-.823,2.74,2.74,0,0,0-1.9.823l-.012.011-1.9,1.921a4.1,4.1,0,0,0-1.215,2.6,9.819,9.819,0,0,0,.717,4.156q.188.506.4,1a.9.9,0,0,0,1.32.371h0a.907.907,0,0,0,.318-1.118q-.187-.437-.352-.88a7.958,7.958,0,0,1-.6-3.492,2.341,2.341,0,0,1,.69-1.375l1.883-1.9a1.019,1.019,0,0,1,.658-.321.887.887,0,0,1,.61.3l.022.022.023.022c.336.31.67.649.96.95.182.193.375.386.562.573l1.529,1.529a.8.8,0,0,1,0,1.33l-.247.25-.232.235-.12.121c-.2.205-.407.413-.618.62a2.814,2.814,0,0,0-.495,3.38,14.908,14.908,0,0,0,1.331,1.942l.353.436a17.017,17.017,0,0,0,4.789,4.341,2.821,2.821,0,0,0,1.547.462,2.783,2.783,0,0,0,1.881-.728c.625-.57,1.437-1.391,1.463-1.418a.954.954,0,0,1,.643-.335.887.887,0,0,1,.617.339l3.084,3.094a.933.933,0,0,1,.329.642,1.084,1.084,0,0,1-.347.694c-.222.232-.448.453-.679.673l-.078.075a13.622,13.622,0,0,0-1,1.039l-.153.155,0,.006a2.431,2.431,0,0,1-1.749.649c-.085,0-.178-.005-.238-.008a11.862,11.862,0,0,1-4.26-1.28,24.564,24.564,0,0,1-8.175-6.4,28.359,28.359,0,0,1-1.868-2.5.9.9,0,0,0-1.258-.266h0a.893.893,0,0,0-.261,1.229,29.715,29.715,0,0,0,2,2.687,26.339,26.339,0,0,0,8.776,6.871,13.675,13.675,0,0,0,4.928,1.457c.118.005.241.011.353.011a4.219,4.219,0,0,0,3.231-1.389c.006-.011.017-.017.023-.028a12.693,12.693,0,0,1,.98-1.014c.241-.229.487-.47.728-.722a2.8,2.8,0,0,0,.846-1.938A2.692,2.692,0,0,0,234.132,258.761Z" transform="translate(-210.106 -240.773)" fill="#ccc"/>
  </g>
</svg>
