<svg id="photo" xmlns="http://www.w3.org/2000/svg" width="25" height="21.269" viewBox="0 0 25 21.269">
  <path id="Path_1460" data-name="Path 1460" d="M136.926,140.186l-5.974,5.974a.956.956,0,1,0,1.352,1.353l5.3-5.3,5.806,5.806a.956.956,0,0,0,1.353-1.352l-6.483-6.482A.955.955,0,0,0,136.926,140.186Z" transform="translate(-127.738 -129.603)" fill="#1c283a"/>
  <path id="Path_1461" data-name="Path 1461" d="M149.432,148.3a.957.957,0,0,0,.728-.335,1,1,0,0,0-.093-1.338l-6.44-6.441a.957.957,0,0,0-1.352,0l-.77.77a.946.946,0,0,0,0,1.339l.013.013a.946.946,0,0,0,1.339,0l.093-.093,5.806,5.805A.953.953,0,0,0,149.432,148.3Z" transform="translate(-127.738 -129.603)" fill="#1c283a"/>
  <circle id="Ellipse_19" data-name="Ellipse 19" cx="1.613" cy="1.613" r="1.613" transform="translate(17.211 5.496)" fill="#1c283a"/>
  <path id="Path_1462" data-name="Path 1462" d="M151.782,132.984a.956.956,0,0,0-.957.956v15.019H129.651V131.516h22.1a.957.957,0,0,0,0-1.913H128.694a.956.956,0,0,0-.956.956v19.357a.956.956,0,0,0,.956.956h23.088a.956.956,0,0,0,.956-.956V133.94A.956.956,0,0,0,151.782,132.984Z" transform="translate(-127.738 -129.603)" fill="#1c283a"/>
</svg>
