<svg xmlns="http://www.w3.org/2000/svg" width="27.778" height="25.829" viewBox="0 0 27.778 25.829">
  <g id="printer_icon_white" data-name="printer icon_white" transform="translate(0)">
    <path id="Path_1409" data-name="Path 1409" d="M588.414,344.767a.975.975,0,0,0-.974.974v7.247h-4.328v-1.154a.974.974,0,0,0-.974-.974H568.7a.973.973,0,0,0-.974.974v1.154H563.56v-9.674h4.162v1.6a.974.974,0,0,0,.974.974h13.441a.974.974,0,0,0,.974-.974v-1.6h5.276a.974.974,0,0,0,0-1.949h-5.274v-9.236a.974.974,0,0,0-.974-.974H568.7a.973.973,0,0,0-.974.974v9.236h-5.137a.975.975,0,0,0-.974.974v11.623a.974.974,0,0,0,.974.974h5.137v1.072a.974.974,0,0,0,.974.974h13.441a.974.974,0,0,0,.974-.974v-1.072h5.3a.974.974,0,0,0,.974-.974v-8.221A.974.974,0,0,0,588.414,344.767ZM569.671,333.1h11.492v10.839H569.671Zm0,21.931v-2.227h11.492v2.227Z" transform="translate(-561.611 -331.155)" fill="#fff"/>
    <circle id="Ellipse_9" data-name="Ellipse 9" cx="0.886" cy="0.886" r="0.886" transform="translate(3.716 15.529)" fill="#fff"/>
  </g>
</svg>
