<svg xmlns="http://www.w3.org/2000/svg" width="25" height="24" viewBox="0 0 25 24">
  <path id="settings" d="M5.209,20.727a3.2,3.2,0,0,1,3.125-3.273,3.276,3.276,0,0,1,0,6.546A3.2,3.2,0,0,1,5.209,20.727Zm2.083,0a1.043,1.043,0,1,0,1.042-1.091A1.068,1.068,0,0,0,7.292,20.727Zm6.25,1.091V19.636H25v2.182ZM0,21.818V19.636H3.125v2.182ZM13.542,12a3.128,3.128,0,1,1,6.25,0,3.128,3.128,0,1,1-6.25,0Zm2.084,0a1.043,1.043,0,1,0,1.042-1.091A1.068,1.068,0,0,0,15.625,12ZM25,13.091H21.875V10.909H25V13.09h0Zm-13.542,0H0V10.909H11.458V13.09h0ZM5.209,3.272A3.2,3.2,0,0,1,8.333,0a3.2,3.2,0,0,1,3.125,3.272A3.205,3.205,0,0,1,8.333,6.545,3.2,3.2,0,0,1,5.209,3.272Zm2.083,0a1.043,1.043,0,1,0,2.083,0,1.043,1.043,0,1,0-2.083,0ZM25,4.364H13.542V2.182H25V4.363h0Zm-21.875,0H0V2.182H3.125V4.363h0Z" fill="#fff"/>
</svg>
