<svg xmlns="http://www.w3.org/2000/svg" width="50.578" height="58.787" viewBox="0 0 50.578 58.787">
  <path id="Union_1" data-name="Union 1" d="M-4055.623-3431.043a3.415,3.415,0,0,1-3.414-3.331c0-.026,0-.052,0-.079v-.353a3.1,3.1,0,0,1,.062-.612h-.055c0-.177-.007-.338-.007-.492a18.875,18.875,0,0,1,1.948-8.348,20.865,20.865,0,0,1,2.286-3.643,22.6,22.6,0,0,1,3.028-3.173,24.524,24.524,0,0,1,3.669-2.619,26.133,26.133,0,0,1,4.21-1.977,28,28,0,0,1,9.649-1.686,27.994,27.994,0,0,1,9.648,1.686,26.094,26.094,0,0,1,4.211,1.977,24.6,24.6,0,0,1,3.668,2.619,22.6,22.6,0,0,1,3.028,3.173,20.851,20.851,0,0,1,2.286,3.643,18.875,18.875,0,0,1,1.948,8.348c0,.173,0,.339-.007.492h-.055a3.137,3.137,0,0,1,.062.612v.353q0,.129-.011.255a3.414,3.414,0,0,1-3.4,3.155Zm39.174-6.829a14.405,14.405,0,0,0-5.073-8.482,19.669,19.669,0,0,0-12.725-4.454,19.671,19.671,0,0,0-12.727,4.454,14.405,14.405,0,0,0-5.073,8.482Zm-25.137-32.635a10.676,10.676,0,0,1-3.135-7.589,10.732,10.732,0,0,1,10.705-10.734,10.731,10.731,0,0,1,10.7,10.734,10.677,10.677,0,0,1-3.135,7.589,10.622,10.622,0,0,1-7.569,3.144A10.622,10.622,0,0,1-4041.586-3470.507Zm3.4-7.647a4.227,4.227,0,0,0,4.21,4.235,4.227,4.227,0,0,0,4.21-4.235,4.226,4.226,0,0,0-4.21-4.234A4.226,4.226,0,0,0-4038.186-3478.154Z" transform="translate(4059.538 3489.33)" fill="#fff" stroke="rgba(0,0,0,0)" stroke-miterlimit="10" stroke-width="1"/>
</svg>
