<svg xmlns="http://www.w3.org/2000/svg" width="25" height="25" viewBox="0 0 25 25">
  <g id="user_icon_grey" data-name="user icon_grey" transform="translate(0 0)">
    <path id="user_icon" data-name="user icon" d="M23.092,8.083a.914.914,0,0,0-.421,1.1,10.653,10.653,0,0,1-1.76,9.913,9.487,9.487,0,0,0-5.837-4.742,5.5,5.5,0,1,0-5.148,0A9.487,9.487,0,0,0,4.089,19.1,10.691,10.691,0,1,1,21.013,6.036a.908.908,0,0,0,1.152.275h0a.906.906,0,0,0,.289-1.35,12.36,12.36,0,1,0,1.925,3.645.908.908,0,0,0-1.287-.523ZM8.869,10.225a3.7,3.7,0,1,1,2.906,2.906A3.708,3.708,0,0,1,8.869,10.225Zm10.7,10.3c-.063.056-.131.1-.2.158-.2.17-.406.335-.62.489-.1.073-.209.14-.314.21-.183.122-.368.242-.558.353-.12.07-.242.133-.364.2-.184.1-.37.192-.559.279-.129.059-.26.115-.391.169-.191.079-.384.151-.58.219-.132.046-.265.091-.4.132-.2.062-.41.114-.618.164-.13.031-.259.064-.39.09-.228.046-.46.079-.692.109-.113.015-.225.036-.339.047a9.955,9.955,0,0,1-2.09,0c-.114-.011-.226-.032-.339-.047-.232-.03-.464-.063-.692-.109-.131-.026-.26-.059-.39-.09-.208-.05-.415-.1-.619-.164-.134-.041-.266-.086-.4-.132q-.3-.1-.583-.22c-.13-.053-.259-.109-.387-.167-.191-.088-.379-.183-.564-.282-.121-.064-.241-.127-.359-.195-.193-.112-.38-.234-.565-.358-.1-.069-.208-.133-.308-.2-.218-.157-.427-.326-.633-.5-.06-.051-.124-.1-.183-.148L5.409,20.5a7.7,7.7,0,0,1,14.182,0Z" transform="translate(0 0)" fill="#ccc"/>
  </g>
</svg>
