<svg xmlns="http://www.w3.org/2000/svg" width="31.761" height="31.761" viewBox="0 0 31.761 31.761">
  <path id="user-circle" d="M15.88,8a15.88,15.88,0,1,0,15.88,15.88A15.878,15.878,0,0,0,15.88,8Zm0,6.147a5.635,5.635,0,1,1-5.635,5.635A5.635,5.635,0,0,1,15.88,14.147Zm0,22.028A12.271,12.271,0,0,1,6.5,31.808a7.139,7.139,0,0,1,6.307-3.829,1.567,1.567,0,0,1,.455.07,8.478,8.478,0,0,0,2.619.442,8.446,8.446,0,0,0,2.619-.442,1.567,1.567,0,0,1,.455-.07,7.139,7.139,0,0,1,6.307,3.829A12.271,12.271,0,0,1,15.88,36.175Z" transform="translate(0 -8)" fill="#9499a2"/>
</svg>
