<?xml version="1.0" encoding="UTF-8"?>
<svg width="42px" height="59px" viewBox="0 0 42 59" version="1.1" xmlns="http://www.w3.org/2000/svg" xmlns:xlink="http://www.w3.org/1999/xlink">
    <title>ss-icons-6</title>
    <g id="Page-2" stroke="none" stroke-width="1" fill="none" fill-rule="evenodd">
        <g id="ss-icons-6" transform="translate(0.000005, 0.000000)" fill="#000000" fill-rule="nonzero">
            <path d="M8.7873125,38.8990918 C12.3966836,41.0267793 16.5306016,42.1514668 20.7421875,42.1514668 C24.9537734,42.1514668 29.0876914,41.0267793 32.6970625,38.8990918 C36.1989199,36.8347832 39.1257578,33.8839766 41.1610273,30.3654102 C41.4707773,29.8300312 41.4707773,29.1698535 41.1610273,28.6344746 C39.1256426,25.1160234 36.1988047,22.1651016 32.6970625,20.100793 C29.0876914,17.9731055 24.9537734,16.848418 20.7421875,16.848418 C16.5306016,16.848418 12.3967988,17.9731055 8.7873125,20.100793 C5.28557031,22.1651016 2.35873242,25.1159082 0.323347656,28.6344746 C0.0135976562,29.1698535 0.0135976562,29.8300312 0.323347656,30.3654102 C2.35873242,33.8839766 5.28545508,36.8347832 8.7873125,38.8990918 Z M14.1119473,29.5 C14.1119473,25.8440742 17.0862617,22.869875 20.7421875,22.869875 C24.3981133,22.869875 27.3724277,25.8441895 27.3724277,29.5 C27.3724277,33.1558105 24.397998,36.1302402 20.7421875,36.1302402 C17.086377,36.1302402 14.1119473,33.1559258 14.1119473,29.5 L14.1119473,29.5 Z" id="Shape"></path>
            <path d="M20.7421875,32.673209 C22.4919063,32.673209 23.9153965,31.2496035 23.9153965,29.5 C23.9153965,27.7503965 22.491791,26.3269063 20.7421875,26.3269063 C18.992584,26.3269063 17.5689785,27.7502813 17.5689785,29.5 C17.5689785,31.2497187 18.9924687,32.673209 20.7421875,32.673209 L20.7421875,32.673209 Z" id="Path"></path>
            <path d="M20.7421875,47.5334883 C19.7875859,47.5334883 19.0136719,48.3074023 19.0136719,49.2620039 L19.0136719,57.2714844 C19.0136719,58.2260859 19.7875859,59 20.7421875,59 C21.6967891,59 22.4707031,58.2260859 22.4707031,57.2714844 L22.4707031,49.2620039 C22.4707031,48.3074023 21.6967891,47.5334883 20.7421875,47.5334883 Z" id="Path"></path>
            <path d="M35.1940762,44.666457 C34.5191484,43.9915293 33.4246523,43.9915293 32.7496094,44.666457 C32.0745664,45.3413848 32.0745664,46.4358809 32.7496094,47.1109238 L38.4131484,52.7744629 C38.7506699,53.1119844 39.1930547,53.2808027 39.6353242,53.2808027 C40.0775938,53.2808027 40.5200938,53.1119844 40.8575,52.7744629 C41.532543,52.0995352 41.532543,51.0050391 40.8575,50.3299961 L35.1940762,44.666457 Z" id="Path"></path>
            <path d="M6.29018359,44.666457 L0.626644531,50.3299961 C-0.0483984375,51.0049238 -0.0483984375,52.0994199 0.626644531,52.7744629 C0.964166016,53.1119844 1.40655078,53.2808027 1.84882031,53.2808027 C2.29108984,53.2808027 2.73358984,53.1119844 3.07099609,52.7744629 L8.73453516,47.1109238 C9.40957813,46.4359961 9.40957813,45.3415 8.73453516,44.666457 C8.05972266,43.9915293 6.96522656,43.9915293 6.29018359,44.666457 Z" id="Path"></path>
            <path d="M20.7421875,11.466627 C21.6967891,11.466627 22.4707031,10.6927129 22.4707031,9.73811133 L22.4707031,1.72851562 C22.4707031,0.773914062 21.6967891,0 20.7421875,0 C19.7875859,0 19.0136719,0.773914063 19.0136719,1.72851562 L19.0136719,9.73811133 C19.0136719,10.6927129 19.7875859,11.466627 20.7421875,11.466627 Z" id="Path"></path>
            <path d="M6.29018359,14.333543 C6.62770508,14.6711797 7.06997461,14.8398828 7.51235938,14.8398828 C7.95462891,14.8398828 8.39712891,14.6710645 8.73453516,14.333543 C9.40957813,13.6586152 9.40957813,12.5641191 8.73453516,11.8890762 L3.07099609,6.22553711 C2.39595313,5.55049414 1.30157227,5.55049414 0.626529297,6.22553711 C-0.0485136719,6.90046484 -0.0485136719,7.99496094 0.626529297,8.67000391 L6.29018359,14.333543 Z" id="Path"></path>
            <path d="M33.9719004,14.8397676 C34.4142852,14.8397676 34.8566699,14.6709492 35.1940762,14.3334277 L40.8576152,8.66988867 C41.5326582,7.99496094 41.5326582,6.90046484 40.8576152,6.22542187 C40.1826875,5.55049414 39.0881914,5.55049414 38.4131484,6.22542187 L32.7496094,11.8890762 C32.0745664,12.5640039 32.0745664,13.6585 32.7496094,14.333543 C33.0871309,14.6709492 33.5295156,14.8397676 33.9719004,14.8397676 Z" id="Path"></path>
        </g>
    </g>
</svg>