<?xml version="1.0" encoding="UTF-8"?>
<svg width="59px" height="59px" viewBox="0 0 59 59" version="1.1" xmlns="http://www.w3.org/2000/svg" xmlns:xlink="http://www.w3.org/1999/xlink">
    <title>ss-icons-3</title>
    <g id="Page-2" stroke="none" stroke-width="1" fill="none" fill-rule="evenodd">
        <g id="ss-icons-3" transform="translate(0.000005, 0.000000)" fill="#000000" fill-rule="nonzero">
            <path d="M54.7857143,-6.21724894e-15 L49.1666667,-6.21724894e-15 C46.8392571,-6.21724894e-15 44.952381,1.88687619 44.952381,4.21428571 L44.952381,9.83333333 C44.952381,12.1607429 46.8392571,14.047619 49.1666667,14.047619 L54.7857143,14.047619 C57.1131238,14.047619 59,12.1607429 59,9.83333333 L59,4.21428571 C59,1.88687619 57.1131238,-6.21724894e-15 54.7857143,-6.21724894e-15 Z" id="XMLID_13_"></path>
            <path d="M32.3095238,-6.21724894e-15 L26.6904762,-6.21724894e-15 C24.3630667,-6.21724894e-15 22.4761905,1.88687619 22.4761905,4.21428571 L22.4761905,9.83333333 C22.4761905,12.1607429 24.3630667,14.047619 26.6904762,14.047619 L32.3095238,14.047619 C34.6369333,14.047619 36.5238095,12.1607429 36.5238095,9.83333333 L36.5238095,4.21428571 C36.5238095,1.88687619 34.6369333,-6.21724894e-15 32.3095238,-6.21724894e-15 Z" id="XMLID_14_"></path>
            <path d="M9.83333333,-6.21724894e-15 L4.21428571,-6.21724894e-15 C1.88687619,-6.21724894e-15 -6.21724894e-15,1.88687619 -6.21724894e-15,4.21428571 L-6.21724894e-15,9.83333333 C-6.21724894e-15,12.1607429 1.88687619,14.047619 4.21428571,14.047619 L9.83333333,14.047619 C12.1607429,14.047619 14.047619,12.1607429 14.047619,9.83333333 L14.047619,4.21428571 C14.047619,1.88687619 12.1607429,-6.21724894e-15 9.83333333,-6.21724894e-15 Z" id="XMLID_15_"></path>
            <path d="M54.7857143,44.952381 L49.1666667,44.952381 C46.8392571,44.952381 44.952381,46.8392571 44.952381,49.1666667 L44.952381,54.7857143 C44.952381,57.1131238 46.8392571,59 49.1666667,59 L54.7857143,59 C57.1131238,59 59,57.1131238 59,54.7857143 L59,49.1666667 C59,46.8392571 57.1131238,44.952381 54.7857143,44.952381 Z" id="XMLID_16_"></path>
            <path d="M32.3095238,44.952381 L26.6904762,44.952381 C24.3630667,44.952381 22.4761905,46.8392571 22.4761905,49.1666667 L22.4761905,54.7857143 C22.4761905,57.1131238 24.3630667,59 26.6904762,59 L32.3095238,59 C34.6369333,59 36.5238095,57.1131238 36.5238095,54.7857143 L36.5238095,49.1666667 C36.5238095,46.8392571 34.6369333,44.952381 32.3095238,44.952381 Z" id="XMLID_17_"></path>
            <path d="M9.83333333,44.952381 L4.21428571,44.952381 C1.88687619,44.952381 -6.21724894e-15,46.8392571 -6.21724894e-15,49.1666667 L-6.21724894e-15,54.7857143 C-6.21724894e-15,57.1131238 1.88687619,59 4.21428571,59 L9.83333333,59 C12.1607429,59 14.047619,57.1131238 14.047619,54.7857143 L14.047619,49.1666667 C14.047619,46.8392571 12.1607429,44.952381 9.83333333,44.952381 Z" id="XMLID_18_"></path>
            <path d="M54.7857143,22.4761905 L49.1666667,22.4761905 C46.8392571,22.4761905 44.952381,24.3630667 44.952381,26.6904762 L44.952381,32.3095238 C44.952381,34.6369333 46.8392571,36.5238095 49.1666667,36.5238095 L54.7857143,36.5238095 C57.1131238,36.5238095 59,34.6369333 59,32.3095238 L59,26.6904762 C59,24.3630667 57.1131238,22.4761905 54.7857143,22.4761905 Z" id="XMLID_19_"></path>
            <path d="M32.3095238,22.4761905 L26.6904762,22.4761905 C24.3630667,22.4761905 22.4761905,24.3630667 22.4761905,26.6904762 L22.4761905,32.3095238 C22.4761905,34.6369333 24.3630667,36.5238095 26.6904762,36.5238095 L32.3095238,36.5238095 C34.6369333,36.5238095 36.5238095,34.6369333 36.5238095,32.3095238 L36.5238095,26.6904762 C36.5238095,24.3630667 34.6369333,22.4761905 32.3095238,22.4761905 Z" id="XMLID_20_"></path>
            <path d="M9.83333333,22.4761905 L4.21428571,22.4761905 C1.88687619,22.4761905 -6.21724894e-15,24.3630667 -6.21724894e-15,26.6904762 L-6.21724894e-15,32.3095238 C-6.21724894e-15,34.6369333 1.88687619,36.5238095 4.21428571,36.5238095 L9.83333333,36.5238095 C12.1607429,36.5238095 14.047619,34.6369333 14.047619,32.3095238 L14.047619,26.6904762 C14.047619,24.3630667 12.1607429,22.4761905 9.83333333,22.4761905 Z" id="XMLID_21_"></path>
        </g>
    </g>
</svg>