<?xml version="1.0" encoding="UTF-8"?>
<svg width="59px" height="59px" viewBox="0 0 59 59" version="1.1" xmlns="http://www.w3.org/2000/svg" xmlns:xlink="http://www.w3.org/1999/xlink">
    <title>ss-icons-5</title>
    <g id="Page-2" stroke="none" stroke-width="1" fill="none" fill-rule="evenodd">
        <g id="ss-icons-5" transform="translate(0.000005, 0.000000)" fill="#000000" fill-rule="nonzero">
            <g id="ui-design">
                <path d="M57.2714844,0 L1.72851562,0 C0.773914062,0 0,0.773914063 0,1.72851562 L0,10.4863281 L59,10.4863281 L59,1.72851562 C59,0.773914062 58.2260859,0 57.2714844,0 Z M39.8710938,6.97167969 C38.9164922,6.97167969 38.1425781,6.19776563 38.1425781,5.24316406 C38.1425781,4.2885625 38.9164922,3.51464844 39.8710938,3.51464844 C40.8256953,3.51464844 41.5996094,4.2885625 41.5996094,5.24316406 C41.5996094,6.19776563 40.8256953,6.97167969 39.8710938,6.97167969 Z M46.7851562,6.97167969 C45.8305547,6.97167969 45.0566406,6.19776563 45.0566406,5.24316406 C45.0566406,4.2885625 45.8305547,3.51464844 46.7851562,3.51464844 C47.7397578,3.51464844 48.5136719,4.2885625 48.5136719,5.24316406 C48.5136719,6.19776563 47.7397578,6.97167969 46.7851562,6.97167969 Z M53.6992188,6.97167969 C52.7446172,6.97167969 51.9707031,6.19776563 51.9707031,5.24316406 C51.9707031,4.2885625 52.7446172,3.51464844 53.6992188,3.51464844 C54.6538203,3.51464844 55.4277344,4.2885625 55.4277344,5.24316406 C55.4277344,6.19776563 54.6538203,6.97167969 53.6992188,6.97167969 Z" id="Shape"></path>
                <path d="M17.4580078,32.6594961 L32.7432715,32.6594961 L32.7432715,31.7817559 C32.7432715,30.2037363 34.695918,29.4505645 35.7548066,30.6234199 L37.5929102,32.6593809 L41.7724609,32.6593809 C43.6469785,32.6593809 45.171875,31.1344844 45.171875,29.2599668 C45.171875,27.3854492 43.6469785,25.8605527 41.7724609,25.8605527 L17.4580078,25.8605527 C15.5834902,25.8605527 14.0585938,27.3854492 14.0585938,29.2599668 C14.0585938,31.1344844 15.5834902,32.6594961 17.4580078,32.6594961 L17.4580078,32.6594961 Z" id="Path"></path>
                <polygon id="Path" points="36.2003027 43.7103574 41.182 41.7942402 36.2003027 36.2760117"></polygon>
                <path d="M0,57.2714844 C0,58.2260859 0.773914063,59 1.72851562,59 L57.2714844,59 C58.2260859,59 59,58.2260859 59,57.2714844 L59,13.9433594 L0,13.9433594 L0,57.2714844 Z M17.4580078,22.4036367 L41.7724609,22.4036367 C45.5531855,22.4036367 48.6289062,25.4793574 48.6289062,29.260082 C48.6289062,33.0408066 45.5531855,36.1165273 41.7724609,36.1165273 L40.7136875,36.1165273 L45.4344941,41.345748 C46.2442461,42.2427324 45.9071855,43.6807422 44.7720117,44.1173652 L41.545334,45.3584395 L42.6346445,48.1906699 C42.9773516,49.0816621 42.5328926,50.0817813 41.6419004,50.4244883 C40.7491797,50.7678867 39.7500977,50.3210078 39.408082,49.4317441 L38.3187715,46.5995137 L35.092209,47.8404727 C33.960377,48.2759434 32.7431562,47.437498 32.7431562,46.2271914 L32.7431562,36.1166426 L17.4580078,36.1166426 C13.6772832,36.1166426 10.6015625,33.0409219 10.6015625,29.2601973 C10.6015625,25.4794727 13.6772832,22.4036367 17.4580078,22.4036367 Z" id="Shape"></path>
            </g>
        </g>
    </g>
</svg>