<?xml version="1.0" encoding="UTF-8"?>
<svg width="67px" height="59px" viewBox="0 0 67 59" version="1.1" xmlns="http://www.w3.org/2000/svg" xmlns:xlink="http://www.w3.org/1999/xlink">
    <title>ss-icons-4</title>
    <g id="Page-2" stroke="none" stroke-width="1" fill="none" fill-rule="evenodd">
        <g id="ss-icons-4" transform="translate(0.000000, 0.129251)" fill="#000000" fill-rule="nonzero">
            <path d="M1.95930259,47.0953437 L53.240899,47.0953437 C53.7008636,47.0953437 54.1453913,46.9344346 54.4979523,46.6411353 C54.9904911,46.2286585 66.2262627,36.5629933 66.9113691,15.6984479 L11.8359811,15.6984479 C11.1534911,34.6378404 0.805859132,43.5399069 0.698324764,43.6287339 C0.0679012608,44.1614346 -0.164043307,45.0315211 0.119575318,45.8057162 C0.401231638,46.577949 1.1352649,47.0953437 1.95930259,47.0953437 L1.95930259,47.0953437 Z" id="Path"></path>
            <path d="M65.0146041,3.92461197 L55.2030742,3.92461197 L55.2030742,1.96230599 C55.2030742,0.863414634 54.3396596,-8.8817842e-15 53.2407682,-8.8817842e-15 C52.1418769,-8.8817842e-15 51.2784622,0.863414634 51.2784622,1.96230599 L51.2784622,3.92461197 L41.3361119,3.92461197 L41.3361119,1.96230599 C41.3361119,0.863414634 40.4726973,-8.8817842e-15 39.3738059,-8.8817842e-15 C38.2749146,-8.8817842e-15 37.4114999,0.863414634 37.4114999,1.96230599 L37.4114999,3.92461197 L27.59997,3.92461197 L27.59997,1.96230599 C27.59997,0.863414634 26.7365554,-8.8817842e-15 25.637664,-8.8817842e-15 C24.5387727,-8.8817842e-15 23.675358,0.863414634 23.675358,1.96230599 L23.675358,3.92461197 L13.8638281,3.92461197 C12.7649367,3.92461197 11.9015221,4.78802661 11.9015221,5.88691796 L11.9015221,11.7738359 L66.9769101,11.7738359 L66.9769101,5.88691796 C66.9769101,4.78802661 66.1134955,3.92461197 65.0146041,3.92461197 Z" id="Path"></path>
            <path d="M57.0179456,49.6498736 C55.9524135,50.5370976 54.6149057,51.0200865 53.240899,51.0200865 L11.9016529,51.0200865 L11.9016529,56.9070044 C11.9016529,57.9916364 12.779327,58.8693104 13.8639589,58.8693104 L65.014735,58.8693104 C66.0993669,58.8693104 66.977041,57.9916364 66.977041,56.9070044 L66.977041,34.9100776 C63.193715,44.1919157 57.914327,48.8996186 57.0179456,49.6498736 Z" id="Path"></path>
        </g>
    </g>
</svg>