<?xml version="1.0" encoding="UTF-8"?>
<svg width="59px" height="59px" viewBox="0 0 59 59" version="1.1" xmlns="http://www.w3.org/2000/svg" xmlns:xlink="http://www.w3.org/1999/xlink">
    <title>ss-icons-12</title>
    <g id="Page-2" stroke="none" stroke-width="1" fill="none" fill-rule="evenodd">
        <g id="ss-icons-12" transform="translate(0.000005, 0.000000)" fill="#000000" fill-rule="nonzero">
            <path d="M53.7466953,47.4089199 L52.9450098,47.4089199 C56.8717363,42.2905547 59,36.0593711 59,29.5 C59,21.6202734 55.9314238,14.2122012 50.3597266,8.64027344 C44.7877988,3.06857617 37.3797266,-2.48689958e-14 29.5,-2.48689958e-14 C25.5181914,-2.48689958e-14 21.6547285,0.780251953 18.0167793,2.31897656 C17.137541,2.69083789 16.7263848,3.70513086 17.0981309,4.58425391 C17.4701074,5.46349219 18.483709,5.87464844 19.3635234,5.50290234 C22.5730313,4.14532617 25.9833926,3.45703125 29.5,3.45703125 C43.8601621,3.45703125 55.5429688,15.1398379 55.5429688,29.5 C55.5429688,34.9110605 53.9034141,40.0697578 50.859959,44.4097148 C50.7988848,43.510541 50.052166,42.7995449 49.1374355,42.7995449 C48.182834,42.7995449 47.4089199,43.573459 47.4089199,44.5280605 L47.4089199,49.1374355 C47.4089199,50.0920371 48.182834,50.8659512 49.1374355,50.8659512 L53.7466953,50.8659512 C54.7012969,50.8659512 55.4752109,50.0920371 55.4752109,49.1374355 C55.4752109,48.182834 54.7012969,47.4089199 53.7466953,47.4089199 L53.7466953,47.4089199 Z" id="Path"></path>
            <path d="M39.6364766,53.4970977 C36.4269687,54.8546738 33.0166074,55.5429687 29.5,55.5429687 C15.1398379,55.5429687 3.45703125,43.8601621 3.45703125,29.5 C3.45703125,24.0897461 5.09750781,18.9325469 8.14015625,14.5930508 C8.20261328,15.490957 8.94887109,16.2004551 9.86256445,16.2004551 C10.817166,16.2004551 11.5910801,15.426541 11.5910801,14.4719395 L11.5910801,9.86256445 C11.5910801,8.90796289 10.817166,8.13404883 9.86256445,8.13404883 L5.25318945,8.13404883 C4.29858789,8.13404883 3.52467383,8.90796289 3.52467383,9.86256445 C3.52467383,10.817166 4.29858789,11.5910801 5.25318945,11.5910801 L6.05833203,11.5910801 C2.13045312,16.7094453 -1.42108547e-14,22.9400527 -1.42108547e-14,29.5 C-1.42108547e-14,37.3797266 3.06857617,44.7877988 8.64027344,50.3597266 C14.2122012,55.9314238 21.6202734,59 29.5,59 C33.4818086,59 37.3452715,58.219748 40.9832207,56.6810234 C41.862459,56.3091621 42.2736152,55.2948691 41.9018691,54.4157461 C41.5300078,53.5363926 40.5160605,53.1251211 39.6364766,53.4970977 Z" id="Path"></path>
            <path d="M44.8171836,37.483668 C45.2876855,36.5844941 45.6760254,35.6494824 45.9794375,34.6855469 L47.9375,34.6855469 C48.8921016,34.6855469 49.6660156,33.9116328 49.6660156,32.9570312 L49.6660156,26.0429688 C49.6660156,25.0883672 48.8921016,24.3144531 47.9375,24.3144531 L45.9794375,24.3144531 C45.6760254,23.3505176 45.2876855,22.4155059 44.8171836,21.516332 L46.2040293,20.1294863 C46.8790723,19.4544434 46.8790723,18.3600625 46.2040293,17.6850195 L41.3149805,12.7959707 C40.6400527,12.1209277 39.5455566,12.1209277 38.8705137,12.7959707 L37.483668,14.1828164 C36.5846094,13.7124297 35.6493672,13.3238594 34.6855469,13.0205625 L34.6855469,11.0625 C34.6855469,10.1078984 33.9116328,9.33398438 32.9570312,9.33398438 L26.0429688,9.33398438 C25.0883672,9.33398438 24.3144531,10.1078984 24.3144531,11.0625 L24.3144531,13.0205625 C23.3506328,13.3239746 22.4153906,13.7124297 21.516332,14.1828164 L20.1294863,12.7959707 C19.8054473,12.4718164 19.3657129,12.2896309 18.9073105,12.2896309 C18.4489082,12.2896309 18.0091738,12.4718164 17.6851348,12.7959707 L12.7962012,17.6850195 C12.1211582,18.3600625 12.1211582,19.4544434 12.7962012,20.1294863 L14.1829316,21.516332 C13.7124297,22.4155059 13.3240898,23.3505176 13.0206777,24.3145684 L11.0625,24.3145684 C10.1078984,24.3145684 9.33398438,25.0884824 9.33398438,26.043084 L9.33398438,32.9571465 C9.33398438,33.911748 10.1078984,34.6856621 11.0625,34.6856621 L13.0205625,34.6856621 C13.3239746,35.6497129 13.7123145,36.5847246 14.1828164,37.4838984 L12.7960859,38.8706289 C12.121043,39.5456719 12.121043,40.6400527 12.7960859,41.3150957 L17.6850195,46.2041445 C18.0090586,46.5282988 18.448793,46.7104844 18.9071953,46.7104844 C19.3655977,46.7104844 19.805332,46.5282988 20.1293711,46.2041445 L21.5162168,44.8172988 C22.4152754,45.2876855 23.3505176,45.6761406 24.3143379,45.9795527 L24.3143379,47.9375 C24.3143379,48.8921016 25.088252,49.6660156 26.0428535,49.6660156 L32.956916,49.6660156 C33.9115176,49.6660156 34.6854316,48.8921016 34.6854316,47.9375 L34.6854316,45.9794375 C35.6493672,45.6760254 36.5843789,45.2875703 37.4835527,44.8171836 L38.8703984,46.2040293 C39.5453262,46.8790723 40.6398223,46.8790723 41.3148652,46.2040293 L46.2039141,41.3149805 C46.878957,40.6399375 46.878957,39.5455566 46.2039141,38.8705137 L44.8171836,37.483668 Z M29.5,38.71875 C24.4167812,38.71875 20.28125,34.5832188 20.28125,29.5 C20.28125,24.4167812 24.4167812,20.28125 29.5,20.28125 C34.5832188,20.28125 38.71875,24.4167812 38.71875,29.5 C38.71875,34.5832188 34.5832188,38.71875 29.5,38.71875 Z" id="Shape"></path>
        </g>
    </g>
</svg>