<?xml version="1.0" encoding="UTF-8"?>
<svg width="59px" height="59px" viewBox="0 0 59 59" version="1.1" xmlns="http://www.w3.org/2000/svg" xmlns:xlink="http://www.w3.org/1999/xlink">
    <title>ss-icons-2</title>
    <g id="Page-2" stroke="none" stroke-width="1" fill="none" fill-rule="evenodd">
        <g id="ss-icons-2" transform="translate(0.036650, 0.000000)" fill="#000000" fill-rule="nonzero">
            <path d="M57.1903594,55.5272969 L56.4916934,55.5279883 L5.56881641,55.5279883 L3.47270313,55.5272969 L3.47270313,1.73635156 C3.47270313,0.777371094 2.6952168,3.55271368e-15 1.73635156,3.55271368e-15 C0.777486328,3.55271368e-15 3.55271368e-15,0.777371094 3.55271368e-15,1.73635156 L3.55271368e-15,57.2636484 C3.55271368e-15,58.2226289 0.777371094,59 1.73635156,59 L57.1904746,59 C58.1494551,59 58.9268262,58.2226289 58.9268262,57.2636484 C58.9268262,56.304668 58.1493398,55.5272969 57.1903594,55.5272969 Z" id="XMLID_2209_"></path>
            <path d="M8.63024805,12.5699961 L8.63024805,52.0554004 L12.1029512,52.0554004 L12.1029512,12.5699961 C11.5479824,12.7146152 10.9661641,12.7920527 10.3665996,12.7920527 C9.76691992,12.7920527 9.1852168,12.7147305 8.63024805,12.5699961 Z" id="XMLID_2208_"></path>
            <path d="M19.8301074,29.7434902 C19.2298516,29.7361152 18.6481484,29.6516484 18.0938711,29.4994238 L18.0938711,52.0554004 L21.5665742,52.0554004 L21.5665742,29.5441348 C21.0371875,29.6749258 20.484293,29.7456797 19.9150352,29.7456797 C19.8865723,29.7456797 19.8584551,29.7438359 19.8301074,29.7434902 L19.8301074,29.7434902 Z" id="XMLID_2207_"></path>
            <path d="M27.7271191,15.9415234 L27.7271191,52.0554004 L31.1998223,52.0554004 L31.1998223,15.9415234 C30.6448535,16.0861426 30.0630352,16.1635801 29.4634707,16.1635801 C28.863791,16.1635801 28.2819727,16.0861426 27.7271191,15.9415234 L27.7271191,15.9415234 Z" id="XMLID_2206_"></path>
            <path d="M37.2754395,45.3869023 L37.2754395,52.0554004 L40.7481426,52.0554004 L40.7481426,45.3869023 C40.1931738,45.5315215 39.6113555,45.608959 39.011791,45.608959 C38.4122266,45.608959 37.8304082,45.5315215 37.2754395,45.3869023 L37.2754395,45.3869023 Z" id="XMLID_2205_"></path>
            <path d="M46.823875,21.1342148 L46.823875,52.0554004 L50.2965781,52.0554004 L50.2965781,21.1342148 C49.7416094,21.278834 49.159791,21.3562715 48.5602266,21.3562715 C47.9605469,21.3562715 47.3788438,21.278834 46.823875,21.1342148 L46.823875,21.1342148 Z" id="XMLID_2204_"></path>
            <circle id="XMLID_22_" cx="10.3664844" cy="5.90426367" r="3.41508594"></circle>
            <circle id="XMLID_21_" cx="19.9149199" cy="22.8578906" r="3.41508594"></circle>
            <path d="M29.4633555,12.690877 C31.3495117,12.690877 32.8785566,11.161832 32.8785566,9.27579102 C32.8785566,7.38963477 31.3495117,5.86070508 29.4633555,5.86070508 C27.5771992,5.86070508 26.0482695,7.38975 26.0482695,9.27579102 C26.0482695,11.161832 27.5771992,12.690877 29.4633555,12.690877 Z" id="XMLID_20_"></path>
            <path d="M39.011791,42.1362559 C40.8979473,42.1362559 42.4269922,40.6072109 42.4269922,38.7211699 C42.4269922,36.8350137 40.8979473,35.306084 39.011791,35.306084 C37.1256348,35.306084 35.5967051,36.8351289 35.5967051,38.7211699 C35.5967051,40.6072109 37.1256348,42.1362559 39.011791,42.1362559 Z" id="XMLID_19_"></path>
            <path d="M48.5602266,17.8835684 C50.4463828,17.8835684 51.9754277,16.3545234 51.9754277,14.4684824 C51.9754277,12.5823262 50.4463828,11.0533965 48.5602266,11.0533965 C46.6740703,11.0533965 45.1451406,12.5824414 45.1451406,14.4684824 C45.1451406,16.3545234 46.6740703,17.8835684 48.5602266,17.8835684 Z" id="XMLID_18_"></path>
        </g>
    </g>
</svg>