<?xml version="1.0" encoding="UTF-8"?>
<svg width="59px" height="59px" viewBox="0 0 59 59" version="1.1" xmlns="http://www.w3.org/2000/svg" xmlns:xlink="http://www.w3.org/1999/xlink">
    <title>ss-icons-8</title>
    <g id="Page-2" stroke="none" stroke-width="1" fill="none" fill-rule="evenodd">
        <g id="ss-icons-8" transform="translate(0.000005, 0.000000)" fill="#000000" fill-rule="nonzero">
            <g id="family-tree">
                <g id="Group" transform="translate(35.261719, 0.000000)">
                    <circle id="Oval" cx="6.9140625" cy="4.03320312" r="4.03320312"></circle>
                    <path d="M11.5842813,9.8828457 C10.3025293,10.9082012 8.67922266,11.5234375 6.9140625,11.5234375 C5.14890234,11.5234375 3.5255957,10.9082012 2.24384375,9.8828457 C0.864949219,11.1468516 0,12.9624844 0,14.9804688 L0,16.7089844 C0,17.6635859 0.773914063,18.4375 1.72851562,18.4375 L12.0996094,18.4375 C13.0542109,18.4375 13.828125,17.6635859 13.828125,16.7089844 L13.828125,14.9804688 C13.828125,12.9624844 12.9631758,11.1468516 11.5842813,9.8828457 Z" id="Path"></path>
                </g>
                <g id="Group" transform="translate(9.910156, 0.000000)">
                    <circle id="Oval" cx="6.9140625" cy="4.03320312" r="4.03320312"></circle>
                    <path d="M11.5842812,9.8828457 C10.3025293,10.9082012 8.67922266,11.5234375 6.9140625,11.5234375 C5.14890234,11.5234375 3.5255957,10.9082012 2.24384375,9.8828457 C0.864949219,11.1468516 0,12.9624844 0,14.9804688 L0,16.7089844 C0,17.6635859 0.773914062,18.4375 1.72851562,18.4375 L12.0996094,18.4375 C13.0542109,18.4375 13.828125,17.6635859 13.828125,16.7089844 L13.828125,14.9804688 C13.828125,12.9624844 12.9631758,11.1468516 11.5842812,9.8828457 Z" id="Path"></path>
                </g>
                <g id="Group" transform="translate(45.171875, 40.562500)">
                    <circle id="Oval" cx="6.9140625" cy="4.03320312" r="4.03320312"></circle>
                    <path d="M11.5842813,9.8828457 C10.3025293,10.9082012 8.67922266,11.5234375 6.9140625,11.5234375 C5.14890234,11.5234375 3.5255957,10.9082012 2.24384375,9.8828457 C0.864949219,11.1468516 0,12.9624844 0,14.9804688 L0,16.7089844 C0,17.6635859 0.773914063,18.4375 1.72851562,18.4375 L12.0996094,18.4375 C13.0542109,18.4375 13.828125,17.6635859 13.828125,16.7089844 L13.828125,14.9804688 C13.828125,12.9624844 12.9631758,11.1468516 11.5842813,9.8828457 Z" id="Path"></path>
                </g>
                <g id="Group" transform="translate(0.000000, 40.562500)">
                    <circle id="Oval" cx="6.9140625" cy="4.03320312" r="4.03320312"></circle>
                    <path d="M11.5842812,9.8828457 C10.3025293,10.9082012 8.67922266,11.5234375 6.9140625,11.5234375 C5.14890234,11.5234375 3.5255957,10.9082012 2.24384375,9.8828457 C0.864949219,11.1468516 8.18789481e-16,12.9624844 8.18789481e-16,14.9804688 L8.18789481e-16,16.7089844 C8.18789481e-16,17.6635859 0.773914063,18.4375 1.72851563,18.4375 L12.0996094,18.4375 C13.0542109,18.4375 13.828125,17.6635859 13.828125,16.7089844 L13.828125,14.9804688 C13.828125,12.9624844 12.9631758,11.1468516 11.5842812,9.8828457 Z" id="Path"></path>
                </g>
                <g id="Group" transform="translate(22.585938, 40.562500)">
                    <circle id="Oval" cx="6.9140625" cy="4.03320312" r="4.03320312"></circle>
                    <path d="M11.5842813,9.8828457 C10.3025293,10.9082012 8.67922266,11.5234375 6.9140625,11.5234375 C5.14890234,11.5234375 3.5255957,10.9082012 2.24384375,9.8828457 C0.864949219,11.1468516 0,12.9624844 0,14.9804688 L0,16.7089844 C0,17.6635859 0.773914063,18.4375 1.72851562,18.4375 L12.0996094,18.4375 C13.0542109,18.4375 13.828125,17.6635859 13.828125,16.7089844 L13.828125,14.9804688 C13.828125,12.9624844 12.9631758,11.1468516 11.5842813,9.8828457 Z" id="Path"></path>
                </g>
                <path d="M53.8144531,37.3089727 L53.8144531,29.5 C53.8144531,28.5453984 53.0405391,27.7714844 52.0859375,27.7714844 L43.9042969,27.7714844 L43.9042969,21.8945312 L40.4472656,21.8945312 L40.4472656,27.7714844 L18.5527344,27.7714844 L18.5527344,21.8945312 L15.0957031,21.8945312 L15.0957031,27.7714844 L6.9140625,27.7714844 C5.95946094,27.7714844 5.18554688,28.5453984 5.18554688,29.5 L5.18554688,37.3089727 C5.74086133,37.1772598 6.31910742,37.1054688 6.9140625,37.1054688 C7.50901758,37.1054688 8.08726367,37.1772598 8.64257812,37.3089727 L8.64257812,31.2285156 L27.7714844,31.2285156 L27.7714844,37.3089727 C28.3267988,37.1772598 28.9050449,37.1054688 29.5,37.1054688 C30.0949551,37.1054688 30.6732012,37.1772598 31.2285156,37.3089727 L31.2285156,31.2285156 L50.3574219,31.2285156 L50.3574219,37.3089727 C50.9127363,37.1772598 51.4909824,37.1054688 52.0859375,37.1054688 C52.6808926,37.1054688 53.2591387,37.1772598 53.8144531,37.3089727 Z" id="Path"></path>
            </g>
        </g>
    </g>
</svg>