<?xml version="1.0" encoding="UTF-8"?>
<svg width="59px" height="59px" viewBox="0 0 59 59" version="1.1" xmlns="http://www.w3.org/2000/svg" xmlns:xlink="http://www.w3.org/1999/xlink">
    <title>ss-icons-1</title>
    <g id="Page-2" stroke="none" stroke-width="1" fill="none" fill-rule="evenodd">
        <g id="ss-icons-1" transform="translate(0.000005, 0.000000)" fill="#000000" fill-rule="nonzero">
            <polygon id="Path" points="27.7714844 32.9570312 31.2285156 32.9570312 31.2285156 41.7148438 27.7714844 41.7148438"></polygon>
            <path d="M8.7578125,38.1425781 L22.5859375,38.1425781 C23.5400781,38.1425781 24.3144531,37.3682031 24.3144531,36.4140625 L24.3144531,32.9570312 L20.8574219,32.9570312 L20.8574219,34.6855469 L7.02929688,34.6855469 C6.07515625,34.6855469 5.30078125,35.4599219 5.30078125,36.4140625 L5.30078125,41.7148438 L8.7578125,41.7148438 L8.7578125,38.1425781 Z" id="Path"></path>
            <path d="M50.2421875,41.7148438 L53.6992188,41.7148438 L53.6992188,36.4140625 C53.6992188,35.4599219 52.9248437,34.6855469 51.9707031,34.6855469 L38.1425781,34.6855469 L38.1425781,32.9570312 L34.6855469,32.9570312 L34.6855469,36.4140625 C34.6855469,37.3682031 35.4599219,38.1425781 36.4140625,38.1425781 L50.2421875,38.1425781 L50.2421875,41.7148438 Z" id="Path"></path>
            <path d="M34.6855469,45.171875 L24.3144531,45.171875 C23.3598516,45.171875 22.5859375,45.9457891 22.5859375,46.9003906 L22.5859375,57.2714844 C22.5859375,58.2260859 23.3598516,59 24.3144531,59 L34.6855469,59 C35.6401484,59 36.4140625,58.2260859 36.4140625,57.2714844 L36.4140625,46.9003906 C36.4140625,45.9457891 35.6401484,45.171875 34.6855469,45.171875 Z" id="Path"></path>
            <path d="M57.2714844,45.171875 L46.9003906,45.171875 C45.9457891,45.171875 45.171875,45.9457891 45.171875,46.9003906 L45.171875,57.2714844 C45.171875,58.2260859 45.9457891,59 46.9003906,59 L57.2714844,59 C58.2260859,59 59,58.2260859 59,57.2714844 L59,46.9003906 C59,45.9457891 58.2260859,45.171875 57.2714844,45.171875 Z" id="Path"></path>
            <path d="M18.0039883,29.6706621 L41.8719082,29.6706621 L41.8719082,29.6692793 C45.9281582,29.6396641 49.207498,26.3435 49.207498,22.2803359 C49.207498,17.6766074 45.0271406,14.1587324 40.4451914,15.0191875 C42.832502,7.59751758 37.2855801,1.42108547e-14 29.5,1.42108547e-14 C22.4566445,1.42108547e-14 17.0685156,6.2757793 18.1371992,13.2511465 C13.5005137,13.1787793 9.79261719,16.9151387 9.79261719,21.4591758 C9.79261719,25.9943398 13.4689395,29.6706621 18.0039883,29.6706621 Z" id="Path"></path>
            <path d="M12.0996094,45.171875 L1.72851562,45.171875 C0.773914062,45.171875 0,45.9457891 0,46.9003906 L0,57.2714844 C0,58.2260859 0.773914063,59 1.72851562,59 L12.0996094,59 C13.0542109,59 13.828125,58.2260859 13.828125,57.2714844 L13.828125,46.9003906 C13.828125,45.9457891 13.0542109,45.171875 12.0996094,45.171875 Z" id="Path"></path>
        </g>
    </g>
</svg>