<?xml version="1.0" encoding="UTF-8"?>
<svg width="59px" height="59px" viewBox="0 0 59 59" version="1.1" xmlns="http://www.w3.org/2000/svg" xmlns:xlink="http://www.w3.org/1999/xlink">
    <title>ss-icons-11</title>
    <g id="Page-2" stroke="none" stroke-width="1" fill="none" fill-rule="evenodd">
        <g id="ss-icons-11" transform="translate(0.000005, 0.000000)" fill="#000000" fill-rule="nonzero">
            <path d="M29.5,0 C17.11,0 7.02929688,10.3111719 7.02929688,22.7011719 C7.02929688,34.8473359 7.02929688,31.319666 7.02929688,43.4433594 C7.02929688,46.3027852 9.35541797,48.6289062 12.2148438,48.6289062 C15.0742695,48.6289062 17.4003906,46.3027852 17.4003906,43.4433594 L17.4003906,26.1582031 C17.4003906,23.2987773 15.0742695,20.9726562 12.2148438,20.9726562 C11.6324492,20.9726562 11.0819746,21.0906562 10.5589258,21.2684629 C11.2961953,11.4529141 19.4993848,3.45703125 29.5,3.45703125 C39.5006152,3.45703125 47.7038047,11.4529141 48.4410742,21.2684629 C47.9180254,21.0906562 47.3675508,20.9726562 46.7851562,20.9726562 C43.9257305,20.9726562 41.5996094,23.2987773 41.5996094,26.1582031 L41.5996094,43.4433594 C41.5996094,45.6938867 43.0490273,47.5945625 45.0566406,48.3105137 L45.0566406,50.3574219 C45.0566406,51.3111016 44.2818047,52.0859375 43.328125,52.0859375 L34.3671543,52.0859375 C33.6512031,50.0783242 31.7505273,48.6289062 29.5,48.6289062 C26.6405742,48.6289062 24.3144531,50.9550273 24.3144531,53.8144531 C24.3144531,56.6738789 26.6405742,59 29.5,59 C31.7505273,59 33.6512031,57.550582 34.3671543,55.5429688 L43.328125,55.5429688 C46.1875508,55.5429688 48.5136719,53.2168477 48.5136719,50.3574219 L48.5136719,48.3105137 C50.5212852,47.5945625 51.9707031,45.6938867 51.9707031,43.4433594 C51.9707031,31.319666 51.9707031,34.8472207 51.9707031,22.7011719 C51.9707031,10.3111719 41.89,0 29.5,0 Z" id="Path"></path>
            <path d="M0,29.6152344 L0,39.9863281 C0,42.2368555 1.56465234,44.1375312 3.57226562,44.8534824 L3.57226562,24.7480801 C1.56465234,25.4640312 0,27.364707 0,29.6152344 Z" id="Path"></path>
            <path d="M55.4277344,24.7480801 L55.4277344,44.8534824 C57.4353477,44.1375312 59,42.2368555 59,39.9863281 L59,29.6152344 C59,27.364707 57.4353477,25.4640313 55.4277344,24.7480801 Z" id="Path"></path>
        </g>
    </g>
</svg>