<?xml version="1.0" encoding="UTF-8"?>
<svg width="59px" height="52px" viewBox="0 0 59 52" version="1.1" xmlns="http://www.w3.org/2000/svg" xmlns:xlink="http://www.w3.org/1999/xlink">
    <title>ss-icons-9</title>
    <g id="Page-2" stroke="none" stroke-width="1" fill="none" fill-rule="evenodd">
        <g id="ss-icons-9" transform="translate(0.000005, 0.029297)" fill="#000000" fill-rule="nonzero">
            <path d="M36.7711738,28.0956387 C36.7711738,32.3846621 40.2604707,35.873959 44.5494941,35.873959 C48.8385176,35.873959 52.3278145,32.3846621 52.3278145,28.0956387 C52.3278145,23.8066152 48.8384023,20.3173184 44.5494941,20.3173184 C40.2605859,20.3173184 36.7711738,23.8066152 36.7711738,28.0956387 Z" id="Path"></path>
            <path d="M53.8144531,37.5991328 L35.2845352,37.5991328 C32.4252246,37.5991328 30.0989883,39.9253691 30.0989883,42.7846797 L30.0989883,50.2421875 C30.0989883,51.1967891 30.8729023,51.9707031 31.8275039,51.9707031 L57.2714844,51.9707031 C58.2260859,51.9707031 59,51.1967891 59,50.2421875 L59,42.7846797 C59,39.9253691 56.6737637,37.5991328 53.8144531,37.5991328 Z" id="Path"></path>
            <path d="M23.7154648,10.2166797 L5.18554687,10.2166797 C2.32623633,10.2166797 -2.84217094e-14,12.542916 -2.84217094e-14,15.4022266 L-2.84217094e-14,22.8597344 C-2.84217094e-14,23.8143359 0.773914062,24.58825 1.72851562,24.58825 L27.1724961,24.58825 C28.1270977,24.58825 28.9010117,23.8143359 28.9010117,22.8597344 L28.9010117,15.4022266 C28.9010117,12.542916 26.5747754,10.2166797 23.7154648,10.2166797 L23.7154648,10.2166797 Z" id="Path"></path>
            <path d="M24.3144531,41.3691406 L15.671875,41.3691406 L15.671875,33.557748 C16.1087285,33.9093281 16.5006406,34.6855469 17.515625,34.6855469 C17.9580098,34.6855469 18.4003945,34.5167285 18.7378008,34.179207 C19.4128437,33.5042793 19.4128437,32.4097832 18.7378008,31.7347402 L15.1657656,28.1627051 C14.4854219,27.4823613 13.3878145,27.4956133 12.7207227,28.1627051 L9.26392187,31.6195059 C8.58887891,32.2944336 8.58887891,33.3889297 9.26392187,34.0639727 C9.93884961,34.7389004 11.0333457,34.7389004 11.7083887,34.0639727 L12.2147285,33.5576328 L12.2147285,43.0976562 C12.2147285,44.0522578 12.9886426,44.8261719 13.9432441,44.8261719 L24.3143379,44.8261719 C25.2689395,44.8261719 26.0428535,44.0522578 26.0428535,43.0976562 C26.0428535,42.1430547 25.2690547,41.3691406 24.3144531,41.3691406 L24.3144531,41.3691406 Z" id="Path"></path>
            <path d="M34.109375,3.45703125 L42.7519531,3.45703125 L42.7519531,11.2684238 L42.1303789,10.6468496 C41.4554512,9.97192187 40.3609551,9.97192187 39.6859121,10.6468496 C39.0108691,11.3217773 39.0108691,12.4162734 39.6859121,13.0913164 L43.2579473,16.6633516 C43.9377148,17.3435801 45.0334785,17.3333242 45.7029902,16.6633516 L49.159791,13.2065508 C49.834834,12.531623 49.834834,11.437127 49.159791,10.762084 C48.4848633,10.0871562 47.3903672,10.0871562 46.7153242,10.762084 L46.2089844,11.2684238 L46.2089844,1.72851562 C46.2089844,0.773914062 45.4350703,-1.42108547e-14 44.4804688,-1.42108547e-14 L34.109375,-1.42108547e-14 C33.1547734,-1.42108547e-14 32.3808594,0.773914062 32.3808594,1.72851562 C32.3808594,2.68311719 33.1547734,3.45703125 34.109375,3.45703125 L34.109375,3.45703125 Z" id="Path"></path>
        </g>
    </g>
</svg>