<?xml version="1.0" encoding="UTF-8"?>
<svg width="52px" height="40px" viewBox="0 0 52 40" version="1.1" xmlns="http://www.w3.org/2000/svg" xmlns:xlink="http://www.w3.org/1999/xlink">
    <title>ss-icons-10</title>
    <g id="Page-2" stroke="none" stroke-width="1" fill="none" fill-rule="evenodd">
        <g id="ss-icons-10" transform="translate(0.000005, 0.244141)" fill="#000000" fill-rule="nonzero">
            <path d="M38.0273438,12.0996094 C30.3901855,12.0996094 24.1992188,18.2905762 24.1992188,25.9277344 C24.1992188,33.5646621 30.3901855,39.7558594 38.0273438,39.7558594 C45.664502,39.7558594 51.8554688,33.5646621 51.8554688,25.9277344 C51.8554688,18.2905762 45.664502,12.0996094 38.0273438,12.0996094 Z M40.9237598,32.1484316 C40.5493633,32.3355723 40.156875,32.482957 39.7552832,32.5945039 L39.7552832,33.0721504 C39.7552832,34.026752 38.9813691,34.800666 38.0267676,34.800666 C37.072166,34.800666 36.298252,34.026752 36.298252,33.0721504 L36.298252,32.6485488 C35.5787285,32.4674004 34.9077188,32.1628359 34.3392676,31.736584 C33.5756094,31.1638691 33.4207344,30.0804355 33.9935645,29.3166621 C34.5663945,28.5531191 35.6498281,28.3981289 36.4134863,28.970959 C37.1048926,29.4895137 38.4346973,29.528002 39.3776602,29.0564629 C39.756666,28.8669023 39.961207,28.6387383 39.961207,28.5203926 C39.961207,28.3135469 39.961207,28.281627 39.7311992,28.1589023 C39.2801719,27.9181777 38.48275,27.7702168 37.7114863,27.6272109 C36.6818672,27.4361523 35.6172168,27.2386406 34.6946504,26.7462441 C33.3474453,26.0271816 32.6352969,24.8475273 32.6352969,23.3348457 C32.6352969,21.8204355 33.543459,20.4977754 35.1268945,19.7061152 C35.5022129,19.5183984 35.895623,19.3698613 36.298252,19.2581992 L36.298252,18.7830879 C36.298252,17.8284863 37.072166,17.0545723 38.0267676,17.0545723 C38.9813691,17.0545723 39.7552832,17.8284863 39.7552832,18.7830879 L39.7552832,19.2063438 C40.4749219,19.3876074 41.1458164,19.6924023 41.7142676,20.1186543 C42.478041,20.6914844 42.6328008,21.774918 42.0599707,22.5385762 C41.4871406,23.3022344 40.4039375,23.4571094 39.6400488,22.8842793 C38.9476055,22.364918 37.6166484,22.3264297 36.6728789,22.798084 C36.2916836,22.9886816 36.0923281,23.2123516 36.0923281,23.3347305 C36.0923281,23.5416914 36.0923281,23.5734961 36.3223359,23.6963359 C36.7733633,23.9370605 37.5709004,24.0850215 38.3420488,24.2280273 C39.371668,24.4190859 40.4363184,24.6165977 41.359,25.1089941 C42.7060898,25.8280566 43.4182383,27.0077109 43.4182383,28.5203926 C43.4183535,30.0334199 42.5090391,31.3557344 40.9237598,32.1484316 L40.9237598,32.1484316 Z" id="Shape"></path>
            <path d="M8.64257812,5.18554688 L39.7558594,5.18554688 C40.7104609,5.18554688 41.484375,4.41163281 41.484375,3.45703125 L41.484375,1.72851562 C41.484375,0.773914063 40.7104609,0 39.7558594,0 L8.64257812,0 C7.68797656,0 6.9140625,0.773914063 6.9140625,1.72851562 L6.9140625,3.45703125 C6.9140625,4.41163281 7.68797656,5.18554688 8.64257812,5.18554688 Z" id="Path"></path>
            <path d="M3.45703125,36.2988281 L3.45703125,38.0273438 C3.45703125,38.9819453 4.23094531,39.7558594 5.18554688,39.7558594 L27.7631875,39.7558594 C25.8879785,38.3596797 24.3295488,36.598207 23.146668,34.5703125 L5.18554688,34.5703125 C4.23094531,34.5703125 3.45703125,35.3442266 3.45703125,36.2988281 Z" id="Path"></path>
            <path d="M3.45703125,19.0136719 L3.45703125,20.7421875 C3.45703125,21.6967891 4.23094531,22.4707031 5.18554688,22.4707031 L21.0915781,22.4707031 C21.4721973,20.6029844 22.2151133,18.8821895 23.146668,17.2851562 L5.18554688,17.2851562 C4.23094531,17.2851562 3.45703125,18.0590703 3.45703125,19.0136719 Z" id="Path"></path>
            <path d="M1.72851562,31.1132812 L21.6247676,31.1132812 C21.1017187,29.4657754 20.7421875,27.7461328 20.7421875,25.9277344 L1.72851562,25.9277344 C0.773914062,25.9277344 -5.32907052e-15,26.7016484 -5.32907052e-15,27.65625 L-5.32907052e-15,29.3847656 C-5.32907052e-15,30.3393672 0.773914062,31.1132812 1.72851562,31.1132812 Z" id="Path"></path>
            <path d="M1.72851562,13.828125 L25.7144355,13.828125 C28.8523828,10.6350957 33.207666,8.64257812 38.0273438,8.64257812 L1.72851562,8.64257812 C0.773914063,8.64257812 0,9.41649219 0,10.3710938 L0,12.0996094 C0,13.0542109 0.773914063,13.828125 1.72851562,13.828125 Z" id="Path"></path>
        </g>
    </g>
</svg>