<?xml version="1.0" encoding="UTF-8"?>
<svg width="51px" height="59px" viewBox="0 0 51 59" version="1.1" xmlns="http://www.w3.org/2000/svg" xmlns:xlink="http://www.w3.org/1999/xlink">
    <title>ss-icons-7</title>
    <g id="Page-2" stroke="none" stroke-width="1" fill="none" fill-rule="evenodd">
        <g id="ss-icons-7" transform="translate(0.000005, 0.000000)" fill="#000000" fill-rule="nonzero">
            <g id="leader">
                <path d="M13.8862031,3.45680078 C11.0268926,3.45680078 8.70088672,5.89804102 8.70088672,8.75735156 C8.70088672,11.6166621 11.0268926,13.942668 13.8862031,13.942668 C16.7455137,13.942668 19.0715195,11.6166621 19.0715195,8.75735156 C19.0714043,5.89804102 16.7455137,3.45680078 13.8862031,3.45680078 Z" id="Path"></path>
                <path d="M31.1703223,17.3994688 L6.97237109,17.3994688 C3.15949609,17.3994688 0.0587695312,20.5001953 0.0587695312,24.3131855 L0.0587695312,34.6837031 C0.0587695312,36.589334 1.60993945,38.1405039 3.51557031,38.1405039 C4.05313867,38.1405039 6.136,37.6839453 6.67875391,37.5750488 L3.64901172,54.58975 C3.12573242,56.4227832 4.18750195,58.3385547 6.02053516,58.8635625 C7.91694727,59.4025137 9.77648437,58.290502 10.2959609,56.4903105 L13.8870098,41.3346855 L17.4746016,56.488582 C17.9793281,58.2439473 19.938082,59.3902988 21.7517559,58.861834 C23.4531914,58.376582 24.692998,56.6299746 24.1232793,54.5913633 L20.7998047,35.9293867 L20.7998047,24.3131855 L31.1703223,24.3131855 C33.0759531,24.3131855 34.627123,22.7620156 34.627123,20.8563848 C34.627123,18.9507539 33.0759531,17.3994688 31.1703223,17.3994688 Z" id="Path"></path>
                <path d="M45.7134766,7.02895117 L49.6767324,2.95046094 C50.1712031,2.455875 50.3197402,1.71330469 50.0513594,1.06683984 C49.784707,0.420259766 49.1534531,0 48.4546719,0 L31.1704375,0 C30.2158359,0 29.4420371,0.773914063 29.4420371,1.72840039 L29.4420371,13.9425527 L48.4546719,13.9425527 C49.1534531,13.9425527 49.784707,13.522293 50.0513594,12.8757129 C50.3197402,12.229248 50.1712031,11.4865625 49.6766172,10.9919766 L45.7134766,7.02895117 Z" id="Path"></path>
                <path d="M31.1704375,27.7699863 L29.4420371,27.7699863 L29.4420371,57.2684883 C29.4420371,58.2238965 30.2151445,58.9968887 31.1704375,58.9968887 C32.1258457,58.9968887 32.8988379,58.2237813 32.8988379,57.2684883 L32.8988379,27.5245371 C32.3430625,27.6688105 31.7706934,27.7699863 31.1704375,27.7699863 Z" id="Path"></path>
            </g>
        </g>
    </g>
</svg>